<svg width="21" height="22" viewBox="0 0 21 22" fill="none" xmlns="http://www.w3.org/2000/svg">
<path d="M15.75 12.4865V16.3684H13.4999V12.7459C13.4999 11.8366 13.1743 11.216 12.3595 11.216C11.7379 11.216 11.3673 11.6339 11.2045 12.0392C11.1457 12.1841 11.13 12.3857 11.13 12.5873V16.3684H8.8788C8.8788 16.3684 8.90925 10.2343 8.8788 9.59905H11.13V10.5577L11.1153 10.5797H11.13V10.5587C11.4293 10.0967 11.9626 9.43944 13.1586 9.43944C14.6391 9.43944 15.75 10.4075 15.75 12.4865ZM6.52365 6.33459C5.754 6.33459 5.25 6.8407 5.25 7.5043C5.25 8.1553 5.7393 8.67505 6.49425 8.67505H6.50895C7.29435 8.67505 7.7826 8.15425 7.7826 7.5043C7.7679 6.8407 7.29435 6.33459 6.52365 6.33459ZM5.38335 16.3684H7.63455V9.59905H5.38335V16.3684Z" fill="#32254A" fill-opacity="0.7"/>
<path d="M4.2 2.90005C3.64305 2.90005 3.1089 3.1213 2.71508 3.51512C2.32125 3.90895 2.1 4.44309 2.1 5.00005V17.6C2.1 18.157 2.32125 18.6911 2.71508 19.085C3.1089 19.4788 3.64305 19.7 4.2 19.7H16.8C17.357 19.7 17.8911 19.4788 18.2849 19.085C18.6787 18.6911 18.9 18.157 18.9 17.6V5.00005C18.9 4.44309 18.6787 3.90895 18.2849 3.51512C17.8911 3.1213 17.357 2.90005 16.8 2.90005H4.2ZM4.2 0.800049H16.8C17.9139 0.800049 18.9822 1.24255 19.7698 2.0302C20.5575 2.81785 21 3.88614 21 5.00005V17.6C21 18.714 20.5575 19.7822 19.7698 20.5699C18.9822 21.3575 17.9139 21.8 16.8 21.8H4.2C3.08609 21.8 2.0178 21.3575 1.23015 20.5699C0.442499 19.7822 0 18.714 0 17.6V5.00005C0 3.88614 0.442499 2.81785 1.23015 2.0302C2.0178 1.24255 3.08609 0.800049 4.2 0.800049Z" fill="#32254A" fill-opacity="0.7"/>
</svg>
