<svg width="66" height="66" viewBox="0 0 66 66" fill="none" xmlns="http://www.w3.org/2000/svg">
<path d="M44.5649 28.935C44.2825 28.6525 43.8994 28.4938 43.4999 28.4938C43.1005 28.4938 42.7174 28.6525 42.4349 28.935C42.1525 29.2174 41.9938 29.6005 41.9938 30C41.9938 30.3994 42.1525 30.7825 42.4349 31.065L50.3849 39L42.4349 46.935C42.2943 47.0744 42.1827 47.2403 42.1066 47.4231C42.0304 47.6059 41.9912 47.802 41.9912 48C41.9912 48.198 42.0304 48.394 42.1066 48.5768C42.1827 48.7596 42.2943 48.9255 42.4349 49.065C42.5744 49.2056 42.7403 49.3172 42.923 49.3933C43.1058 49.4695 43.3019 49.5087 43.4999 49.5087C43.6979 49.5087 43.894 49.4695 44.0768 49.3933C44.2596 49.3172 44.4255 49.2056 44.5649 49.065L53.5649 40.065C53.7055 39.9255 53.8171 39.7596 53.8932 39.5768C53.9694 39.394 54.0086 39.198 54.0086 39C54.0086 38.802 53.9694 38.6059 53.8932 38.4231C53.8171 38.2403 53.7055 38.0744 53.5649 37.935L44.5649 28.935Z" fill="#C3AED6"/>
<path d="M23.5649 28.935C23.4255 28.7944 23.2596 28.6828 23.0768 28.6067C22.894 28.5305 22.6979 28.4913 22.4999 28.4913C22.3019 28.4913 22.1058 28.5305 21.923 28.6067C21.7403 28.6828 21.5744 28.7944 21.4349 28.935L12.4349 37.935C12.2943 38.0745 12.1827 38.2404 12.1066 38.4232C12.0304 38.606 11.9912 38.802 11.9912 39C11.9912 39.198 12.0304 39.3941 12.1066 39.5769C12.1827 39.7597 12.2943 39.9256 12.4349 40.065L21.4349 49.065C21.5744 49.2056 21.7403 49.3172 21.923 49.3934C22.1058 49.4695 22.3019 49.5087 22.4999 49.5087C22.6979 49.5087 22.894 49.4695 23.0768 49.3934C23.2596 49.3172 23.4255 49.2056 23.5649 49.065C23.7055 48.9256 23.8171 48.7597 23.8932 48.5769C23.9694 48.3941 24.0086 48.198 24.0086 48C24.0086 47.802 23.9694 47.606 23.8932 47.4232C23.8171 47.2404 23.7055 47.0745 23.5649 46.935L15.6149 39L23.5649 31.065C23.7055 30.9256 23.8171 30.7597 23.8932 30.5769C23.9694 30.3941 24.0086 30.198 24.0086 30C24.0086 29.802 23.9694 29.606 23.8932 29.4232C23.8171 29.2404 23.7055 29.0745 23.5649 28.935Z" fill="#C3AED6"/>
<path d="M37.9799 24.075C37.7928 24.0115 37.595 23.9855 37.3978 23.9987C37.2007 24.0118 37.008 24.0638 36.831 24.1516C36.654 24.2394 36.4961 24.3613 36.3663 24.5104C36.2366 24.6594 36.1375 24.8326 36.0749 25.02L27.0749 52.02C26.9996 52.2115 26.9644 52.4165 26.9716 52.6221C26.9789 52.8278 27.0283 53.0297 27.117 53.2155C27.2056 53.4012 27.3315 53.5667 27.4869 53.7016C27.6422 53.8366 27.8236 53.9382 28.0199 54C28.1793 54.0206 28.3406 54.0206 28.4999 54C28.8144 54.0008 29.1211 53.9028 29.3769 53.7198C29.6326 53.5367 29.8243 53.2779 29.9249 52.98L38.9249 25.98C38.9885 25.7929 39.0144 25.5951 39.0012 25.3979C38.9881 25.2008 38.9361 25.0081 38.8483 24.8311C38.7605 24.6541 38.6386 24.4962 38.4896 24.3664C38.3405 24.2367 38.1673 24.1376 37.9799 24.075Z" fill="#C3AED6"/>
<path d="M61.5 0H4.5C3.30653 0 2.16193 0.474106 1.31802 1.31802C0.474106 2.16193 0 3.30653 0 4.5V61.5C0 62.6935 0.474106 63.8381 1.31802 64.682C2.16193 65.5259 3.30653 66 4.5 66H61.5C62.6935 66 63.8381 65.5259 64.682 64.682C65.5259 63.8381 66 62.6935 66 61.5V4.5C66 3.30653 65.5259 2.16193 64.682 1.31802C63.8381 0.474106 62.6935 0 61.5 0ZM4.5 3H61.5C61.8978 3 62.2794 3.15804 62.5607 3.43934C62.842 3.72064 63 4.10218 63 4.5V12H3V4.5C3 4.10218 3.15804 3.72064 3.43934 3.43934C3.72064 3.15804 4.10218 3 4.5 3ZM61.5 63H4.5C4.10218 63 3.72064 62.842 3.43934 62.5607C3.15804 62.2794 3 61.8978 3 61.5V15H63V61.5C63 61.8978 62.842 62.2794 62.5607 62.5607C62.2794 62.842 61.8978 63 61.5 63Z" fill="#C3AED6"/>
<path d="M55.5 9H58.5C58.8978 9 59.2794 8.84196 59.5607 8.56066C59.842 8.27936 60 7.89782 60 7.5C60 7.10218 59.842 6.72064 59.5607 6.43934C59.2794 6.15804 58.8978 6 58.5 6H55.5C55.1022 6 54.7206 6.15804 54.4393 6.43934C54.158 6.72064 54 7.10218 54 7.5C54 7.89782 54.158 8.27936 54.4393 8.56066C54.7206 8.84196 55.1022 9 55.5 9Z" fill="#C3AED6"/>
<path d="M46.5 9H49.5C49.8978 9 50.2794 8.84196 50.5607 8.56066C50.842 8.27936 51 7.89782 51 7.5C51 7.10218 50.842 6.72064 50.5607 6.43934C50.2794 6.15804 49.8978 6 49.5 6H46.5C46.1022 6 45.7206 6.15804 45.4393 6.43934C45.158 6.72064 45 7.10218 45 7.5C45 7.89782 45.158 8.27936 45.4393 8.56066C45.7206 8.84196 46.1022 9 46.5 9Z" fill="#C3AED6"/>
<path d="M37.5 9H40.5C40.8978 9 41.2794 8.84196 41.5607 8.56066C41.842 8.27936 42 7.89782 42 7.5C42 7.10218 41.842 6.72064 41.5607 6.43934C41.2794 6.15804 40.8978 6 40.5 6H37.5C37.1022 6 36.7206 6.15804 36.4393 6.43934C36.158 6.72064 36 7.10218 36 7.5C36 7.89782 36.158 8.27936 36.4393 8.56066C36.7206 8.84196 37.1022 9 37.5 9Z" fill="#C3AED6"/>
</svg>
