<svg width="40" height="40" viewBox="0 0 40 40" fill="none" xmlns="http://www.w3.org/2000/svg">
<path d="M40 10C40 4.47715 35.5228 0 30 0H10C4.47715 0 0 4.47715 0 10V30C0 35.5228 4.47715 40 10 40H30C35.5228 40 40 35.5228 40 30V10Z" fill="white"/>
<path d="M30 1H10V-1H30V1ZM1 10V30H-1V10H1ZM10 39H30V41H10V39ZM39 30V10H41V30H39ZM30 39C34.9706 39 39 34.9706 39 30H41C41 36.0751 36.0751 41 30 41V39ZM1 30C1 34.9706 5.02944 39 10 39V41C3.92487 41 -1 36.0751 -1 30H1ZM10 1C5.02944 1 1 5.02944 1 10H-1C-1 3.92487 3.92487 -1 10 -1V1ZM30 -1C36.0751 -1 41 3.92487 41 10H39C39 5.02944 34.9706 1 30 1V-1Z" fill="#32254A" fill-opacity="0.4"/>
<rect width="21" height="21" transform="matrix(-1 0 0 1 31 9)" fill="white"/>
<path d="M26.4424 20.3751H16.6686L20.9386 24.6451C21.2799 24.9864 21.2799 25.5464 20.9386 25.8876C20.5974 26.2289 20.0461 26.2289 19.7049 25.8876L13.9386 20.1214C13.5974 19.7801 13.5974 19.2289 13.9386 18.8876L19.6961 13.1126C19.8596 12.9488 20.0816 12.8567 20.313 12.8567C20.5445 12.8567 20.7664 12.9488 20.9299 13.1126C21.2711 13.4539 21.2711 14.0051 20.9299 14.3464L16.6686 18.6251H26.4424C26.9236 18.6251 27.3174 19.0189 27.3174 19.5001C27.3174 19.9814 26.9236 20.3751 26.4424 20.3751Z" fill="#C3AED6"/>
</svg>
