<svg width="40" height="40" viewBox="0 0 40 40" fill="none" xmlns="http://www.w3.org/2000/svg">
<path d="M0 10C0 4.47715 4.47715 0 10 0H30C35.5228 0 40 4.47715 40 10V30C40 35.5228 35.5228 40 30 40H10C4.47715 40 0 35.5228 0 30V10Z" fill="white"/>
<path d="M10 1H30V-1H10V1ZM39 10V30H41V10H39ZM30 39H10V41H30V39ZM1 30V10H-1V30H1ZM10 39C5.02944 39 1 34.9706 1 30H-1C-1 36.0751 3.92487 41 10 41V39ZM39 30C39 34.9706 34.9706 39 30 39V41C36.0751 41 41 36.0751 41 30H39ZM30 1C34.9706 1 39 5.02944 39 10H41C41 3.92487 36.0751 -1 30 -1V1ZM10 -1C3.92487 -1 -1 3.92487 -1 10H1C1 5.02944 5.02944 1 10 1V-1Z" fill="#32254A" fill-opacity="0.4"/>
<rect width="21" height="21" transform="translate(9 9)" fill="white"/>
<path d="M13.5576 20.3751H23.3314L19.0614 24.6451C18.7201 24.9864 18.7201 25.5464 19.0614 25.8876C19.4026 26.2289 19.9539 26.2289 20.2951 25.8876L26.0614 20.1214C26.4026 19.7801 26.4026 19.2289 26.0614 18.8876L20.3039 13.1126C20.1404 12.9488 19.9184 12.8567 19.687 12.8567C19.4555 12.8567 19.2336 12.9488 19.0701 13.1126C18.7289 13.4539 18.7289 14.0051 19.0701 14.3464L23.3314 18.6251H13.5576C13.0764 18.6251 12.6826 19.0189 12.6826 19.5001C12.6826 19.9814 13.0764 20.3751 13.5576 20.3751Z" fill="#C3AED6"/>
</svg>
