<svg width="78" height="65" viewBox="0 0 78 65" fill="none" xmlns="http://www.w3.org/2000/svg">
<path d="M60.7577 54.8737C59.9367 54.7369 58.7051 51.8632 58.2946 49.1264C57.7472 45.979 55.1472 44.0632 51.3156 44.0632C49.8104 44.0632 48.1683 44.8843 47.0735 46.1158C46.1156 47.2106 45.5683 48.8527 45.8419 50.3579C45.9788 51.5895 46.2525 53.0948 47.484 54.6C48.9893 56.7895 51.5893 58.1579 54.3261 58.2948C54.8735 58.2948 55.6946 58.4316 56.5156 58.4316C58.8419 58.4316 61.7156 58.1579 61.9893 56.7895C62.1261 56.1053 61.8525 55.1474 60.7577 54.8737ZM54.5998 55.4211C52.5472 55.2843 50.7682 54.3264 49.6735 52.8211C48.8525 51.8632 48.7156 50.9053 48.5788 49.9474C48.4419 49.2632 48.7156 48.4421 49.263 47.8948C49.8104 47.3474 50.6314 46.8 51.3156 46.8C53.0946 46.8 55.1472 47.3474 55.5577 49.6737C55.6946 50.7685 56.3788 53.5053 57.4735 55.4211C56.5156 55.4211 55.284 55.4211 54.5998 55.4211Z" fill="#C3AED6"/>
<path d="M48.1693 40.7789C48.1693 40.7789 47.8956 40.3684 47.3482 39.6842C46.3903 38.3158 45.2956 37.0842 44.3377 35.8526L59.8008 20.1158C60.2114 19.7052 60.485 19.2947 60.6219 18.7474C60.7587 18.0631 60.485 17.3789 59.9377 16.8316L58.1587 15.0526C57.2008 14.0947 55.9692 14.0947 54.8745 14.9158L54.7377 15.0526L39.4114 30.1052C34.3482 24.9052 29.1482 20.3895 23.1271 16.421C22.9903 16.2842 22.8535 16.2842 22.7166 16.1474C21.6219 15.6 20.3903 15.8737 19.7061 16.8316C19.2956 17.3789 19.2956 17.9263 19.2956 18.2C19.2956 18.4737 19.2956 19.021 19.7061 19.5684L23.6745 25.3158L24.6324 26.5474C26.8219 29.2842 29.8324 32.8421 33.1166 36.2631L25.5903 43.6526L25.4535 43.7895C25.4535 43.7895 25.3166 43.7895 25.3166 43.9263L23.6745 46.6631L18.7482 49.1263C18.3377 49.4 17.9271 49.8105 17.9271 50.3579C17.9271 51.5895 17.5166 55.421 15.7377 57.2C15.464 57.4737 15.3271 57.8842 15.3271 58.1579C15.3271 58.4316 15.464 58.8421 15.7377 59.1158C16.0114 59.3895 16.4219 59.5263 16.6956 59.5263C16.9693 59.5263 17.3798 59.3895 17.6535 59.1158C19.4324 57.3368 23.1271 56.9263 24.4956 56.9263C25.0429 56.9263 25.4535 56.6526 25.7271 56.1052L28.1903 51.1789L30.9271 49.5368C30.9271 49.5368 30.9271 49.4 31.064 49.4L31.2008 49.2631L38.5903 41.6C41.0535 43.9263 42.8324 45.4316 42.8324 45.4316C43.1061 45.7052 43.3798 45.7052 43.7903 45.7052C44.2008 45.7052 44.4745 45.5684 44.7482 45.4316L48.0324 42.5579C48.4429 42.1473 48.5798 41.4631 48.1693 40.7789ZM56.3798 17.1052L57.6114 18.3368L37.7693 38.5895C37.6324 38.5895 37.6324 38.7263 37.4956 38.7263C37.4956 38.7263 37.3587 38.8631 37.3587 39L30.1061 46.3895L28.6008 44.8842L28.3271 44.4737L40.2324 32.8421L56.3798 17.1052ZM28.0535 48.0316L27.2324 48.4421L26.2745 47.4842L26.685 46.6631L27.3693 47.3473L28.0535 48.0316ZM26.685 24.7684L25.7271 23.5368L22.9903 19.5684C28.1903 23.1263 32.8429 27.2316 37.2219 31.7474L34.8956 34.2105C31.7482 30.9263 28.8745 27.5052 26.685 24.7684ZM23.6745 54.0526C22.8535 54.0526 21.485 54.3263 19.9798 54.7368C20.3903 53.2316 20.5271 52 20.664 51.0421L24.2219 49.2631L25.4535 50.4947L23.6745 54.0526ZM43.7903 42.6947C43.1061 42.0105 41.8745 41.0526 40.5061 39.6842L42.285 37.7684C43.2429 38.8631 44.064 40.0947 45.0219 41.3263L43.7903 42.6947Z" fill="#C3AED6"/>
<path d="M73.6211 0H4.37895C1.91579 0 0 1.91579 0 4.37895V60.0737C0 62.4 1.91579 64.3158 4.37895 64.3158H73.6211C76.0842 64.3158 78 62.4 78 59.9368V4.37895C78 1.91579 76.0842 0 73.6211 0ZM4.37895 2.73684H73.6211C74.5789 2.73684 75.2632 3.42105 75.2632 4.37895V8.75789H2.73684V4.37895C2.73684 3.42105 3.42105 2.73684 4.37895 2.73684ZM73.6211 61.5789H4.37895C3.42105 61.5789 2.73684 60.8947 2.73684 60.0737V11.4947H75.2632V59.9368C75.2632 60.8947 74.5789 61.5789 73.6211 61.5789Z" fill="#C3AED6"/>
<path d="M7.93678 7.11581H10.2631C11.0841 7.11581 11.6315 6.56844 11.6315 5.74739C11.6315 4.92634 11.0841 4.37897 10.2631 4.37897H7.93678C7.11573 4.37897 6.56836 4.92634 6.56836 5.74739C6.56836 6.56844 7.11573 7.11581 7.93678 7.11581Z" fill="#C3AED6"/>
<path d="M14.6428 7.11581H16.8323C17.6534 7.11581 18.2007 6.56844 18.2007 5.74739C18.2007 4.92634 17.6534 4.37897 16.8323 4.37897H14.6428C13.8218 4.37897 13.2744 4.92634 13.2744 5.74739C13.2744 6.56844 13.8218 7.11581 14.6428 7.11581Z" fill="#C3AED6"/>
<path d="M21.3469 7.11581H23.5364C24.3575 7.11581 24.9048 6.56844 24.9048 5.74739C24.9048 4.92634 24.3575 4.37897 23.5364 4.37897H21.3469C20.5259 4.37897 19.9785 4.92634 19.9785 5.74739C19.9785 6.56844 20.5259 7.11581 21.3469 7.11581Z" fill="#C3AED6"/>
<path d="M27.9153 7.11581H70.0627C70.8837 7.11581 71.4311 6.56844 71.4311 5.74739C71.4311 4.92634 70.8837 4.37897 70.0627 4.37897H27.9153C27.0942 4.37897 26.5469 4.92634 26.5469 5.74739C26.5469 6.56844 27.0942 7.11581 27.9153 7.11581Z" fill="#C3AED6"/>
</svg>
