<svg width="88" height="73" viewBox="0 0 88 73" fill="none" xmlns="http://www.w3.org/2000/svg">
<path d="M61.3421 50.5941C61.3421 49.6138 61.3421 48.6177 61.3421 47.6179H72.1202H73.1112C74.7566 47.6179 76.0887 46.2845 76.0887 44.6427V3.96762V2.97618C76.0887 1.33152 74.7547 0 73.1112 0H14.8879C13.2416 0 11.9103 1.33245 11.9103 2.97618V3.96762V44.6427C11.9103 46.2864 13.2425 47.6179 14.8879 47.6179H15.8798H56.4876C56.4876 48.6196 56.4876 49.6175 56.4876 50.5941H52.3536V51.5846C52.3536 52.1328 51.9092 52.576 51.3608 52.576H39.4523C38.9019 52.576 38.4594 52.131 38.4594 51.5846V50.5941H0V52.5779C0 52.5779 0 55.5541 2.97758 55.5541H56.4876C56.4876 57.1495 56.4876 58.5265 56.4876 59.5412C56.4876 65.8578 56.7916 72.875 59.2189 72.875C61.6452 72.875 61.3421 66.5593 61.3421 59.5412C61.3421 58.4699 61.3421 57.1002 61.3421 55.5541H85.0224C88 55.5541 88 52.5779 88 52.5779V50.5941H61.3421ZM15.8808 43.6512V3.96762H72.1202V43.6512H61.3421C61.3421 40.8823 61.3421 38.3158 61.3421 36.3813H62.2383L61.3096 28.5408C62.9401 27.8569 63.9172 26.3535 64.1487 24.8018C64.8477 20.1076 62.0096 19.4618 61.8655 17.4231C61.793 16.3871 62.2336 15.2005 63.0972 14.1719C63.985 13.1071 65.1173 12.0078 65.1173 12.0078C65.1173 12.0078 61.9836 11.9224 60.2033 12.5022C57.051 13.5317 54.0892 16.4967 53.325 19.7916C52.388 23.8345 53.2488 27.0625 56.5211 28.3615L55.571 36.3841H56.4895C56.4895 38.3205 56.4895 40.8925 56.4895 43.6531L15.8808 43.6512Z" fill="#C3AED6"/>
</svg>
