<svg width="656" height="656" fill="none" xmlns="http://www.w3.org/2000/svg"><path opacity=".7" d="M103.399 275.52s-19.68 83.968 35.096 157.191c54.776 73.222 150.21 101.627 226.976 126.713 76.765 25.085 148.584-3.871 175.532-68.356 26.948-64.484-27.486-99.2-39.491-183.417-12.005-84.217-2.427-108.463-58.424-172.594-55.996-64.13-170.927-62.582-248.624 3.241-77.696 65.823-91.065 137.222-91.065 137.222z" fill="#C3AED6" fill-opacity=".6"/><path d="M536.477 339.191s0-5.484-7.688-13.12c-7.689-7.635-12.609-12.07-12.609-12.07s-3.844 12.608 3.28 20.297a135.65 135.65 0 0017.056 14.812l-.039-9.919zm-11.151 34.27s-.001-5.484-7.676-13.12c-7.675-7.636-12.621-12.07-12.621-12.07s-3.844 12.529 3.293 20.257a134.975 134.975 0 0017.056 14.812l-.052-9.879z" fill="#B9CEC9"/><path d="M535.991 348.546s.578-5.458 9.027-12.293c8.449-6.836 13.894-10.667 13.894-10.667s2.48 12.962-5.419 19.837a134.479 134.479 0 01-18.472 12.937l.97-9.814zm-13.461 40.462s1.142-5.366 10.26-11.27c9.119-5.904 14.878-9.184 14.878-9.184s1.102 13.12-7.478 19.168a135.317 135.317 0 01-19.68 10.916l2.02-9.63zm2.533 44.123s0-5.485 7.675-13.12c7.676-7.636 12.622-12.071 12.622-12.071s3.844 12.622-3.293 20.31a135.954 135.954 0 01-17.056 14.812l.052-9.931z" fill="#B9CEC9"/><path d="M524.931 443.902s.775-5.432-5.733-14.13c-6.507-8.699-10.772-13.737-10.772-13.737s-5.602 11.939.368 20.559a134.714 134.714 0 0014.734 17.056l1.403-9.748zm-7.57 31.908s0-5.484 7.675-13.12c7.675-7.636 12.622-12.07 12.622-12.07s3.844 12.621-3.293 20.296a134.752 134.752 0 01-17.056 14.813l.052-9.919zm5.117 28.943s-1.377-5.314 4.107-14.682c5.484-9.367 9.184-14.878 9.184-14.878s6.914 11.231 1.955 20.481a134.04 134.04 0 01-12.7 18.63l-2.546-9.551z" fill="#B9CEC9"/><path d="M537.173 337.788a156.963 156.963 0 01-2.1 17.056c-3.043 15.678-10.627 25.807-13.671 39.976-3.043 14.17 5.681 32.42 3.346 50.63-2.335 18.211-9.42 28.313-7.387 40.462 2.034 12.15 12.687 45.028 12.687 45.028m5.865-178.747l8.279-6.363m-7.885-.958l-3.464-6.166m-10.982 55.445s6.928-5.248 14.052-10.391m-10.588-.42s-5.772-11.322-12.319-18.827m12.319 76.424a85.721 85.721 0 0114.826-19.785" stroke="#263238" stroke-width=".5" stroke-linecap="round" stroke-linejoin="round"/><path d="M523.987 448.704a97.74 97.74 0 00-7.518-14.248c-4.041-5.97-4.618-6.744-4.618-6.744m5.51 58.187a91.349 91.349 0 016.232-12.621 79.806 79.806 0 018.095-10.588m-6.704 51.614a23.496 23.496 0 012.073-12.149c2.886-5.589 6.166-12.897 7.518-15.744" stroke="#263238" stroke-width=".5" stroke-linecap="round" stroke-linejoin="round"/><path d="M486.175 412.493s-.59-3.438 3.385-9.092c3.976-5.655 6.56-8.935 6.56-8.935s3.779 7.491.145 13.12a84.897 84.897 0 01-9.053 11.139l-1.037-6.232zm10.706 20.283s-.59-3.45 3.398-9.092c3.989-5.641 6.561-8.948 6.561-8.948s3.778 7.505.131 13.12a85.953 85.953 0 01-9.053 11.139l-1.037-6.219z" fill="#B9CEC9"/><path d="M487.487 418.305s-.944-3.359-6.993-6.73c-6.048-3.372-9.827-5.183-9.827-5.183s-.144 8.397 5.55 11.808a85.94 85.94 0 0013.002 6.114l-1.732-6.009zm12.844 23.918s-1.312-3.241-7.662-5.957c-6.35-2.716-10.325-4.132-10.325-4.132s.734 8.37 6.77 11.204a85.321 85.321 0 0013.566 4.71l-2.349-5.825zm3.202 27.932s-.591-3.437-6.246-7.426c-5.654-3.988-9.184-6.192-9.184-6.192s-1.036 8.331 4.264 12.372a86.193 86.193 0 0012.281 7.439l-1.115-6.193z" fill="#B9CEC9"/><path d="M504.78 476.899s-1.076-3.319 2.06-9.486c3.135-6.166 5.248-9.787 5.248-9.787s4.802 6.888 1.994 12.936a85.45 85.45 0 01-7.387 12.32l-1.915-5.983zm9.643 27.749s.393-3.464 5.812-7.767c5.419-4.304 8.856-6.718 8.856-6.718s1.509 8.266-3.555 12.596a85.49 85.49 0 01-11.808 8.134l.695-6.245zm-1.431-8.554s-.59-3.438-6.245-7.426c-5.655-3.989-9.184-6.206-9.184-6.206s-1.036 8.331 4.277 12.385a85.573 85.573 0 0012.267 7.439l-1.115-6.192zm0 18.695s.289-3.476-4.172-8.764c-4.461-5.287-7.347-8.331-7.347-8.331s-3.11 7.793.997 13.12a86.464 86.464 0 009.984 10.312l.538-6.337z" fill="#B9CEC9"/><path d="M485.585 411.693a98.82 98.82 0 003.175 10.496c3.608 9.498 9.46 15.022 12.91 23.616 3.451 8.593 0 20.992 3.385 32.117 3.385 11.126 8.987 16.728 9.04 24.574.052 7.846-3.044 29.612-3.044 29.612m-23.118-111.533l-5.877-3.084m4.84-1.456l1.509-4.238m12.897 33.574s-4.906-2.505-9.945-4.998m6.6-1.404a70.031 70.031 0 015.681-13.12m.578 49.239a54.667 54.667 0 00-11.454-10.824" stroke="#263238" stroke-width=".5" stroke-linecap="round" stroke-linejoin="round"/><path d="M505.895 479.772a61.196 61.196 0 013.161-9.748c1.89-4.185 2.165-4.736 2.165-4.736m2.598 43.073a52.982 52.982 0 016.324-6.56 33.442 33.442 0 004.107-3.569m-10.155 4.185a58.268 58.268 0 00-5.248-7.242 51.762 51.762 0 00-6.219-5.76m9.761 31.646a14.87 14.87 0 00-2.624-7.4c-2.414-3.188-5.248-7.426-6.415-9.079" stroke="#263238" stroke-width=".5" stroke-linecap="round" stroke-linejoin="round"/><path d="M495.359 528.238h50.25v37.654a3.936 3.936 0 01-3.936 3.936h-42.325a3.936 3.936 0 01-3.936-3.936v-37.654h-.053z" fill="#263238"/><path d="M545.163 534.784h-49.856a3.935 3.935 0 110-7.872h49.856a3.936 3.936 0 010 7.872zm-95.579-350.225c24.636 0 44.608-19.972 44.608-44.608 0-24.636-19.972-44.608-44.608-44.608-24.637 0-44.608 19.972-44.608 44.608 0 24.636 19.971 44.608 44.608 44.608z" fill="#263238"/><path d="M464.122 175.8c19.801-8.032 29.342-30.596 21.309-50.397-8.032-19.801-30.596-29.342-50.397-21.309-19.801 8.032-29.342 30.596-21.309 50.397 8.032 19.801 30.596 29.342 50.397 21.309z" fill="#fff"/><path d="M424.484 147.062l25.099-7.111v-35.109" stroke="#263238" stroke-width="2" stroke-miterlimit="10"/><path d="M233.142 339.375h-48.977l-64.117-172.082h48.977l64.117 172.082z" fill="#263238"/><path opacity=".2" d="M233.142 339.375h-48.977l-64.117-172.082h48.977l64.117 172.082z" fill="#fff"/><path d="M155.945 209.329h-12.596a4.525 4.525 0 01-3.936-2.847l-4.867-13.054a1.904 1.904 0 011.784-2.834h12.595a4.559 4.559 0 013.936 2.834l4.868 13.054c.577 1.575-.21 2.847-1.784 2.847zm16.32-33.337h-48.977l-3.24-8.699h48.977l3.24 8.699z" fill="#263238"/><path d="M140.029 177.422l1.404 3.778m.486-3.778l1.404 3.778m.472-3.778l1.417 3.778m.473-3.778l1.403 3.778m.485-3.778l1.404 3.778m.486-3.778l1.404 3.778m.486-3.778l1.403 3.778m.485-3.778l1.404 3.778m.472-3.778l1.417 3.778m.473-3.778l1.404 3.778" stroke="#263238" stroke-linecap="round" stroke-linejoin="round"/><path d="M151.864 201.143l-11.808-7.518a.735.735 0 00-.787-.079.497.497 0 00-.119.669l5.432 11.716c.071.149.174.279.301.383.127.105.275.18.434.221h.184a.433.433 0 00.446-.302l1.312-3.857h4.723a.428.428 0 00.337-.116.446.446 0 00.135-.33 1.03 1.03 0 00-.59-.787z" fill="#fff"/><path d="M151.628 201.667l-11.86-7.517 5.431 11.716 1.352-4.146 5.077-.053z" fill="#263238"/><path d="M173.787 201.667l-11.86-7.517 5.445 11.716 1.338-4.146 5.077-.053zm6.075 6.665l-1.063-2.414-1.403 2.034 2.466.38zm28.654 76.91l-1.062-2.414-1.404 2.033 2.466.381zm8.803 23.603l-1.076-2.414-1.39 2.02 2.466.394zm9.014 24.193l-1.076-2.414-1.391 2.033 2.467.381zm-50.499-75.046l-1.076-2.414-1.391 2.02 2.467.394zm10.155 27.25l-1.076-2.414-1.391 2.033 2.467.381zm8.79 23.603l-1.063-2.414-1.404 2.02 2.467.394zm9.027 24.193l-1.075-2.414-1.391 2.033 2.466.381zm-51.942-98.807l2.06 1.325 5.668-11.821-2.06-1.338-5.668 11.834zm2.545-11.585c-3.004-2.335-3.214-2.807-2.479-5.458-1.549 2.126-2.008 2.165-5.248.433 3.004 2.349 3.214 2.821 2.479 5.471 1.496-2.125 1.955-2.164 5.248-.446zm9.893 1.273c-1.85-1.443-1.981-1.732-1.535-3.372-.958 1.312-1.233 1.312-3.267.276 1.85 1.443 1.981 1.731 1.522 3.371.958-1.312 1.246-1.338 3.28-.275zm-.564 5.563c-1.312-1.037-1.417-1.233-1.089-2.401-.682.931-.892.945-2.336.184 1.312 1.036 1.404 1.246 1.089 2.414.683-.945.879-.958 2.336-.197zm29.73 52.44l1.272.906 5.668-11.834-1.272-.906-5.668 11.834zm-4.75-50.748l-10.456-6.625 4.789 10.338 1.193-3.66 4.474-.053z" fill="#fff"/><path d="M180.846 231.791c-3.831 0-7.793-2.27-8.83-5.051-1.036-2.782 1.247-5.012 5.104-5.012s7.793 2.27 8.83 5.038c1.036 2.768-1.26 5.025-5.104 5.025zm-3.529-9.486c-3.503 0-5.602 1.994-4.697 4.435.905 2.44 4.5 4.434 8.003 4.434s5.616-1.981 4.697-4.434c-.918-2.454-4.5-4.435-8.003-4.435z" fill="#fff"/><path d="M176.241 230.781a2.748 2.748 0 01-2.348-1.719 1.157 1.157 0 011.075-1.719 2.745 2.745 0 012.349 1.719 1.151 1.151 0 01-.028 1.179 1.15 1.15 0 01-1.048.54zm-1.05-2.821a.735.735 0 00-.695 1.102 1.758 1.758 0 001.522 1.115c.604 0 .918-.498.695-1.115a1.786 1.786 0 00-1.522-1.102z" fill="#fff"/><path d="M176.411 232.578l-.42-.577a1.653 1.653 0 001.22-1.312 2.38 2.38 0 00-.446-1.47l.499-.209c.404.565.611 1.247.59 1.941-.06.381-.228.736-.484 1.024a2.007 2.007 0 01-.959.603zm-6.56 17.056l-7.308-5.313-1.548 2.466 7.308 5.314 1.548-2.467zm-11.703 6.888l1.194.866 2.624-4.251a.871.871 0 01-.236-1.01c.196-.328.734-.328 1.18 0a.988.988 0 01.447 1.181.745.745 0 01-.958.144l-2.624 4.251 1.115.813 6.56-1.849.407-3.936-7.203-5.248-3.215 1.797.709 7.242z" fill="#fff"/><path d="M151.247 239.82h42.155" stroke="#263238" stroke-linecap="round" stroke-linejoin="round"/><path d="M187.905 244.321l-1.549 2.466 7.308 5.314 1.548-2.467-7.307-5.313zm-5.17 4.959l.774 7.229 1.194.866 2.624-4.251a.884.884 0 01-.236-1.01c.197-.328.735-.328 1.181 0a.982.982 0 01.446 1.181.753.753 0 01-.958.144l-2.624 4.251 1.116.813 6.56-1.85.406-3.936-7.203-5.248-3.28 1.811z" fill="#fff"/><path d="M180.925 251.419c.078-.512.144-1.063.196-1.68a4.372 4.372 0 00-1.036-3.293 6.67 6.67 0 00-3.201-1.981c-.197 0-.355 0-.328.236a.534.534 0 00.393.42c1.004.293 1.91.85 2.624 1.614a3.629 3.629 0 01.827 2.716c0 .603-.131 1.154-.197 1.653-.354 2.624-.564 4.198 3.792 6.809a.425.425 0 00.236.079.233.233 0 00.131-.033.232.232 0 00.092-.099.455.455 0 00-.249-.485c-3.766-2.27-3.622-3.346-3.28-5.956zm-18.657 17.541l.262.682a26.887 26.887 0 001.312 3.083l1.22-.301a20.282 20.282 0 01-.905-2.1h5.248l4.356 11.703h-1.955l.512 1.312h5.248l-.512-1.312h-1.942l-4.382-11.755h5.077l.906 2.467h1.377l-1.167-3.149-.263-.683-14.392.053z" fill="#fff"/><path opacity=".44" d="M189.663 301.393c1.128 3.017-1.312 5.457-5.51 5.457-4.199 0-8.45-2.44-9.565-5.457-1.115-3.018 1.312-5.445 5.51-5.445 4.199 0 8.45 2.44 9.565 5.445z" fill="#fff"/><path d="M189.663 301.393c1.128 3.017-1.312 5.457-5.51 5.457-4.199 0-8.45-2.44-9.565-5.457-1.115-3.018 1.312-5.445 5.51-5.445 4.199 0 8.45 2.44 9.565 5.445z" stroke="#fff" stroke-miterlimit="10"/><path d="M205.184 301.55l4.946-8.987a.917.917 0 011.312-.184 1.481 1.481 0 01.905 1.483l-2.624 9.932-4.539-2.244z" fill="#fff"/><path d="M204.37 302.311c1.942-.262 5.747 1.404 5.852 3.936a1.558 1.558 0 01-.879 1.312 11.14 11.14 0 01-5.537.945 1.551 1.551 0 00.538-1.653 20.708 20.708 0 00-.905-2.126c-.355-1.01-.171-2.361.931-2.44m-10.299 19.745a6.992 6.992 0 00-1.784-2.453l-1.496 2.375a7.876 7.876 0 012.06 2.781c.431.949.93 1.866 1.496 2.742l1.456-2.335a20.64 20.64 0 01-1.732-3.11zm-1.719 2.742a7.26 7.26 0 00-1.798-2.453l-1.495 2.388a7.99 7.99 0 012.073 2.781c.425.95.92 1.867 1.482 2.742l1.47-2.335a18.667 18.667 0 01-1.732-3.123zm2.231-2.781c.425.95.92 1.866 1.482 2.742l2.152-3.437-4.815-3.517-.892 1.417a8.205 8.205 0 012.073 2.795zm-3.962 5.537a6.986 6.986 0 00-1.785-2.454l-1.312 1.994.223 4.527a.6.6 0 00.455.507c.079.018.161.02.241.005l3.831-1.509a20.3 20.3 0 01-1.653-3.07zm-1.693 3.096l-.118-2.414 2.191 1.601-2.073.813zm20.599-6.455l-1.64 2.624 8.475 6.18 1.64-2.625.512.381 3.936-6.18-9.512-6.927-3.87 6.18.459.367zm6.271 7.308l-6.416-4.684 1.168-1.876 6.429 4.684-1.181 1.876zm-86.291-161.875l.315.827-1.181 1.443 2.257 1.443.302.84-3.543-2.283 1.85-2.27zm-2.965 0l.315.827-1.181 1.443 2.257 1.443.315.84-3.556-2.283 1.85-2.27z" fill="#fff"/><path d="M328 270.495H226.7l-30.963-86.382h101.3L328 270.495z" fill="#263238"/><path d="M320.81 265.785h-90.305l-27.578-76.949h90.305l27.578 76.949z" fill="#B9CEC9"/><path d="M303.636 217.884l-14.931-10.995-11.795 30.622-30.582-8.633-15.823 36.907h90.305l-17.174-47.901zm-62.228-12.569c-2.099-5.852-8.541-10.601-14.432-10.601s-8.895 4.749-6.796 10.601c2.099 5.851 8.541 10.601 14.432 10.601s8.908-4.684 6.796-10.601z" fill="#fff"/><path d="M338.496 255.63H237.197l-30.964-86.382h101.3l30.963 86.382z" fill="#263238"/><path d="M331.306 250.92h-90.305l-27.578-76.962h90.305l27.578 76.962z" fill="#B9CEC9"/><path d="M314.132 203.019l-14.931-10.995-11.795 30.622-30.582-8.633-15.823 36.907h90.305l-17.174-47.901zm-62.228-12.569c-2.099-5.852-8.541-10.601-14.432-10.601s-8.895 4.749-6.796 10.601c2.099 5.851 8.541 10.601 14.432 10.601s8.909-4.75 6.796-10.601z" fill="#fff"/><path d="M338.955 155.695l2.427 5.904h-.695a11.223 11.223 0 00-1.378-2.23 6.445 6.445 0 00-2.112-1.588 6.563 6.563 0 00-2.703-.512h-3.555l7.045 19.247a7.309 7.309 0 001.561 2.9c.702.539 1.57.817 2.454.787h.879l.249.682h-10.68l-.249-.682h.892c1.063 0 1.693-.328 1.903-.971a5.698 5.698 0 00-.578-2.716l-7.045-19.247h-3.018a7.509 7.509 0 00-2.414.263 2.03 2.03 0 00-1.154 1.312 4.708 4.708 0 00.17 2.702h-.708l-1.863-5.904 20.572.053z" fill="#000"/><path d="M354.292 167.569h7.701m-.248 20.414h-38.783l-14.366-39.281h38.782l14.367 39.281z" stroke="#263238" stroke-width=".5" stroke-miterlimit="10"/><path d="M317.438 169.012h-2.912l-1.063-2.9h2.913l1.062 2.9zm38.835 0h-2.912l-1.063-2.9h2.913l1.062 2.9zm-45.657-18.644h-2.9l-1.063-2.899h2.9l1.063 2.899zm38.835 0h-2.899l-1.063-2.899h2.9l1.062 2.899zm-19.405 0h-2.899l-1.063-2.899h2.9l1.062 2.899zm-5.221 38.835h-2.913l-1.062-2.899h2.912l1.063 2.899zm38.835 0h-2.913l-1.062-2.899h2.912l1.063 2.899z" fill="#fff" stroke="#263238" stroke-width=".5" stroke-miterlimit="10"/><path d="M342.576 188.679l2.821 7.714" stroke="#263238" stroke-width=".5" stroke-miterlimit="10"/><path d="M344.256 189.203h-2.913l-1.063-2.899h2.913l1.063 2.899z" fill="#fff" stroke="#263238" stroke-width=".5" stroke-miterlimit="10"/><path d="M347.418 197.85h-2.913l-1.063-2.913h2.913l1.063 2.913z" fill="#263238"/><path d="M320.64 180.623h32.577" stroke="#263238" stroke-width=".5" stroke-miterlimit="10"/><path d="M363.529 167.569a2.423 2.423 0 00-2.087-1.535 1.033 1.033 0 00-1.099 1.003c-.005.185.039.369.129.532a2.419 2.419 0 002.086 1.521 1.021 1.021 0 00.971-1.521z" fill="#263238"/><path opacity=".2" d="M183.72 375.875l35.148 30.123-33.495 163.882h2.27l37.26-160.877 34.139 28.628-48.203 132.052 3.017-.498 50.709-128.537 141.093 128.537h85.857L391.094 372.359l-207.374 3.516z" fill="#000"/><path d="M187.642 569.88h-2.269l-3.398-196.813h9.066l-3.399 196.813zm195.304 0h-2.27l-3.398-196.813h9.066l-3.398 196.813z" fill="#263238" stroke="#263238" stroke-linecap="round" stroke-linejoin="round"/><path d="M396.775 370.023H178.511v5.104h218.264v-5.104zM129.232 475.692l-3.936 8.37s4.854 5.248 7.058 5.248c2.205 0 3.084-2.204 5.734-3.096 2.65-.892 7.045-9.25 7.045-9.25s-2.624-4.408-5.248-4.854c-2.624-.446-6.56-1.758-8.816-2.204-2.257-.446-1.837 5.786-1.837 5.786z" fill="#fff" stroke="#263238" stroke-linecap="round" stroke-linejoin="round"/><path d="M129.232 475.692l2.624 4.408v3.936s2.624 1.312 3.53 0c.905-1.312 4.854-5.733 4.854-5.733l-1.771-3.936m-6.6 9.696l-4.842-.88" stroke="#263238" stroke-linecap="round" stroke-linejoin="round"/><path d="M205.197 554.976l-8.908 2.624s-.775 7.137.682 8.79c1.456 1.654 3.7.866 6.101 2.27s11.611-.826 11.611-.826 1.574-4.894.157-7.164c-1.417-2.27-3.044-6.14-4.172-8.082-1.128-1.942-5.471 2.388-5.471 2.388z" fill="#fff" stroke="#263238" stroke-linecap="round" stroke-linejoin="round"/><path d="M205.197 554.976l-1.562 4.907-2.978 2.624s.748 2.86 2.322 2.624c1.575-.236 7.518-.144 7.518-.144l1.811-3.936m-11.65 1.469l-2.546-4.225" stroke="#263238" stroke-linecap="round" stroke-linejoin="round"/><path d="M115.115 473.921s-7.492 4.854-6.167 7.504c1.325 2.651 2.204 4.409 3.529 5.248 1.326.84 5.248 2.205 6.56 1.312 1.312-.892 4.409-3.083 4.842-6.56.433-3.476 1.771-3.936.446-5.733-1.325-1.798-9.21-1.771-9.21-1.771z" fill="#fff" stroke="#263238" stroke-linecap="round" stroke-linejoin="round"/><path d="M108.896 481.425l5.248 3.53 4.408-.446 1.758-4.855a2.624 2.624 0 00-2.624-2.624 5.843 5.843 0 00-3.936 1.312l.892 2.624" stroke="#263238" stroke-linecap="round" stroke-linejoin="round"/><path d="M147.744 467.754s-6.56 6.167-5.733 10.575c.826 4.408 9.262 7.938 9.262 7.938l10.142-5.721-3.096-7.872-6.56-3.529-4.015-1.391z" fill="#fff" stroke="#263238" stroke-linecap="round" stroke-linejoin="round"/><path d="M142.011 478.329l7.058 2.65 7.938-2.65-3.096-7.045" stroke="#263238" stroke-linecap="round" stroke-linejoin="round"/><path d="M147.744 467.754l-.446 9.263 5.3 1.758" stroke="#263238" stroke-linecap="round" stroke-linejoin="round"/><path d="M167.582 550.633s-6.56 6.18-5.734 10.588c.827 4.408 9.263 7.938 9.263 7.938l10.142-5.734-3.083-7.937-6.626-3.53-3.962-1.325z" fill="#fff" stroke="#263238" stroke-linecap="round" stroke-linejoin="round"/><path d="M161.849 561.221l7.058 2.637 7.938-2.637-3.083-7.058" stroke="#263238" stroke-linecap="round" stroke-linejoin="round"/><path d="M167.582 550.633l-.446 9.263 5.3 1.771" stroke="#263238" stroke-linecap="round" stroke-linejoin="round"/><path d="M123.499 461.142s-6.56 6.166-5.734 10.575c.827 4.408 9.263 7.872 9.263 7.872l10.129-5.734-3.083-7.872-6.56-3.529-4.015-1.312z" fill="#fff" stroke="#263238" stroke-linecap="round" stroke-linejoin="round"/><path d="M117.765 471.717l7.058 2.65 7.925-2.65-3.084-7.046" stroke="#263238" stroke-linecap="round" stroke-linejoin="round"/><path d="M123.499 461.142l-.446 9.263 5.287 1.758" stroke="#263238" stroke-linecap="round" stroke-linejoin="round"/><path d="M160.484 569.88h-52.323l-7.846-86.736h68.015l-7.846 86.736z" fill="#263238" stroke="#263238" stroke-linecap="round" stroke-linejoin="round"/><path d="M125.703 555.488s-7.505 4.854-6.18 7.491c1.325 2.637 2.204 4.409 3.529 5.248 1.325.84 5.248 2.204 6.56 1.312 1.312-.892 4.409-3.083 4.855-6.56.446-3.477 1.758-3.936.433-5.733-1.325-1.798-9.197-1.758-9.197-1.758z" fill="#fff" stroke="#263238" stroke-linecap="round" stroke-linejoin="round"/><path d="M119.523 562.979l5.248 3.529 4.409-.432 1.758-4.855a2.624 2.624 0 00-2.624-2.624 5.787 5.787 0 00-3.936 1.312l.879 2.624" stroke="#263238" stroke-linecap="round" stroke-linejoin="round"/><path d="M264.42 310.052a2.94 2.94 0 11-2.9-2.48 2.716 2.716 0 012.9 2.48zm2.795 7.557a2.943 2.943 0 01-1.468 3.024 2.941 2.941 0 01-4.279-1.825 2.936 2.936 0 012.847-3.679 2.718 2.718 0 012.9 2.48zm2.781 7.557a2.943 2.943 0 01-1.468 3.024 2.934 2.934 0 01-3.345-.331 2.936 2.936 0 01-.846-3.253 2.935 2.935 0 012.759-1.92 2.715 2.715 0 012.9 2.48zm2.795 7.557a2.936 2.936 0 01-3.188 3.384 2.94 2.94 0 01.275-5.863 2.729 2.729 0 012.913 2.479z" fill="gray" stroke="#263238" stroke-linecap="round" stroke-linejoin="round"/><path d="M233.483 369.538h-19.864l-2.991-32.944h25.846l-2.991 32.944z" fill="#263238" stroke="#263238" stroke-linecap="round" stroke-linejoin="round"/><path d="M235.49 347.431l-22.829 11.624.958 10.483h10.627l10.312-11.847.932-10.26zm3.28-14.773h-30.438v7.163h30.438v-7.163z" fill="#B9CEC9" stroke="#263238" stroke-linecap="round" stroke-linejoin="round"/><path d="M292.287 369.984h-35.752a4.538 4.538 0 01-1.81-8.793 4.539 4.539 0 011.81-.273h35.752a4.541 4.541 0 011.811 8.794 4.54 4.54 0 01-1.811.272z" fill="#263238" stroke="#263238" stroke-linecap="round" stroke-linejoin="round"/><path d="M387.38 370.023H277.317l-26.254-71.451h110.064l26.253 71.451z" fill="#263238" stroke="#263238" stroke-linecap="round" stroke-linejoin="round"/><path d="M380.401 362.597h-93.992L264 301.589h93.979l22.422 61.008z" fill="gray" stroke="#263238" stroke-linecap="round" stroke-linejoin="round"/><path d="M398.848 395.542a74.667 74.667 0 01-8.633 10.496 136.786 136.786 0 00-25.703 31.304c-9.866 16.728-16.741 33.823-23.274 48.623-6.534 14.799-18.368 42.115-24.285 50.433-5.918 8.318-9.919 12.766-9.919 12.766s-9.775.223-21.346-.801c-11.572-1.023-16.361-3.109-16.505-.091-.145 3.017 7.872 11.296 13.566 12.739 5.694 1.443 13.12 3.648 14.852 5.366 1.731 1.719 3.936 3.687 6.848 2.427 2.913-1.259 11.585-13.395 21.281-21.753 9.695-8.357 21.267-16.636 31.737-36.119 10.47-19.483 11.021-30.622 18.368-37.943 7.347-7.321 15.088-18.801 24.456-24.849 9.367-6.049 37.326-17.253 46.261-28.864 8.935-11.611 4.277-25.82-4.317-30.898-8.593-5.077-36.644-6.914-43.387 7.164z" fill="#263238" stroke="#263238" stroke-linecap="round" stroke-linejoin="round"/><path d="M323.879 524.118a102.393 102.393 0 01-6.914 12.293c-5.983 8.305-9.919 12.766-9.919 12.766s-9.774.223-21.346-.8c-11.572-1.024-16.36-3.11-16.505-.092-.144 3.017 7.872 11.296 13.566 12.739 5.694 1.444 13.12 3.648 14.852 5.366 1.732 1.719 3.936 3.687 6.849 2.428 2.912-1.26 11.585-13.396 21.28-21.753 4.514-3.936 9.434-7.78 14.432-12.766a31.496 31.496 0 01-16.295-10.181z" fill="#fff" stroke="#263238" stroke-linecap="round" stroke-linejoin="round"/><path d="M304.462 568.818a18.26 18.26 0 004.133-3.805c-7.872-1.561-11.887-5.511-15.482-6.56a38.306 38.306 0 01-9.328-4.172l3.936-5.786-1.994-.171c-11.572-1.023-16.361-3.109-16.505-.092-.145 3.018 7.872 11.297 13.566 12.74 5.694 1.443 13.12 3.647 14.852 5.366 1.731 1.719 3.975 3.739 6.822 2.48z" fill="#B9CEC9" stroke="#263238" stroke-linecap="round" stroke-linejoin="round"/><path d="M318.067 432.488a90.783 90.783 0 006.731 19.037c4.644 9.289 14.865 19.037 22.304 24.613 7.439 5.576 31.344 26.935 43.191 43.886 1.483 2.126-4.185 9.289-11.152 15.561-6.967 6.271-9.984 8.593-6.271 9.748 3.713 1.154 12.542.695 21.372-6.731s14.629-12.306 17.41-18.368c1.391-3.017-6.271-6.743-10.916-10.679-4.644-3.936-21.831-29.953-27.171-41.984-5.34-12.031-18.801-29.258-28.785-35.293" fill="#263238"/><path d="M318.067 432.488a90.783 90.783 0 006.731 19.037c4.644 9.289 14.865 19.037 22.304 24.613 7.439 5.576 31.344 26.935 43.191 43.886 1.483 2.126-4.185 9.289-11.152 15.561-6.967 6.271-9.984 8.593-6.271 9.748 3.713 1.154 12.542.695 21.372-6.731s14.629-12.306 17.41-18.368c1.391-3.017-6.271-6.743-10.916-10.679-4.644-3.936-21.831-29.953-27.171-41.984-5.34-12.031-18.801-29.258-28.785-35.293" stroke="#263238" stroke-linecap="round" stroke-linejoin="round"/><path d="M411.64 520.261c1.39-3.018-6.272-6.744-10.916-10.68-3.936-3.32-16.676-22.239-23.813-35.345l-15.744 13.959c9.827 9.092 21.832 21.307 29.179 31.829 1.482 2.126-4.185 9.289-11.152 15.561-6.967 6.271-9.984 8.593-6.271 9.748 3.712 1.154 12.542.695 21.372-6.731s14.563-12.306 17.345-18.341z" fill="#fff" stroke="#263238" stroke-linecap="round" stroke-linejoin="round"/><path d="M406.864 514.094a165.902 165.902 0 00-4.749 7.557c-4.409 7.426-16.479 16.951-18.106 15.324a16.006 16.006 0 01-2.44-3.673 81.487 81.487 0 01-2.441 2.283c-6.966 6.271-9.984 8.593-6.271 9.748 3.713 1.154 12.543.695 21.373-6.731 8.829-7.426 14.628-12.306 17.41-18.368.839-1.81-1.653-3.896-4.776-6.14z" fill="#B9CEC9" stroke="#263238" stroke-linecap="round" stroke-linejoin="round"/><path d="M469.919 535.349h-78.943v3.713h78.943v-3.713z" fill="#fff" stroke="#263238" stroke-linecap="round" stroke-linejoin="round"/><path d="M398.165 435.741l-13.75 132.066a1.07 1.07 0 00.272.821 1.056 1.056 0 00.791.347 1.064 1.064 0 001.05-.905l20.532-132.329h-8.895zm63.159 0l13.816 132.066a1.047 1.047 0 01-1.05 1.168 1.049 1.049 0 01-1.049-.905l-20.533-132.329h8.816zm-25.071 0l.642 132.171a1.073 1.073 0 01-1.062 1.063 1.053 1.053 0 01-1.05-1.01l-7.387-132.224h8.857z" fill="#fff" stroke="#263238" stroke-linecap="round" stroke-linejoin="round"/><path d="M465.72 415.773h-73.105a6.52 6.52 0 00-6.52 6.52v8.319a6.52 6.52 0 006.52 6.52h73.105a6.52 6.52 0 006.521-6.52v-8.319a6.52 6.52 0 00-6.521-6.52z" fill="#B9CEC9"/><path opacity=".2" d="M465.759 415.773h-71.478l-2.125 4.461s65.967 1.154 65.967 4.959c0 3.805 1.142 8.777-11.808 8.777-10.496 0-45.723.499-58.764.683a6.547 6.547 0 001.889 1.613l3.831.866h72.488a6.563 6.563 0 006.56-6.56v-8.318a6.563 6.563 0 00-6.56-6.481z" fill="#000"/><path d="M465.72 415.773h-73.105a6.52 6.52 0 00-6.52 6.52v8.319a6.52 6.52 0 006.52 6.52h73.105a6.52 6.52 0 006.521-6.52v-8.319a6.52 6.52 0 00-6.521-6.52z" stroke="#263238" stroke-linecap="round" stroke-linejoin="round"/><path d="M319.917 440.832c-1.627-5.34-8.357-16.02 23.918-38.31 17.056-11.808 54.107-20.901 54.107-20.901l3.477-3.936s9.984 10.496 29.494 9.762c19.509-.735 31.579-9.289 33.902-8.594 2.322.695 2.545 6.731 1.626 18.106-.918 11.375-2.099 17.187-11.151 19.968-9.053 2.782-29.022 3.713-43.415 3.49-7.139-.02-14.273-.41-21.372-1.167 0 0-30.871 19.509-50.145 20.9" fill="#263238"/><path d="M319.917 440.832c-1.627-5.34-8.357-16.02 23.918-38.31 17.056-11.808 54.107-20.901 54.107-20.901l3.477-3.936s9.984 10.496 29.494 9.762c19.509-.735 31.579-9.289 33.902-8.594 2.322.695 2.545 6.731 1.627 18.106-.919 11.375-2.1 17.187-11.152 19.968-9.053 2.782-29.022 3.713-43.415 3.49-7.139-.02-14.273-.41-21.372-1.167 0 0-30.871 19.509-50.145 20.9" stroke="#263238" stroke-linecap="round" stroke-linejoin="round"/><path d="M391.435 312.912c-1.404.433-43.887 8.817-47.6 8.121-3.712-.695-13.461-9.053-16.951-8.83-3.49.224-10.496 1.404-11.138 3.254-.643 1.85 1.626 8.135 1.626 8.135s-2.322 3.476-1.167 5.103c1.154 1.627 7.872-2.322 7.872-2.322s7.662 5.576 11.139 4.408a292.771 292.771 0 007.202-2.545s54.567 3.241 55.262 3.477c.695.236 7.426 1.627 8.121-8.121.696-9.749-6.232-13.238-14.366-10.68z" fill="#fff" stroke="#263238" stroke-linecap="round" stroke-linejoin="round"/><path d="M317.372 323.592l9.512-7.899" stroke="#263238" stroke-linecap="round" stroke-linejoin="round"/><path d="M320.85 320.102l5.103-16.02 2.099.459-2.558 11.612-4.644 3.949z" fill="#263238"/><path d="M358.176 329.863s-56.416 15.547-65.469 14.432c-9.053-1.115-11.808-5.117-13.933-5.117-2.126 0-7.872 2.795-10.496 2.559-2.624-.237-5.563-.932-5.563.695s2.322 4.185 3.713 4.185c1.39 0 6.966-.236 6.966-.236s-10.915 3.254-11.388 5.34a3.703 3.703 0 00.578 2.849 3.717 3.717 0 002.453 1.559 6.571 6.571 0 013.018 1.404 16.13 16.13 0 002.322 5.104c1.391 1.627 5.563 2.322 10.207 1.391 4.645-.932 12.779-5.104 14.629-6.272 1.85-1.167 58.279-6.271 62.464-7.19 4.186-.918 9.289-.931 10.916-3.726 1.627-2.794-10.417-16.977-10.417-16.977z" fill="#fff"/><path d="M289.951 355.552c-9.696 0-7.544-9.696-10.771-8.069-2.821 1.404-13.829 2.808-16.951 6.363a3.937 3.937 0 002.847 2.31c1.109.2 2.149.684 3.017 1.403a16.175 16.175 0 002.322 5.104c1.391 1.627 5.563 2.322 10.208 1.391 4.644-.932 12.779-5.104 14.629-6.272 1.849-1.167 58.279-6.271 62.464-7.189 3.372-.761 7.36-.906 9.617-2.401l1.312-1.312-5.996-5.852s-62.963 14.524-72.698 14.524z" fill="#B9CEC9"/><path opacity=".5" d="M289.951 355.552c-9.696 0-7.544-9.696-10.771-8.069-2.821 1.404-13.829 2.808-16.951 6.363a3.937 3.937 0 002.847 2.31c1.109.2 2.149.684 3.017 1.403a16.175 16.175 0 002.322 5.104c1.391 1.627 5.563 2.322 10.208 1.391 4.644-.932 12.779-5.104 14.629-6.272 1.849-1.167 58.279-6.271 62.464-7.189 3.372-.761 7.36-.906 9.617-2.401l1.312-1.312-5.996-5.852s-62.963 14.524-72.698 14.524z" fill="#fff"/><path d="M358.176 329.863s-56.416 15.547-65.469 14.432c-9.053-1.115-11.808-5.117-13.933-5.117-2.126 0-7.872 2.795-10.496 2.559-2.624-.237-5.563-.932-5.563.695s2.322 4.185 3.713 4.185c1.39 0 6.966-.236 6.966-.236s-10.915 3.254-11.388 5.34a3.703 3.703 0 00.578 2.849 3.717 3.717 0 002.453 1.559 6.571 6.571 0 013.018 1.404 16.13 16.13 0 002.322 5.104c1.391 1.627 5.563 2.322 10.207 1.391 4.645-.932 12.779-5.104 14.629-6.272 1.85-1.167 58.279-6.271 62.464-7.19 4.186-.918 9.289-.931 10.916-3.726 1.627-2.794-10.417-16.977-10.417-16.977z" stroke="#263238" stroke-linecap="round" stroke-linejoin="round"/><path d="M405.827 272.975s-5.104 13.92-11.598 23.209c-6.494 9.289-9.289 19.05-5.117 29.494a21.37 21.37 0 0013.238 12.818s-3.254 30.648-2.322 38.783c.931 8.134 13.461 17.646 32.275 18.368 18.814.721 35.057-6.035 35.057-12.543 0-6.507-13.225-41.092-13.225-48.295 0-7.203 1.154-29.716-5.117-49.856-6.271-20.139-28.326-26.843-43.191-11.978z" fill="#B9CEC9"/><path opacity=".2" d="M449.018 284.809c-3.371-10.876-11.335-17.778-20.283-19.509-4.317.957-16.111 3.713-19.05 4.408a30.296 30.296 0 00-3.858 3.267s-5.103 13.92-11.598 23.209c-4.369 6.232-7.045 12.674-7.084 19.378 17.134 4.054 43.296 10.654 40.672 11.388-3.766 1.076-19.917-7.544-15.075-2.151 4.841 5.392 30.7 30.176 23.156 27.998-7.544-2.178-24.232-19.929-19.916-11.31 4.317 8.62 16.151 22.619 12.386 22.619-3.766 0-23.695-19.929-16.702-8.082 6.993 11.848 38.769 30.701 28.536 33.391-5.904 1.548-18.434 1.141-25.702 2.361a49.848 49.848 0 0017.777 3.792c18.801.695 35.057-6.035 35.057-12.543 0-6.507-13.225-41.092-13.225-48.294 0-7.203 1.155-29.717-5.091-49.922z" fill="#000"/><path d="M405.827 272.975s-5.104 13.92-11.598 23.209c-6.494 9.289-9.289 19.05-5.117 29.494a21.37 21.37 0 0013.238 12.818s-3.254 30.648-2.322 38.783c.931 8.134 13.461 17.646 32.275 18.368 18.814.721 35.057-6.035 35.057-12.543 0-6.507-13.225-41.092-13.225-48.295 0-7.203 1.154-29.716-5.117-49.856-6.271-20.139-28.326-26.843-43.191-11.978zm2.861 56.337s17.055 27.552 41.983 35.424m-43.951-30.832s6.56 21.648 23.616 32.144m-20.101-49.489s15.416-6.717 21.74-11.06m-28.063 12.648s5.537 1.181 19.759 0" stroke="#263238" stroke-linecap="round" stroke-linejoin="round"/><path d="M404.437 276.452a50.045 50.045 0 00-9.748 8.121c-5.34 5.576-31.121 44.608-31.121 44.608s7.662 16.032 9.985 16.492c2.322.459 42.732-34.112 46.444-38.311 3.713-4.198 6.036-11.808 4.881-15.101" fill="#B9CEC9"/><path opacity=".2" d="M419.997 307.336c3.713-4.185 6.036-11.808 4.881-15.101l-9.184-7.085-2.939 3.031s-.197 11.887-10.771 18.302c-10.575 6.416-15.075 6.468-16.689 14.537-1.614 8.069 3.766 10.234-2.69 11.31-6.455 1.076-10.771 1.613-10.771 5.93.042 2.137.204 4.27.485 6.389.307.439.73.784 1.221.997 2.335.46 42.744-34.138 46.457-38.31z" fill="#000"/><path d="M404.437 276.452a50.045 50.045 0 00-9.748 8.121c-5.34 5.576-31.121 44.608-31.121 44.608s7.662 16.032 9.985 16.492c2.322.459 42.732-34.112 46.444-38.311 3.713-4.198 6.036-11.808 4.881-15.101" stroke="#263238" stroke-linecap="round" stroke-linejoin="round"/><path d="M354.751 331.477s7.203 17.187 8.817 19.05c1.614 1.863 10.22.695 13.002-1.404 2.781-2.099 2.322-6.258 2.322-6.258s-10.68-18.814-11.808-19.68c-1.128-.866-1.627 1.168-6.56 2.795-4.933 1.626-6.704 2.256-5.773 5.497z" fill="#fff" stroke="#263238" stroke-linecap="round" stroke-linejoin="round"/><path d="M366.362 229.088s-.472 6.731.695 8.817c1.168 2.086 4.409 4.185 4.409 6.967 0 2.781-2.322 6.56-1.627 8.593.695 2.034 4.421 2.323 4.421 2.323s6.954 8.593 9.053 11.611c2.099 3.017 3.018 1.85 6.271.931 3.254-.918 10.208-6.966 14.157-11.611 3.949-4.644-2.624-18.814-11.139-28.326-8.515-9.512-21.372-9.289-24.154-6.56-2.781 2.729-2.086 7.255-2.086 7.255z" fill="#fff"/><path d="M384.769 222.581c-1.076 5.248-2.151 14.261 1.076 20.362 4.854 9.184 8.62 13.999 5.93 21.543a49.7 49.7 0 01-1.469 3.569c3.464-1.483 9.761-7.019 13.435-11.336 3.936-4.644-2.624-18.814-11.139-28.326a24.593 24.593 0 00-7.833-5.812z" fill="#B9CEC9"/><path opacity=".5" d="M384.769 222.581c-1.076 5.248-2.151 14.261 1.076 20.362 4.854 9.184 8.62 13.999 5.93 21.543a49.7 49.7 0 01-1.469 3.569c3.464-1.483 9.761-7.019 13.435-11.336 3.936-4.644-2.624-18.814-11.139-28.326a24.593 24.593 0 00-7.833-5.812z" fill="#fff"/><path d="M371.466 239.073s0-3.49 4.185-1.168m-1.207 4.395l.551 3.215s2.546.879 4.422-2.441" stroke="#263238" stroke-linecap="round" stroke-linejoin="round"/><path d="M366.362 229.088s-.472 6.731.695 8.817c1.168 2.086 4.409 4.185 4.409 6.967 0 2.781-2.322 6.56-1.627 8.593.695 2.034 4.421 2.323 4.421 2.323s6.954 8.593 9.053 11.611c2.099 3.017 3.018 1.85 6.271.931 3.254-.918 10.208-6.966 14.157-11.611 3.949-4.644-2.624-18.814-11.139-28.326-8.515-9.512-21.372-9.289-24.154-6.56-2.781 2.729-2.086 7.255-2.086 7.255z" stroke="#263238" stroke-linecap="round" stroke-linejoin="round"/><path d="M359.159 218.868v.931l-.42 11.375 12.53 1.627 2.794-4.88v5.34a25.685 25.685 0 0111.375 1.626c6.036 2.323 13.698 18.814 13.239 25.545-.46 6.731-6.272 8.121-5.576 18.368.695 10.247 16.242 20.402 28.05 13.907 11.808-6.494 13.711-14.865 18.578-13.238 4.868 1.627 12.307 11.611 16.951-2.558 4.645-14.17 2.558-23.21-8.357-34.821-10.916-11.611-19.497-10.679-20.901-19.968-1.403-9.289-4.408-21.832-14.432-28.864-10.023-7.033-24.376-7.426-36.736-2.086-12.359 5.339-17.095 21.661-17.095 27.696z" fill="#C2B997"/><path d="M366.14 224.195a.873.873 0 01-.25 0c-1.312-.302-1.521-2.624-1.653-8.266 0-1.47-.065-2.978-.157-4.185v-.302c-1.115 1.312-3.477 6.888-5.248 11.808l-1.233-.446c4.749-13.225 6.297-13.028 6.796-12.95.905.118.997 1.312 1.036 1.758.092 1.234.131 2.769.158 4.238 0 2.336.144 6.167.629 6.967a6.917 6.917 0 001.47-2.27c1.312-2.729 2.624-3.936 3.831-3.936 1.548 0 2.362 2.126 2.939 3.634.139.373.302.737.485 1.089.578.158 2.624-1.928 3.713-3.057l.958-.97c.22-.287.502-.521.824-.685a2.426 2.426 0 011.039-.26c.735.118 1.089.8 1.469 1.509a5.98 5.98 0 001.483 2.007c.42.328.63.276.722.262.944-.236 2.086-2.781 3.411-5.72.302-.695.63-1.417.984-2.178.354-.761 1.023-2.033 1.994-1.942 1.22.092 1.784 2.008 2.624 4.907a21.83 21.83 0 002.624 6.56c.302.368.709.788 1.089.748 1.023-.17 2.152-3.201 2.834-5.012.302-.904.679-1.782 1.128-2.624a1.235 1.235 0 011.115-.708c.971 0 1.64 1.312 2.546 3.096.682 1.312 1.614 3.162 2.388 3.464.157.065.209 0 .249 0 .512-.263.944-1.955 1.312-3.306a15.246 15.246 0 011.6-4.343 2.625 2.625 0 011.785-1.22c1.719-.276 3.634 1.207 4.907 2.204-.066-.669-.21-1.588-.328-2.388-.656-4.369-.84-6.481.249-7.085.512-.275 1.115-.118 1.797.486a46.07 46.07 0 013.359 3.529c2.401 2.703 6.048 6.77 7.518 6.376.407-.105.63-.734.735-1.233l1.312.262c-.276 1.312-.84 2.021-1.68 2.244-2.112.551-4.985-2.454-8.843-6.77a44.093 44.093 0 00-3.332-3.503 1.61 1.61 0 00-.315-.236 22.887 22.887 0 00.433 5.655c.472 3.083.564 3.936 0 4.29a.799.799 0 01-.879 0 13.23 13.23 0 01-.827-.63c-1.036-.8-2.768-2.125-3.936-1.955a1.317 1.317 0 00-.905.643 14.438 14.438 0 00-1.417 3.936c-.512 1.942-.944 3.621-1.981 4.146a1.547 1.547 0 01-1.312 0c-1.233-.486-2.165-2.322-3.07-4.08a13.244 13.244 0 00-1.312-2.323c-.407.789-.749 1.61-1.023 2.454-.971 2.624-2.073 5.563-3.871 5.838a2.48 2.48 0 01-2.309-1.233 22.307 22.307 0 01-2.847-6.967 13.47 13.47 0 00-1.496-3.936c-.262.37-.486.766-.669 1.181a94.054 94.054 0 00-.984 2.165c-1.64 3.66-2.729 6.074-4.303 6.455a2.12 2.12 0 01-1.85-.512 7.13 7.13 0 01-1.811-2.414 3.46 3.46 0 00-.524-.826s-.21 0-.722.564l-.945.971c-2.178 2.23-3.568 3.568-4.762 3.476a1.319 1.319 0 01-.984-.603 7.583 7.583 0 01-.617-1.312c-.367-.971-1.076-2.768-1.784-2.795-.21 0-1.089.197-2.624 3.202-1.128 2.138-1.929 3.057-2.742 3.057z" fill="#575757"/><path d="M392.288 276.911s3.254-12.11 6.56-8.266c3.306 3.844 5.602 5.025 5.904 1.771.302-3.253 0-7.977 3.254-3.542 3.254 4.434 11.217 8.856 11.808 2.06.59-6.796 1.482-15.954 5.327-11.218 3.844 4.736 7.084 8.266 7.386 5.602.302-2.663 2.952-4.723 4.133-1.771s2.073 5.917 2.952-.879c.879-6.796-3.254-14.183 1.181-12.411 4.434 1.771 6.56 7.675 6.56 4.434 0-3.24-5.327-7.098-.591-5.917 4.737 1.181 5.314 4.146 5.904 2.375.591-1.771-2.624-5.917 1.483-5.917" stroke="#575757" stroke-miterlimit="10"/><path d="M359.159 218.868v.931l-.42 11.375 12.53 1.627 2.794-4.88v5.34a25.685 25.685 0 0111.375 1.626c6.036 2.323 13.698 18.814 13.239 25.545-.46 6.731-6.272 8.121-5.576 18.368.695 10.247 16.242 20.402 28.05 13.907 11.808-6.494 13.711-14.865 18.578-13.238 4.868 1.627 12.307 11.611 16.951-2.558 4.645-14.17 2.558-23.21-8.357-34.821-10.916-11.611-19.497-10.679-20.901-19.968-1.403-9.289-4.408-21.832-14.432-28.864-10.023-7.033-24.376-7.426-36.736-2.086-12.359 5.339-17.095 21.661-17.095 27.696z" stroke="#263238" stroke-linecap="round" stroke-linejoin="round"/><path d="M88.206 569.88H568.32" stroke="#263238" stroke-miterlimit="10"/></svg>