<svg width="545" height="330" viewBox="0 0 545 330" fill="none" xmlns="http://www.w3.org/2000/svg">
<g clip-path="url(#clip0)">
<path d="M538.687 18.7907C534.44 14.0189 529.284 11.5994 523.365 11.5994C518.044 11.5994 513.534 13.4939 509.958 17.23C506.405 20.9423 504.604 25.5532 504.604 30.9351C504.604 36.021 506.424 40.553 510.013 44.4055C513.178 47.8042 517.167 49.966 521.888 50.8471C521.062 57.1067 515.529 62.7726 505.407 67.7095L503.585 68.5986L511.057 82.3938L512.744 81.5388C534.148 70.6896 545 55.3567 545 35.9661C545 29.2763 542.876 23.4979 538.687 18.7907ZM512.665 77.1998L508.921 70.289C520.179 64.3895 525.884 57.2979 525.884 49.1896V47.4536L524.159 47.2582C519.513 46.7324 515.816 44.9326 512.857 41.7559C509.919 38.6023 508.491 35.063 508.491 30.9351C508.491 26.5274 509.89 22.9238 512.767 19.9176C515.62 16.9359 519.087 15.4864 523.365 15.4864C528.194 15.4864 532.256 17.4127 535.783 21.375C539.37 25.4045 541.113 30.1772 541.113 35.9659C541.113 44.8531 538.611 52.8766 533.675 59.8133C528.966 66.4318 521.903 72.2751 512.665 77.1998Z" fill="#B9CEC9"/>
<path d="M486 18.7822C481.705 14.0163 476.528 11.5996 470.613 11.5996C465.288 11.5996 460.798 13.4976 457.269 17.2407C453.771 20.9515 451.997 25.559 451.997 30.9353C451.997 36.0211 453.816 40.5531 457.405 44.4058C460.564 47.7971 464.505 49.9569 469.138 50.842C468.322 57.1064 462.835 62.7751 452.795 67.7128L451 68.5952L458.286 82.4003L459.99 81.5407C481.491 70.692 492.392 55.3584 492.392 35.9662C492.392 29.2712 490.241 23.4897 486 18.7822ZM459.933 77.1934L456.292 70.2932C467.469 64.3916 473.132 57.2983 473.132 49.1897V47.4575L471.411 47.2588C466.86 46.7338 463.209 44.9338 460.249 41.756C457.311 38.6026 455.884 35.0631 455.884 30.9353C455.884 26.5219 457.262 22.9145 460.097 19.9074C462.902 16.9328 466.342 15.4867 470.613 15.4867C475.447 15.4867 479.536 17.4157 483.112 21.3842C486.741 25.4116 488.505 30.1815 488.505 35.9662C488.505 44.8519 485.992 52.8742 481.034 59.8102C476.305 66.4269 469.211 72.2693 459.933 77.1934Z" fill="#B9CEC9"/>
</g>
<g clip-path="url(#clip1)">
<path d="M389.884 202.388C390.198 202.294 390.519 202.225 390.844 202.182L403.815 175.832L399.855 169.897L408.033 162.751L418.314 175.329L397.376 205.796C397.891 206.948 398.043 208.23 397.812 209.47C397.58 210.711 396.977 211.852 396.081 212.741C395.186 213.631 394.04 214.227 392.798 214.45C391.555 214.672 390.274 214.512 389.125 213.989C387.976 213.466 387.014 212.606 386.366 211.523C385.717 210.44 385.414 209.186 385.497 207.926C385.579 206.667 386.043 205.462 386.827 204.473C387.611 203.484 388.677 202.756 389.884 202.388V202.388Z" fill="#F4B89B"/>
<path d="M412.026 166.392C411.85 166.578 411.647 166.738 411.424 166.866L398.153 174.558C397.834 174.743 397.481 174.859 397.114 174.901C396.748 174.942 396.377 174.906 396.025 174.797C395.673 174.687 395.347 174.506 395.069 174.264C394.791 174.023 394.565 173.726 394.408 173.392L387.953 159.759C387.678 159.185 387.619 158.532 387.787 157.918C387.954 157.304 388.336 156.771 388.864 156.416L397.09 150.821C397.604 150.472 398.223 150.313 398.842 150.372C399.46 150.431 400.038 150.703 400.477 151.143L411.976 162.68C412.465 163.17 412.744 163.833 412.753 164.525C412.762 165.218 412.502 165.888 412.026 166.392H412.026Z" fill="#CCCCCC"/>
<path d="M430.66 317.38L423.653 319.286L412.965 293.173L423.306 290.359L430.66 317.38Z" fill="#F4B89B"/>
<path d="M418.103 318.646L431.616 314.97L433.931 323.477L411.91 329.467C411.606 328.35 411.525 327.184 411.671 326.036C411.818 324.887 412.19 323.779 412.765 322.774C413.34 321.769 414.107 320.888 415.023 320.179C415.939 319.471 416.986 318.95 418.103 318.646Z" fill="#2F2E41"/>
<path d="M370.759 322.726L363.498 322.725L360.043 294.722L370.76 294.723L370.759 322.726Z" fill="#F4B89B"/>
<path d="M358.311 320.651H372.315V329.467H349.493C349.493 328.309 349.721 327.163 350.164 326.093C350.607 325.023 351.257 324.052 352.076 323.233C352.895 322.414 353.867 321.765 354.936 321.322C356.006 320.879 357.153 320.651 358.311 320.651Z" fill="#2F2E41"/>
<path d="M378.41 141.525C386.444 141.525 392.958 135.013 392.958 126.981C392.958 118.948 386.444 112.436 378.41 112.436C370.375 112.436 363.862 118.948 363.862 126.981C363.862 135.013 370.375 141.525 378.41 141.525Z" fill="#F4B89B"/>
<path d="M370.315 302.76H360.392C359.714 302.758 359.061 302.499 358.567 302.035C358.072 301.571 357.773 300.936 357.729 300.259C354.772 253.263 356.502 219.552 363.172 194.168C363.202 194.057 363.238 193.948 363.28 193.842L363.812 192.513C364.008 192.018 364.349 191.593 364.791 191.294C365.232 190.995 365.754 190.836 366.287 190.838H386.693C387.077 190.838 387.457 190.921 387.807 191.081C388.156 191.242 388.466 191.476 388.716 191.768L391.488 195.002C391.542 195.065 391.593 195.129 391.641 195.197C404.14 212.622 415.34 246.689 428.312 292.479C428.504 293.144 428.428 293.858 428.101 294.468C427.773 295.079 427.221 295.537 426.56 295.746L415.896 299.157C415.284 299.35 414.622 299.317 414.033 299.063C413.443 298.81 412.964 298.353 412.683 297.777L385.009 240.39C384.815 239.989 384.497 239.661 384.103 239.454C383.708 239.248 383.258 239.174 382.818 239.243C382.378 239.313 381.972 239.522 381.66 239.84C381.349 240.158 381.148 240.568 381.087 241.009L372.956 300.456C372.867 301.093 372.551 301.677 372.066 302.1C371.58 302.523 370.959 302.758 370.315 302.76Z" fill="#2F2E41"/>
<path d="M390.369 195.238C390.341 195.238 390.314 195.238 390.286 195.237L365.499 194.455C364.861 194.437 364.252 194.191 363.781 193.761C363.31 193.331 363.01 192.746 362.935 192.113C359.793 166.684 368.41 159.872 372.261 158.124C372.583 157.978 372.862 157.753 373.07 157.468C373.279 157.183 373.411 156.85 373.453 156.499L373.786 153.834C373.843 153.363 374.025 152.916 374.313 152.54C380.35 144.72 388.595 142.216 392.972 141.419C393.327 141.356 393.691 141.365 394.042 141.446C394.394 141.527 394.725 141.679 395.016 141.892C395.307 142.105 395.551 142.376 395.735 142.686C395.918 142.997 396.036 143.341 396.082 143.699L396.581 147.526C396.632 147.891 396.778 148.237 397.004 148.528C409.596 164.986 395.568 189.286 392.628 193.99C392.387 194.372 392.054 194.687 391.659 194.905C391.264 195.123 390.821 195.238 390.369 195.238Z" fill="#CCCCCC"/>
<path d="M407.761 128.618C404.515 124.049 400.624 119.976 396.208 116.525C392.536 113.658 388.45 111.209 383.941 110.037C379.433 108.866 374.453 109.065 370.34 111.251C366.226 113.437 361.973 117.779 361.947 122.437C361.939 123.933 362.32 125.957 363.794 125.698L364.22 125.755C367.775 125.037 371.33 124.319 374.886 123.601C376.4 128.855 377.914 134.109 379.428 139.362C379.747 140.47 380.176 141.708 381.227 142.18C382.217 142.625 383.362 142.206 384.364 141.788C384.528 141.719 385.944 138.542 385.944 138.542C385.98 138.442 386.041 138.354 386.122 138.287C386.203 138.219 386.3 138.174 386.404 138.157C386.508 138.139 386.615 138.15 386.713 138.188C386.812 138.225 386.899 138.288 386.964 138.371L387.805 139.422C387.966 139.622 388.188 139.766 388.437 139.829C388.686 139.893 388.949 139.874 389.187 139.775C394.984 137.355 400.782 134.935 406.58 132.515C407.381 132.181 408.277 131.744 408.509 130.908C408.732 130.106 408.242 129.296 407.761 128.618Z" fill="#6A4B35"/>
<path d="M474.407 330H296.124C295.966 330 295.816 329.938 295.705 329.827C295.594 329.716 295.531 329.565 295.531 329.408C295.531 329.251 295.594 329.1 295.705 328.989C295.816 328.878 295.966 328.816 296.124 328.816H474.407C474.564 328.816 474.715 328.878 474.826 328.989C474.937 329.1 474.999 329.251 474.999 329.408C474.999 329.565 474.937 329.716 474.826 329.827C474.715 329.938 474.564 330 474.407 330Z" fill="#3F3D56"/>
<path d="M377.753 237.717C377.35 237.716 376.958 237.586 376.634 237.347L373.938 235.389C373.714 235.225 373.445 235.137 373.168 235.137C372.891 235.137 372.621 235.225 372.397 235.389L369.701 237.347C369.376 237.583 368.984 237.71 368.582 237.71C368.18 237.71 367.789 237.583 367.463 237.347C367.138 237.111 366.896 236.778 366.772 236.396C366.648 236.013 366.648 235.602 366.772 235.22L367.802 232.051C367.888 231.788 367.888 231.504 367.803 231.24C367.717 230.977 367.55 230.748 367.325 230.585L364.629 228.627C364.304 228.391 364.062 228.057 363.938 227.675C363.814 227.293 363.814 226.881 363.938 226.499C364.062 226.117 364.304 225.784 364.629 225.548C364.954 225.312 365.346 225.184 365.748 225.184H369.081C369.358 225.185 369.628 225.097 369.852 224.935C370.076 224.772 370.242 224.542 370.328 224.279L371.357 221.11C371.481 220.728 371.723 220.395 372.049 220.158C372.374 219.922 372.765 219.795 373.167 219.795C373.569 219.795 373.961 219.922 374.286 220.158C374.611 220.395 374.853 220.728 374.978 221.11L376.007 224.279C376.093 224.542 376.259 224.772 376.483 224.935C376.707 225.097 376.977 225.185 377.254 225.184H380.587C380.989 225.184 381.38 225.312 381.706 225.548C382.031 225.784 382.273 226.117 382.397 226.499C382.521 226.881 382.521 227.293 382.397 227.675C382.273 228.057 382.031 228.391 381.706 228.627L379.01 230.585C378.785 230.748 378.618 230.977 378.533 231.24C378.447 231.504 378.447 231.788 378.533 232.051L379.563 235.22C379.692 235.601 379.694 236.015 379.57 236.398C379.445 236.781 379.2 237.114 378.872 237.347C378.548 237.586 378.156 237.716 377.753 237.717Z" fill="#B9CEC9"/>
<path d="M388.057 231.382C388.818 230.848 389.454 230.154 389.918 229.348C390.382 228.542 390.663 227.644 390.743 226.717C390.822 225.79 390.698 224.858 390.377 223.984C390.057 223.111 389.55 222.319 388.89 221.663L393.494 166.074L379.786 167.96L379.525 221.969C378.496 223.15 377.937 224.667 377.952 226.233C377.968 227.799 378.557 229.304 379.609 230.465C380.661 231.625 382.102 232.359 383.659 232.528C385.216 232.697 386.78 232.29 388.057 231.382Z" fill="#F4B89B"/>
<path d="M394.39 174.079C394.133 174.079 393.878 174.042 393.632 173.969L378.915 169.642C378.562 169.538 378.233 169.361 377.951 169.124C377.669 168.887 377.439 168.593 377.276 168.263C377.113 167.932 377.021 167.571 377.005 167.203C376.988 166.835 377.049 166.467 377.182 166.123L382.628 152.057C382.855 151.463 383.288 150.97 383.849 150.669C384.409 150.367 385.059 150.277 385.68 150.415L395.402 152.529C396.009 152.661 396.551 153.001 396.934 153.489C397.317 153.978 397.517 154.585 397.5 155.206L397.048 171.486C397.029 172.179 396.74 172.837 396.244 173.321C395.748 173.805 395.083 174.077 394.39 174.079H394.39Z" fill="#CCCCCC"/>
<path d="M255.876 243.542H4.14613C3.04689 243.541 1.99302 243.104 1.21573 242.326C0.438452 241.549 0.00123378 240.496 0 239.397V164.19C0.00123378 163.091 0.438452 162.037 1.21573 161.26C1.99302 160.483 3.04689 160.046 4.14613 160.045H255.876C256.975 160.046 258.029 160.483 258.806 161.26C259.583 162.037 260.02 163.091 260.022 164.19V239.397C260.02 240.496 259.583 241.549 258.806 242.326C258.029 243.104 256.975 243.541 255.876 243.542ZM4.14613 161.229C3.36096 161.23 2.60822 161.542 2.05303 162.097C1.49783 162.652 1.18552 163.405 1.18461 164.19V239.397C1.18552 240.182 1.49783 240.934 2.05303 241.489C2.60822 242.044 3.36096 242.357 4.14613 242.358H255.876C256.661 242.357 257.413 242.044 257.969 241.489C258.524 240.934 258.836 240.182 258.837 239.397V164.19C258.836 163.405 258.524 162.652 257.969 162.097C257.413 161.542 256.661 161.23 255.876 161.229H4.14613Z" fill="#3F3D56"/>
<path d="M114.3 275.209C113.807 275.207 113.327 275.048 112.929 274.755L109.627 272.356C109.352 272.156 109.022 272.048 108.683 272.048C108.343 272.048 108.013 272.156 107.739 272.356L104.436 274.755C104.037 275.044 103.558 275.2 103.065 275.2C102.573 275.2 102.093 275.044 101.695 274.755C101.296 274.466 101 274.058 100.848 273.59C100.696 273.121 100.695 272.617 100.848 272.149L102.109 268.267C102.215 267.945 102.215 267.597 102.11 267.274C102.005 266.952 101.801 266.67 101.526 266.471L98.2229 264.072C97.8245 263.783 97.528 263.375 97.3758 262.907C97.2237 262.439 97.2237 261.934 97.3758 261.466C97.528 260.998 97.8245 260.59 98.2228 260.3C98.6212 260.011 99.1009 259.855 99.5933 259.855H103.676C104.015 259.856 104.346 259.749 104.621 259.549C104.895 259.35 105.099 259.069 105.203 258.746L106.465 254.864C106.617 254.396 106.914 253.988 107.312 253.698C107.71 253.409 108.19 253.253 108.683 253.253C109.175 253.253 109.655 253.409 110.053 253.698C110.452 253.988 110.748 254.396 110.9 254.864L112.162 258.746C112.266 259.069 112.47 259.35 112.745 259.549C113.019 259.749 113.35 259.856 113.689 259.855H117.772C118.264 259.855 118.744 260.011 119.142 260.301C119.541 260.59 119.837 260.998 119.989 261.466C120.141 261.934 120.141 262.439 119.989 262.907C119.837 263.375 119.541 263.783 119.142 264.072L115.839 266.471C115.564 266.67 115.36 266.952 115.255 267.274C115.15 267.597 115.15 267.945 115.256 268.267L116.518 272.149C116.675 272.617 116.678 273.123 116.525 273.592C116.373 274.062 116.073 274.469 115.67 274.755C115.273 275.048 114.793 275.207 114.3 275.209Z" fill="#B9CEC9"/>
<path d="M147.771 275.209C147.277 275.207 146.797 275.048 146.4 274.755L143.097 272.356C142.823 272.156 142.492 272.048 142.153 272.048C141.814 272.048 141.483 272.156 141.209 272.356L137.906 274.755C137.508 275.044 137.028 275.2 136.536 275.2C136.043 275.2 135.564 275.044 135.165 274.755C134.767 274.466 134.47 274.058 134.318 273.59C134.166 273.121 134.166 272.617 134.318 272.149L135.58 268.267C135.685 267.945 135.686 267.597 135.581 267.274C135.476 266.952 135.271 266.67 134.996 266.471L131.693 264.072C131.295 263.783 130.999 263.375 130.847 262.907C130.694 262.439 130.694 261.934 130.847 261.466C130.999 260.998 131.295 260.59 131.694 260.301C132.092 260.011 132.572 259.855 133.064 259.855H137.147C137.486 259.856 137.817 259.749 138.091 259.549C138.366 259.35 138.57 259.069 138.674 258.746L139.936 254.864C140.088 254.396 140.384 253.988 140.783 253.698C141.181 253.409 141.661 253.253 142.153 253.253C142.646 253.253 143.125 253.409 143.524 253.698C143.922 253.988 144.219 254.396 144.371 254.864L145.632 258.746C145.737 259.069 145.941 259.35 146.215 259.549C146.49 259.749 146.82 259.856 147.16 259.855H151.242C151.735 259.855 152.214 260.011 152.613 260.301C153.011 260.59 153.308 260.998 153.46 261.466C153.612 261.934 153.612 262.439 153.46 262.907C153.308 263.375 153.011 263.783 152.613 264.072L149.31 266.471C149.035 266.67 148.83 266.951 148.726 267.274C148.621 267.597 148.621 267.945 148.726 268.267L149.988 272.149C150.146 272.617 150.149 273.123 149.996 273.592C149.843 274.062 149.544 274.469 149.141 274.755C148.744 275.048 148.264 275.207 147.771 275.209Z" fill="#B9CEC9"/>
<path d="M181.24 275.209C180.747 275.207 180.267 275.048 179.87 274.755L176.567 272.356C176.293 272.156 175.962 272.049 175.623 272.049C175.284 272.049 174.953 272.156 174.679 272.356L171.376 274.755C170.978 275.044 170.498 275.2 170.006 275.2C169.513 275.2 169.033 275.044 168.635 274.755C168.237 274.466 167.94 274.058 167.788 273.59C167.636 273.121 167.636 272.617 167.788 272.149L169.049 268.267C169.155 267.945 169.155 267.597 169.05 267.274C168.946 266.952 168.741 266.67 168.466 266.471L165.163 264.072C164.765 263.783 164.468 263.375 164.316 262.907C164.164 262.439 164.164 261.934 164.316 261.466C164.468 260.998 164.765 260.59 165.163 260.301C165.562 260.011 166.041 259.855 166.534 259.855H170.616C170.956 259.856 171.286 259.749 171.561 259.549C171.835 259.35 172.039 259.069 172.144 258.746L173.405 254.864C173.557 254.396 173.854 253.988 174.252 253.698C174.651 253.409 175.13 253.253 175.623 253.253C176.115 253.253 176.595 253.409 176.993 253.698C177.392 253.988 177.688 254.396 177.84 254.864L179.102 258.746C179.206 259.069 179.41 259.35 179.685 259.549C179.959 259.749 180.29 259.856 180.629 259.855H184.712C185.204 259.855 185.684 260.011 186.083 260.301C186.481 260.59 186.777 260.998 186.93 261.466C187.082 261.934 187.082 262.439 186.93 262.907C186.777 263.375 186.481 263.783 186.083 264.072L182.78 266.471C182.505 266.67 182.3 266.952 182.195 267.274C182.091 267.597 182.091 267.945 182.196 268.267L183.458 272.149C183.616 272.617 183.618 273.123 183.466 273.592C183.313 274.062 183.013 274.469 182.611 274.755C182.214 275.048 181.734 275.207 181.24 275.209Z" fill="#B9CEC9"/>
<path d="M214.71 275.209C214.217 275.207 213.737 275.048 213.34 274.755L210.037 272.356C209.763 272.156 209.432 272.048 209.093 272.048C208.753 272.048 208.423 272.156 208.149 272.356L204.846 274.755C204.448 275.044 203.968 275.2 203.475 275.2C202.983 275.2 202.503 275.044 202.105 274.755C201.707 274.466 201.41 274.058 201.258 273.59C201.106 273.121 201.106 272.617 201.258 272.149L202.519 268.267C202.625 267.945 202.625 267.597 202.52 267.274C202.415 266.952 202.211 266.671 201.936 266.472L198.633 264.072C198.235 263.783 197.938 263.375 197.786 262.907C197.634 262.439 197.634 261.934 197.786 261.466C197.938 260.998 198.235 260.59 198.633 260.3C199.031 260.011 199.511 259.855 200.003 259.855H204.086C204.425 259.856 204.756 259.749 205.031 259.549C205.305 259.35 205.509 259.069 205.614 258.746L206.875 254.864C207.027 254.396 207.324 253.988 207.722 253.698C208.12 253.409 208.6 253.253 209.093 253.253C209.585 253.253 210.065 253.409 210.463 253.698C210.862 253.988 211.158 254.396 211.31 254.864L212.572 258.746C212.676 259.069 212.88 259.35 213.155 259.549C213.429 259.749 213.76 259.856 214.099 259.855H218.182C218.674 259.855 219.154 260.011 219.552 260.3C219.951 260.59 220.247 260.998 220.399 261.466C220.551 261.934 220.551 262.439 220.399 262.907C220.247 263.375 219.951 263.783 219.552 264.072L216.249 266.471C215.975 266.67 215.77 266.952 215.665 267.274C215.56 267.597 215.561 267.945 215.666 268.267L216.928 272.149C217.085 272.617 217.088 273.123 216.936 273.592C216.783 274.062 216.483 274.469 216.081 274.755C215.684 275.048 215.204 275.207 214.71 275.209Z" fill="#B9CEC9"/>
<path d="M236.946 275.439C236.404 275.437 235.877 275.262 235.441 274.941C234.999 274.627 234.669 274.179 234.502 273.663C234.334 273.148 234.337 272.592 234.51 272.078L235.772 268.196C235.862 267.92 235.863 267.622 235.773 267.345C235.683 267.069 235.508 266.828 235.272 266.657L231.969 264.258C231.531 263.94 231.206 263.492 231.038 262.978C230.871 262.463 230.871 261.909 231.038 261.395C231.206 260.881 231.531 260.433 231.969 260.115C232.406 259.797 232.934 259.626 233.474 259.626H237.557C237.848 259.626 238.131 259.535 238.367 259.364C238.602 259.193 238.777 258.952 238.866 258.675L240.128 254.793C240.295 254.279 240.621 253.831 241.058 253.513C241.496 253.195 242.023 253.024 242.564 253.024C243.105 253.024 243.631 253.195 244.069 253.513C244.507 253.831 244.832 254.279 244.999 254.793L246.261 258.675C246.35 258.952 246.525 259.193 246.761 259.364C246.996 259.535 247.279 259.626 247.57 259.626H251.653C252.194 259.626 252.721 259.797 253.158 260.115C253.596 260.433 253.921 260.881 254.088 261.395C254.256 261.909 254.256 262.463 254.089 262.978C253.921 263.492 253.596 263.94 253.158 264.258L249.855 266.657C249.62 266.828 249.444 267.069 249.354 267.345C249.264 267.622 249.265 267.92 249.355 268.196L250.617 272.078C250.784 272.592 250.784 273.146 250.617 273.66C250.45 274.175 250.124 274.623 249.686 274.941C249.249 275.258 248.722 275.43 248.181 275.43C247.64 275.43 247.113 275.258 246.675 274.941L243.373 272.542C243.138 272.37 242.854 272.278 242.564 272.278C242.273 272.278 241.989 272.37 241.754 272.542L238.451 274.941C238.015 275.262 237.488 275.437 236.946 275.439ZM242.564 271.093C243.105 271.093 243.632 271.265 244.069 271.583L247.372 273.982C247.607 274.153 247.89 274.245 248.181 274.245C248.472 274.246 248.755 274.154 248.99 273.983C249.225 273.812 249.4 273.571 249.49 273.295C249.58 273.018 249.58 272.72 249.49 272.444L248.228 268.562C248.06 268.048 248.06 267.493 248.227 266.979C248.394 266.464 248.721 266.016 249.159 265.699L252.462 263.3C252.697 263.129 252.872 262.888 252.962 262.612C253.052 262.335 253.052 262.038 252.962 261.761C252.872 261.485 252.697 261.244 252.462 261.073C252.227 260.902 251.943 260.81 251.653 260.81H247.57C247.029 260.811 246.502 260.64 246.064 260.322C245.626 260.004 245.301 259.556 245.134 259.041L243.873 255.159C243.783 254.883 243.608 254.642 243.373 254.471C243.137 254.3 242.854 254.208 242.563 254.208C242.273 254.208 241.989 254.3 241.754 254.471C241.519 254.642 241.344 254.883 241.254 255.159L239.993 259.041C239.826 259.556 239.501 260.004 239.063 260.322C238.625 260.64 238.098 260.811 237.557 260.81H233.474C233.184 260.81 232.9 260.902 232.665 261.073C232.43 261.244 232.255 261.485 232.165 261.761C232.075 262.037 232.075 262.335 232.165 262.612C232.255 262.888 232.43 263.129 232.665 263.3L235.968 265.699C236.407 266.016 236.733 266.465 236.9 266.979C237.067 267.494 237.067 268.048 236.899 268.562L235.637 272.444C235.547 272.72 235.547 273.018 235.637 273.294C235.727 273.571 235.902 273.812 236.137 273.983C236.372 274.153 236.655 274.245 236.946 274.245C237.237 274.245 237.52 274.153 237.755 273.982L241.058 271.583C241.495 271.265 242.022 271.093 242.564 271.093Z" fill="#3F3D56"/>
<path d="M32.5765 177.81C31.5555 177.81 30.5762 178.216 29.8542 178.937C29.1322 179.659 28.7266 180.638 28.7266 181.659C28.7266 182.68 29.1322 183.659 29.8542 184.381C30.5762 185.103 31.5555 185.508 32.5765 185.508H227.445C228.466 185.508 229.445 185.103 230.167 184.381C230.889 183.659 231.295 182.68 231.295 181.659C231.295 180.638 230.889 179.659 230.167 178.937C229.445 178.216 228.466 177.81 227.445 177.81H32.5765Z" fill="#CCCCCC"/>
<path d="M32.5765 197.944C31.5555 197.944 30.5762 198.35 29.8542 199.071C29.1322 199.793 28.7266 200.772 28.7266 201.793C28.7266 202.814 29.1322 203.793 29.8542 204.515C30.5762 205.237 31.5555 205.642 32.5765 205.642H227.445C228.466 205.642 229.445 205.237 230.167 204.515C230.889 203.793 231.295 202.814 231.295 201.793C231.295 200.772 230.889 199.793 230.167 199.071C229.445 198.35 228.466 197.944 227.445 197.944H32.5765Z" fill="#CCCCCC"/>
<path d="M32.5765 218.078C31.5555 218.078 30.5762 218.484 29.8542 219.206C29.1322 219.927 28.7266 220.906 28.7266 221.927C28.7266 222.948 29.1322 223.927 29.8542 224.649C30.5762 225.371 31.5555 225.776 32.5765 225.776H227.445C228.466 225.776 229.445 225.371 230.167 224.649C230.889 223.927 231.295 222.948 231.295 221.927C231.295 220.906 230.889 219.927 230.167 219.206C229.445 218.484 228.466 218.078 227.445 218.078H32.5765Z" fill="#CCCCCC"/>
<path d="M32.5765 177.81C31.5555 177.81 30.5762 178.216 29.8542 178.937C29.1322 179.659 28.7266 180.638 28.7266 181.659C28.7266 182.68 29.1322 183.659 29.8542 184.381C30.5762 185.103 31.5555 185.508 32.5765 185.508H227.445C228.466 185.508 229.445 185.103 230.167 184.381C230.889 183.659 231.295 182.68 231.295 181.659C231.295 180.638 230.889 179.659 230.167 178.937C229.445 178.216 228.466 177.81 227.445 177.81H32.5765Z" fill="#CCCCCC"/>
<path d="M32.5765 197.944C31.5555 197.944 30.5762 198.35 29.8542 199.071C29.1322 199.793 28.7266 200.772 28.7266 201.793C28.7266 202.814 29.1322 203.793 29.8542 204.515C30.5762 205.237 31.5555 205.642 32.5765 205.642H227.445C228.466 205.642 229.445 205.237 230.167 204.515C230.889 203.793 231.295 202.814 231.295 201.793C231.295 200.772 230.889 199.793 230.167 199.071C229.445 198.35 228.466 197.944 227.445 197.944H32.5765Z" fill="#CCCCCC"/>
<path d="M32.5765 218.078C31.5555 218.078 30.5762 218.484 29.8542 219.206C29.1322 219.927 28.7266 220.906 28.7266 221.927C28.7266 222.948 29.1322 223.927 29.8542 224.649C30.5762 225.371 31.5555 225.776 32.5765 225.776H227.445C228.466 225.776 229.445 225.371 230.167 224.649C230.889 223.927 231.295 222.948 231.295 221.927C231.295 220.906 230.889 219.927 230.167 219.206C229.445 218.484 228.466 218.078 227.445 218.078H32.5765Z" fill="#CCCCCC"/>
<path d="M255.876 95.4972H4.14613C3.04689 95.496 1.99302 95.0588 1.21573 94.2817C0.438452 93.5046 0.00123378 92.451 0 91.352V16.1453C0.00123378 15.0462 0.438452 13.9926 1.21573 13.2155C1.99302 12.4384 3.04689 12.0012 4.14613 12H255.876C256.975 12.0012 258.029 12.4384 258.806 13.2155C259.583 13.9926 260.02 15.0462 260.022 16.1453V91.352C260.02 92.451 259.583 93.5046 258.806 94.2817C258.029 95.0588 256.975 95.496 255.876 95.4972ZM4.14613 13.1844C3.36096 13.1853 2.60822 13.4975 2.05303 14.0526C1.49783 14.6077 1.18552 15.3603 1.18461 16.1453V91.352C1.18552 92.137 1.49783 92.8895 2.05303 93.4446C2.60822 93.9997 3.36096 94.3119 4.14613 94.3129H255.876C256.661 94.312 257.413 93.9997 257.969 93.4446C258.524 92.8896 258.836 92.137 258.837 91.352V16.1453C258.836 15.3602 258.524 14.6077 257.969 14.0526C257.413 13.4975 256.661 13.1853 255.876 13.1844H4.14613Z" fill="#3F3D56"/>
<path d="M114.3 127.164C113.807 127.162 113.327 127.003 112.929 126.71L109.627 124.311C109.352 124.111 109.022 124.003 108.683 124.003C108.343 124.003 108.013 124.111 107.739 124.311L104.436 126.71C104.037 127 103.558 127.155 103.065 127.156C102.573 127.156 102.093 127 101.695 126.71C101.296 126.421 101 126.013 100.848 125.545C100.696 125.077 100.695 124.572 100.848 124.104L102.109 120.222C102.215 119.9 102.215 119.552 102.11 119.23C102.005 118.907 101.801 118.626 101.526 118.427L98.2229 116.028C97.8245 115.738 97.528 115.33 97.3758 114.862C97.2237 114.394 97.2237 113.89 97.3758 113.421C97.528 112.953 97.8245 112.545 98.2228 112.256C98.6212 111.966 99.1009 111.811 99.5933 111.811H103.676C104.015 111.811 104.346 111.704 104.621 111.505C104.895 111.305 105.099 111.024 105.203 110.701L106.465 106.819C106.617 106.351 106.914 105.943 107.312 105.654C107.71 105.364 108.19 105.208 108.683 105.208C109.175 105.208 109.655 105.364 110.053 105.654C110.452 105.943 110.748 106.351 110.9 106.819L112.162 110.701C112.266 111.024 112.47 111.305 112.745 111.505C113.019 111.704 113.35 111.811 113.689 111.811H117.772C118.264 111.811 118.744 111.966 119.142 112.256C119.541 112.545 119.837 112.953 119.989 113.421C120.141 113.89 120.141 114.394 119.989 114.862C119.837 115.33 119.541 115.738 119.142 116.028L115.839 118.427C115.564 118.626 115.36 118.907 115.255 119.23C115.15 119.552 115.15 119.9 115.256 120.222L116.518 124.104C116.675 124.572 116.678 125.078 116.525 125.547C116.373 126.017 116.073 126.425 115.67 126.71C115.273 127.003 114.793 127.162 114.3 127.164Z" fill="#B9CEC9"/>
<path d="M147.771 127.164C147.277 127.162 146.797 127.003 146.4 126.71L143.097 124.311C142.823 124.111 142.492 124.003 142.153 124.003C141.814 124.003 141.483 124.111 141.209 124.311L137.906 126.71C137.508 127 137.028 127.155 136.536 127.156C136.043 127.156 135.564 127 135.165 126.71C134.767 126.421 134.47 126.013 134.318 125.545C134.166 125.077 134.166 124.572 134.318 124.104L135.58 120.222C135.685 119.9 135.686 119.552 135.581 119.23C135.476 118.907 135.271 118.626 134.996 118.427L131.693 116.028C131.295 115.738 130.999 115.33 130.847 114.862C130.694 114.394 130.694 113.89 130.847 113.421C130.999 112.953 131.295 112.545 131.694 112.256C132.092 111.966 132.572 111.811 133.064 111.811H137.147C137.486 111.811 137.817 111.704 138.091 111.505C138.366 111.305 138.57 111.024 138.674 110.701L139.936 106.819C140.088 106.351 140.384 105.943 140.783 105.654C141.181 105.364 141.661 105.208 142.153 105.208C142.646 105.208 143.125 105.364 143.524 105.654C143.922 105.943 144.219 106.351 144.371 106.819L145.632 110.701C145.737 111.024 145.941 111.305 146.215 111.505C146.49 111.704 146.82 111.811 147.16 111.811H151.242C151.735 111.811 152.214 111.966 152.613 112.256C153.011 112.545 153.308 112.953 153.46 113.421C153.612 113.89 153.612 114.394 153.46 114.862C153.308 115.33 153.011 115.738 152.613 116.028L149.31 118.427C149.035 118.626 148.83 118.907 148.726 119.229C148.621 119.552 148.621 119.9 148.726 120.222L149.988 124.104C150.146 124.572 150.149 125.078 149.996 125.547C149.843 126.017 149.544 126.425 149.141 126.71C148.744 127.003 148.264 127.162 147.771 127.164Z" fill="#B9CEC9"/>
<path d="M181.24 127.164C180.747 127.162 180.267 127.003 179.87 126.71L176.567 124.311C176.293 124.112 175.962 124.004 175.623 124.004C175.284 124.004 174.953 124.112 174.679 124.311L171.376 126.71C170.978 127 170.498 127.156 170.006 127.156C169.513 127.156 169.033 127 168.635 126.71C168.237 126.421 167.94 126.013 167.788 125.545C167.636 125.077 167.636 124.572 167.788 124.104L169.049 120.222C169.155 119.9 169.155 119.552 169.05 119.23C168.946 118.907 168.741 118.626 168.466 118.427L165.163 116.028C164.765 115.738 164.468 115.33 164.316 114.862C164.164 114.394 164.164 113.89 164.316 113.421C164.468 112.953 164.765 112.545 165.163 112.256C165.562 111.966 166.041 111.811 166.534 111.811H170.616C170.956 111.811 171.286 111.704 171.561 111.505C171.835 111.305 172.039 111.024 172.144 110.701L173.405 106.819C173.557 106.351 173.854 105.943 174.252 105.654C174.651 105.364 175.13 105.208 175.623 105.208C176.115 105.208 176.595 105.364 176.993 105.654C177.392 105.943 177.688 106.351 177.84 106.819L179.102 110.701C179.206 111.024 179.41 111.305 179.685 111.505C179.959 111.704 180.29 111.811 180.629 111.811H184.712C185.204 111.811 185.684 111.966 186.083 112.256C186.481 112.545 186.777 112.953 186.93 113.421C187.082 113.89 187.082 114.394 186.93 114.862C186.777 115.33 186.481 115.738 186.083 116.028L182.78 118.427C182.505 118.626 182.3 118.907 182.195 119.23C182.091 119.552 182.091 119.9 182.196 120.222L183.458 124.104C183.616 124.572 183.618 125.078 183.466 125.547C183.313 126.017 183.013 126.425 182.611 126.71C182.214 127.003 181.734 127.162 181.24 127.164Z" fill="#B9CEC9"/>
<path d="M236.946 127.394C236.404 127.392 235.877 127.218 235.441 126.896C234.999 126.582 234.669 126.134 234.502 125.619C234.334 125.103 234.337 124.547 234.51 124.033L235.772 120.151C235.862 119.875 235.863 119.577 235.773 119.301C235.683 119.024 235.508 118.783 235.272 118.613L231.969 116.213C231.531 115.896 231.206 115.447 231.038 114.933C230.871 114.419 230.871 113.865 231.038 113.35C231.206 112.836 231.531 112.388 231.969 112.07C232.406 111.752 232.934 111.581 233.474 111.581H237.557C237.848 111.582 238.131 111.49 238.367 111.319C238.602 111.148 238.777 110.907 238.866 110.63L240.128 106.748C240.295 106.234 240.621 105.786 241.058 105.468C241.496 105.15 242.023 104.979 242.564 104.979C243.105 104.979 243.631 105.15 244.069 105.468C244.507 105.786 244.832 106.234 244.999 106.748L246.261 110.63C246.35 110.907 246.525 111.148 246.761 111.319C246.996 111.49 247.279 111.582 247.57 111.581H251.653C252.194 111.581 252.721 111.752 253.158 112.07C253.596 112.388 253.921 112.836 254.088 113.351C254.256 113.865 254.256 114.419 254.089 114.933C253.921 115.447 253.596 115.896 253.158 116.213L249.855 118.613C249.62 118.783 249.444 119.024 249.354 119.301C249.264 119.577 249.265 119.875 249.355 120.151L250.617 124.033C250.784 124.547 250.784 125.101 250.617 125.616C250.45 126.13 250.124 126.578 249.686 126.896C249.249 127.214 248.722 127.385 248.181 127.385C247.64 127.385 247.113 127.214 246.675 126.896L243.373 124.497C243.138 124.326 242.854 124.233 242.564 124.233C242.273 124.233 241.989 124.326 241.754 124.497L238.451 126.896C238.015 127.218 237.488 127.392 236.946 127.394ZM242.564 123.048C243.105 123.048 243.632 123.22 244.069 123.539L247.372 125.938C247.607 126.109 247.89 126.201 248.181 126.201C248.472 126.201 248.755 126.109 248.99 125.938C249.225 125.767 249.4 125.526 249.49 125.25C249.58 124.973 249.58 124.676 249.49 124.399L248.228 120.517C248.06 120.003 248.06 119.449 248.227 118.934C248.394 118.42 248.721 117.972 249.159 117.655L252.462 115.255C252.697 115.084 252.872 114.843 252.962 114.567C253.052 114.291 253.052 113.993 252.962 113.717C252.872 113.44 252.697 113.199 252.462 113.028C252.227 112.858 251.943 112.766 251.653 112.766H247.57C247.029 112.767 246.502 112.596 246.064 112.278C245.626 111.96 245.301 111.511 245.134 110.996L243.873 107.114C243.783 106.838 243.608 106.597 243.373 106.426C243.137 106.255 242.854 106.163 242.563 106.163C242.273 106.163 241.989 106.255 241.754 106.426C241.519 106.597 241.344 106.838 241.254 107.114L239.993 110.996C239.826 111.511 239.501 111.96 239.063 112.278C238.625 112.596 238.098 112.767 237.557 112.766H233.474C233.184 112.766 232.9 112.858 232.665 113.028C232.43 113.199 232.255 113.44 232.165 113.716C232.075 113.993 232.075 114.291 232.165 114.567C232.255 114.843 232.43 115.084 232.665 115.255L235.968 117.655C236.407 117.972 236.733 118.42 236.9 118.934C237.067 119.449 237.067 120.003 236.899 120.517L235.637 124.399C235.547 124.676 235.547 124.973 235.637 125.25C235.727 125.526 235.902 125.767 236.137 125.938C236.372 126.109 236.655 126.201 236.946 126.201C237.237 126.201 237.52 126.109 237.755 125.938L241.058 123.539C241.495 123.22 242.022 123.048 242.564 123.048Z" fill="#3F3D56"/>
<path d="M203.184 127.299C202.642 127.297 202.115 127.122 201.679 126.801C201.237 126.487 200.907 126.039 200.74 125.523C200.572 125.008 200.575 124.452 200.748 123.938L202.01 120.056C202.101 119.78 202.101 119.482 202.011 119.205C201.921 118.929 201.746 118.688 201.51 118.517L198.207 116.118C197.77 115.8 197.444 115.352 197.277 114.838C197.11 114.324 197.11 113.77 197.277 113.255C197.444 112.741 197.77 112.293 198.207 111.975C198.645 111.657 199.172 111.486 199.713 111.486H203.795C204.086 111.487 204.37 111.395 204.605 111.224C204.84 111.053 205.015 110.812 205.104 110.535L206.366 106.653C206.533 106.139 206.859 105.691 207.296 105.373C207.734 105.055 208.261 104.884 208.802 104.884C209.343 104.884 209.87 105.055 210.307 105.373C210.745 105.691 211.071 106.139 211.238 106.653L212.499 110.535C212.589 110.812 212.763 111.053 212.999 111.224C213.234 111.395 213.518 111.486 213.808 111.486H217.891C218.432 111.486 218.959 111.657 219.396 111.975C219.834 112.293 220.16 112.741 220.327 113.255C220.494 113.77 220.494 114.324 220.327 114.838C220.16 115.352 219.834 115.8 219.396 116.118L216.094 118.518C215.858 118.688 215.682 118.929 215.593 119.205C215.503 119.482 215.503 119.78 215.593 120.056L216.855 123.938C217.022 124.452 217.022 125.006 216.855 125.52C216.688 126.035 216.362 126.483 215.925 126.801C215.487 127.119 214.96 127.29 214.419 127.29C213.878 127.29 213.351 127.119 212.914 126.801L209.611 124.402C209.376 124.23 209.093 124.138 208.802 124.138C208.511 124.138 208.228 124.23 207.993 124.402L204.69 126.801C204.254 127.122 203.726 127.297 203.184 127.299ZM208.802 122.953C209.343 122.953 209.87 123.125 210.307 123.443L213.61 125.843C213.845 126.013 214.128 126.106 214.419 126.106C214.71 126.106 214.993 126.014 215.228 125.843C215.463 125.672 215.639 125.431 215.728 125.155C215.818 124.878 215.818 124.58 215.728 124.304L214.467 120.422C214.299 119.908 214.298 119.354 214.465 118.839C214.633 118.325 214.959 117.876 215.397 117.559L218.7 115.16C218.935 114.989 219.11 114.748 219.2 114.472C219.29 114.195 219.29 113.898 219.2 113.621C219.11 113.345 218.935 113.104 218.7 112.933C218.465 112.762 218.182 112.67 217.891 112.67H213.808C213.267 112.671 212.74 112.501 212.302 112.183C211.864 111.865 211.539 111.416 211.373 110.901L210.111 107.019C210.021 106.743 209.846 106.502 209.611 106.331C209.376 106.16 209.092 106.068 208.802 106.068C208.511 106.068 208.228 106.16 207.993 106.331C207.757 106.502 207.582 106.743 207.493 107.019L206.231 110.901C206.065 111.416 205.739 111.865 205.301 112.183C204.864 112.501 204.336 112.671 203.795 112.67H199.713C199.422 112.67 199.139 112.762 198.904 112.933C198.668 113.104 198.493 113.345 198.403 113.621C198.314 113.898 198.314 114.195 198.403 114.472C198.493 114.748 198.668 114.989 198.903 115.16L202.206 117.559C202.645 117.876 202.971 118.325 203.138 118.839C203.305 119.354 203.305 119.908 203.137 120.422L201.875 124.304C201.785 124.58 201.785 124.878 201.875 125.155C201.965 125.431 202.14 125.672 202.375 125.843C202.61 126.013 202.894 126.105 203.184 126.105C203.475 126.105 203.758 126.013 203.993 125.843L207.296 123.443C207.734 123.125 208.261 122.953 208.802 122.953Z" fill="#3F3D56"/>
<path d="M32.5765 29.7654C31.5555 29.7654 30.5762 30.1709 29.8542 30.8928C29.1322 31.6146 28.7266 32.5937 28.7266 33.6145C28.7266 34.6354 29.1322 35.6145 29.8542 36.3363C30.5762 37.0582 31.5555 37.4637 32.5765 37.4637H227.445C228.466 37.4637 229.445 37.0582 230.167 36.3363C230.889 35.6145 231.295 34.6354 231.295 33.6145C231.295 32.5937 230.889 31.6146 230.167 30.8928C229.445 30.1709 228.466 29.7654 227.445 29.7654H32.5765Z" fill="#CCCCCC"/>
<path d="M32.5765 49.8994C31.5555 49.8994 30.5762 50.305 29.8542 51.0268C29.1322 51.7487 28.7266 52.7277 28.7266 53.7486C28.7266 54.7694 29.1322 55.7485 29.8542 56.4703C30.5762 57.1922 31.5555 57.5977 32.5765 57.5977H227.445C228.466 57.5977 229.445 57.1922 230.167 56.4703C230.889 55.7485 231.295 54.7694 231.295 53.7486C231.295 52.7277 230.889 51.7487 230.167 51.0268C229.445 50.305 228.466 49.8994 227.445 49.8994H32.5765Z" fill="#CCCCCC"/>
<path d="M32.5765 70.0334C31.5555 70.0334 30.5762 70.439 29.8542 71.1608C29.1322 71.8827 28.7266 72.8617 28.7266 73.8826C28.7266 74.9035 29.1322 75.8825 29.8542 76.6044C30.5762 77.3262 31.5555 77.7318 32.5765 77.7318H227.445C228.466 77.7318 229.445 77.3262 230.167 76.6044C230.889 75.8825 231.295 74.9035 231.295 73.8826C231.295 72.8617 230.889 71.8827 230.167 71.1608C229.445 70.439 228.466 70.0334 227.445 70.0334H32.5765Z" fill="#CCCCCC"/>
<path d="M32.5765 29.7654C31.5555 29.7654 30.5762 30.1709 29.8542 30.8928C29.1322 31.6146 28.7266 32.5937 28.7266 33.6145C28.7266 34.6354 29.1322 35.6145 29.8542 36.3363C30.5762 37.0582 31.5555 37.4637 32.5765 37.4637H227.445C228.466 37.4637 229.445 37.0582 230.167 36.3363C230.889 35.6145 231.295 34.6354 231.295 33.6145C231.295 32.5937 230.889 31.6146 230.167 30.8928C229.445 30.1709 228.466 29.7654 227.445 29.7654H32.5765Z" fill="#CCCCCC"/>
<path d="M32.5765 49.8994C31.5555 49.8994 30.5762 50.305 29.8542 51.0268C29.1322 51.7487 28.7266 52.7277 28.7266 53.7486C28.7266 54.7694 29.1322 55.7485 29.8542 56.4703C30.5762 57.1922 31.5555 57.5977 32.5765 57.5977H227.445C228.466 57.5977 229.445 57.1922 230.167 56.4703C230.889 55.7485 231.295 54.7694 231.295 53.7486C231.295 52.7277 230.889 51.7487 230.167 51.0268C229.445 50.305 228.466 49.8994 227.445 49.8994H32.5765Z" fill="#CCCCCC"/>
<path d="M32.5765 70.0334C31.5555 70.0334 30.5762 70.439 29.8542 71.1608C29.1322 71.8827 28.7266 72.8617 28.7266 73.8826C28.7266 74.9035 29.1322 75.8825 29.8542 76.6044C30.5762 77.3262 31.5555 77.7318 32.5765 77.7318H227.445C228.466 77.7318 229.445 77.3262 230.167 76.6044C230.889 75.8825 231.295 74.9035 231.295 73.8826C231.295 72.8617 230.889 71.8827 230.167 71.1608C229.445 70.439 228.466 70.0334 227.445 70.0334H32.5765Z" fill="#CCCCCC"/>
</g>
<defs>
<clipPath id="clip0">
<rect width="94" height="94" fill="white" transform="translate(451)"/>
</clipPath>
<clipPath id="clip1">
<rect width="475" height="318" fill="white" transform="translate(0 12)"/>
</clipPath>
</defs>
</svg>
