<svg width="656" height="656" viewBox="0 0 656 656" fill="none" xmlns="http://www.w3.org/2000/svg">
<path opacity="0.7" d="M103.399 275.52C103.399 275.52 83.7185 359.488 138.495 432.711C193.271 505.933 288.705 534.338 365.471 559.424C442.236 584.509 514.055 555.553 541.003 491.068C567.951 426.584 513.517 391.868 501.512 307.651C489.507 223.434 499.085 199.188 443.088 135.057C387.092 70.9267 272.161 72.4749 194.464 138.298C116.768 204.121 103.399 275.52 103.399 275.52Z" fill="#C3AED6" fill-opacity="0.6"/>
<path d="M536.477 339.191C536.477 339.191 536.477 333.707 528.789 326.071C521.1 318.436 516.18 314.001 516.18 314.001C516.18 314.001 512.336 326.609 519.46 334.298C524.724 339.701 530.429 344.656 536.516 349.11L536.477 339.191Z" fill="#B9CEC9"/>
<path d="M525.326 373.461C525.326 373.461 525.325 367.977 517.65 360.341C509.975 352.705 505.029 348.271 505.029 348.271C505.029 348.271 501.185 360.8 508.322 368.528C513.583 373.933 519.289 378.888 525.378 383.34L525.326 373.461Z" fill="#B9CEC9"/>
<path d="M535.991 348.546C535.991 348.546 536.569 343.088 545.018 336.253C553.467 329.417 558.912 325.586 558.912 325.586C558.912 325.586 561.392 338.548 553.493 345.423C547.709 350.245 541.53 354.572 535.021 358.36L535.991 348.546Z" fill="#B9CEC9"/>
<path d="M522.53 389.008C522.53 389.008 523.672 383.642 532.79 377.738C541.909 371.834 547.668 368.554 547.668 368.554C547.668 368.554 548.77 381.674 540.19 387.722C533.944 391.901 527.362 395.552 520.51 398.638L522.53 389.008Z" fill="#B9CEC9"/>
<path d="M525.063 433.131C525.063 433.131 525.063 427.646 532.738 420.011C540.414 412.375 545.36 407.94 545.36 407.94C545.36 407.94 549.204 420.562 542.067 428.25C536.802 433.652 531.097 438.607 525.011 443.062L525.063 433.131Z" fill="#B9CEC9"/>
<path d="M524.931 443.902C524.931 443.902 525.706 438.47 519.198 429.772C512.691 421.073 508.426 416.035 508.426 416.035C508.426 416.035 502.824 427.974 508.794 436.594C513.22 442.681 518.149 448.386 523.528 453.65L524.931 443.902Z" fill="#B9CEC9"/>
<path d="M517.361 475.81C517.361 475.81 517.361 470.326 525.036 462.69C532.711 455.054 537.658 450.62 537.658 450.62C537.658 450.62 541.502 463.241 534.365 470.916C529.104 476.323 523.399 481.277 517.309 485.729L517.361 475.81Z" fill="#B9CEC9"/>
<path d="M522.478 504.753C522.478 504.753 521.101 499.439 526.585 490.071C532.069 480.704 535.769 475.193 535.769 475.193C535.769 475.193 542.683 486.424 537.724 495.674C534.021 502.23 529.773 508.462 525.024 514.304L522.478 504.753Z" fill="#B9CEC9"/>
<path d="M537.173 337.788C536.785 343.507 536.084 349.201 535.073 354.844C532.03 370.522 524.446 380.651 521.402 394.82C518.359 408.99 527.083 427.24 524.748 445.45C522.413 463.661 515.328 473.763 517.361 485.912C519.395 498.062 530.048 530.94 530.048 530.94" stroke="#263238" stroke-width="0.5" stroke-linecap="round" stroke-linejoin="round"/>
<path d="M535.913 352.193L544.192 345.83" stroke="#263238" stroke-width="0.5" stroke-linecap="round" stroke-linejoin="round"/>
<path d="M536.307 344.872L532.843 338.706" stroke="#263238" stroke-width="0.5" stroke-linecap="round" stroke-linejoin="round"/>
<path d="M521.861 394.151C521.861 394.151 528.789 388.903 535.913 383.76" stroke="#263238" stroke-width="0.5" stroke-linecap="round" stroke-linejoin="round"/>
<path d="M525.325 383.34C525.325 383.34 519.553 372.018 513.006 364.513" stroke="#263238" stroke-width="0.5" stroke-linecap="round" stroke-linejoin="round"/>
<path d="M525.325 440.937C529.285 433.66 534.279 426.996 540.151 421.152" stroke="#263238" stroke-width="0.5" stroke-linecap="round" stroke-linejoin="round"/>
<path d="M523.987 448.704C521.877 443.756 519.363 438.99 516.469 434.456C512.428 428.486 511.851 427.712 511.851 427.712" stroke="#263238" stroke-width="0.5" stroke-linecap="round" stroke-linejoin="round"/>
<path d="M517.361 485.899C519.111 481.538 521.194 477.318 523.593 473.278C525.992 469.529 528.699 465.987 531.688 462.69" stroke="#263238" stroke-width="0.5" stroke-linecap="round" stroke-linejoin="round"/>
<path d="M524.984 514.304C524.582 510.142 525.297 505.948 527.057 502.155C529.943 496.566 533.223 489.258 534.575 486.411" stroke="#263238" stroke-width="0.5" stroke-linecap="round" stroke-linejoin="round"/>
<path d="M486.175 412.493C486.175 412.493 485.585 409.055 489.56 403.401C493.536 397.746 496.12 394.466 496.12 394.466C496.12 394.466 499.899 401.957 496.265 407.586C493.567 411.548 490.539 415.274 487.212 418.725L486.175 412.493Z" fill="#B9CEC9"/>
<path d="M496.881 432.776C496.881 432.776 496.291 429.326 500.279 423.684C504.268 418.043 506.84 414.736 506.84 414.736C506.84 414.736 510.618 422.241 506.971 427.856C504.269 431.815 501.241 435.541 497.918 438.995L496.881 432.776Z" fill="#B9CEC9"/>
<path d="M487.487 418.305C487.487 418.305 486.543 414.946 480.494 411.575C474.446 408.203 470.667 406.392 470.667 406.392C470.667 406.392 470.523 414.789 476.217 418.2C480.373 420.597 484.722 422.643 489.219 424.314L487.487 418.305Z" fill="#B9CEC9"/>
<path d="M500.331 442.223C500.331 442.223 499.019 438.982 492.669 436.266C486.319 433.55 482.344 432.134 482.344 432.134C482.344 432.134 483.078 440.504 489.114 443.338C493.495 445.286 498.033 446.862 502.68 448.048L500.331 442.223Z" fill="#B9CEC9"/>
<path d="M503.533 470.155C503.533 470.155 502.942 466.718 497.287 462.729C491.633 458.741 488.103 456.537 488.103 456.537C488.103 456.537 487.067 464.868 492.367 468.909C496.247 471.726 500.354 474.214 504.648 476.348L503.533 470.155Z" fill="#B9CEC9"/>
<path d="M504.78 476.899C504.78 476.899 503.704 473.58 506.84 467.413C509.975 461.247 512.088 457.626 512.088 457.626C512.088 457.626 516.89 464.514 514.082 470.562C511.97 474.868 509.499 478.99 506.695 482.882L504.78 476.899Z" fill="#B9CEC9"/>
<path d="M514.423 504.648C514.423 504.648 514.816 501.184 520.235 496.881C525.654 492.577 529.091 490.163 529.091 490.163C529.091 490.163 530.6 498.429 525.536 502.759C521.835 505.796 517.885 508.517 513.728 510.893L514.423 504.648Z" fill="#B9CEC9"/>
<path d="M512.992 496.094C512.992 496.094 512.402 492.656 506.747 488.668C501.092 484.679 497.563 482.462 497.563 482.462C497.563 482.462 496.527 490.793 501.84 494.847C505.714 497.666 509.817 500.154 514.107 502.286L512.992 496.094Z" fill="#B9CEC9"/>
<path d="M512.992 514.789C512.992 514.789 513.281 511.313 508.82 506.025C504.359 500.738 501.473 497.694 501.473 497.694C501.473 497.694 498.363 505.487 502.47 510.814C505.506 514.522 508.846 517.971 512.454 521.126L512.992 514.789Z" fill="#B9CEC9"/>
<path d="M485.585 411.693C486.448 415.247 487.508 418.751 488.76 422.189C492.368 431.687 498.22 437.211 501.67 445.805C505.121 454.398 501.67 466.797 505.055 477.922C508.44 489.048 514.042 494.65 514.095 502.496C514.147 510.342 511.051 532.108 511.051 532.108" stroke="#263238" stroke-width="0.5" stroke-linecap="round" stroke-linejoin="round"/>
<path d="M487.933 420.575L482.056 417.491" stroke="#263238" stroke-width="0.5" stroke-linecap="round" stroke-linejoin="round"/>
<path d="M486.896 416.035L488.405 411.797" stroke="#263238" stroke-width="0.5" stroke-linecap="round" stroke-linejoin="round"/>
<path d="M501.302 445.371C501.302 445.371 496.396 442.866 491.357 440.373" stroke="#263238" stroke-width="0.5" stroke-linecap="round" stroke-linejoin="round"/>
<path d="M497.957 438.969C499.398 434.413 501.302 430.017 503.638 425.849" stroke="#263238" stroke-width="0.5" stroke-linecap="round" stroke-linejoin="round"/>
<path d="M504.216 475.088C500.941 470.946 497.083 467.3 492.762 464.264" stroke="#263238" stroke-width="0.5" stroke-linecap="round" stroke-linejoin="round"/>
<path d="M505.895 479.772C506.674 476.44 507.732 473.179 509.056 470.024C510.946 465.839 511.221 465.288 511.221 465.288" stroke="#263238" stroke-width="0.5" stroke-linecap="round" stroke-linejoin="round"/>
<path d="M513.819 508.361C515.735 505.996 517.851 503.802 520.143 501.801C521.607 500.725 522.98 499.531 524.25 498.232" stroke="#263238" stroke-width="0.5" stroke-linecap="round" stroke-linejoin="round"/>
<path d="M514.095 502.417C512.534 499.872 510.779 497.451 508.847 495.175C506.935 493.088 504.855 491.162 502.628 489.415" stroke="#263238" stroke-width="0.5" stroke-linecap="round" stroke-linejoin="round"/>
<path d="M512.389 521.061C512.193 518.404 511.287 515.848 509.765 513.661C507.351 510.473 504.517 506.235 503.35 504.582" stroke="#263238" stroke-width="0.5" stroke-linecap="round" stroke-linejoin="round"/>
<path d="M495.359 528.238H545.609V565.892C545.609 566.936 545.194 567.937 544.456 568.675C543.718 569.413 542.717 569.828 541.673 569.828H499.348C498.304 569.828 497.303 569.413 496.565 568.675C495.827 567.937 495.412 566.936 495.412 565.892V528.238H495.359Z" fill="#263238"/>
<path d="M545.163 534.784H495.307C494.263 534.784 493.262 534.37 492.524 533.632C491.786 532.893 491.371 531.892 491.371 530.848C491.371 529.804 491.786 528.803 492.524 528.065C493.262 527.327 494.263 526.912 495.307 526.912H545.163C546.207 526.912 547.208 527.327 547.946 528.065C548.684 528.803 549.099 529.804 549.099 530.848C549.099 531.892 548.684 532.893 547.946 533.632C547.208 534.37 546.207 534.784 545.163 534.784Z" fill="#263238"/>
<path d="M449.584 184.559C474.22 184.559 494.192 164.587 494.192 139.951C494.192 115.315 474.22 95.343 449.584 95.343C424.947 95.343 404.976 115.315 404.976 139.951C404.976 164.587 424.947 184.559 449.584 184.559Z" fill="#263238"/>
<path d="M464.122 175.8C483.923 167.768 493.464 145.204 485.431 125.403C477.399 105.602 454.835 96.0612 435.034 104.094C415.233 112.126 405.692 134.69 413.725 154.491C421.757 174.292 444.321 183.833 464.122 175.8Z" fill="white"/>
<path d="M424.484 147.062L449.583 139.951V104.842" stroke="#263238" stroke-width="2" stroke-miterlimit="10"/>
<path d="M233.142 339.375H184.165L120.048 167.293H169.025L233.142 339.375Z" fill="#263238"/>
<path opacity="0.2" d="M233.142 339.375H184.165L120.048 167.293H169.025L233.142 339.375Z" fill="white"/>
<path d="M155.945 209.329H143.349C142.491 209.278 141.664 208.983 140.967 208.479C140.27 207.974 139.731 207.282 139.413 206.482L134.546 193.428C134.377 193.129 134.292 192.79 134.3 192.447C134.309 192.104 134.409 191.769 134.592 191.479C134.775 191.188 135.033 190.952 135.339 190.797C135.645 190.641 135.988 190.571 136.33 190.594H148.925C149.782 190.648 150.606 190.942 151.302 191.443C151.999 191.945 152.539 192.633 152.861 193.428L157.729 206.482C158.306 208.057 157.519 209.329 155.945 209.329Z" fill="#263238"/>
<path d="M172.265 175.992H123.288L120.048 167.293H169.025L172.265 175.992Z" fill="#263238"/>
<path d="M140.029 177.422L141.433 181.2" stroke="#263238" stroke-linecap="round" stroke-linejoin="round"/>
<path d="M141.919 177.422L143.323 181.2" stroke="#263238" stroke-linecap="round" stroke-linejoin="round"/>
<path d="M143.795 177.422L145.212 181.2" stroke="#263238" stroke-linecap="round" stroke-linejoin="round"/>
<path d="M145.685 177.422L147.088 181.2" stroke="#263238" stroke-linecap="round" stroke-linejoin="round"/>
<path d="M147.573 177.422L148.977 181.2" stroke="#263238" stroke-linecap="round" stroke-linejoin="round"/>
<path d="M149.463 177.422L150.867 181.2" stroke="#263238" stroke-linecap="round" stroke-linejoin="round"/>
<path d="M151.353 177.422L152.756 181.2" stroke="#263238" stroke-linecap="round" stroke-linejoin="round"/>
<path d="M153.241 177.422L154.645 181.2" stroke="#263238" stroke-linecap="round" stroke-linejoin="round"/>
<path d="M155.117 177.422L156.534 181.2" stroke="#263238" stroke-linecap="round" stroke-linejoin="round"/>
<path d="M157.007 177.422L158.411 181.2" stroke="#263238" stroke-linecap="round" stroke-linejoin="round"/>
<path d="M151.864 201.143L140.056 193.625C139.946 193.538 139.813 193.485 139.674 193.471C139.534 193.457 139.394 193.483 139.269 193.546C139.168 193.622 139.1 193.733 139.078 193.858C139.056 193.982 139.082 194.11 139.15 194.215L144.582 205.931C144.653 206.08 144.756 206.21 144.883 206.314C145.01 206.419 145.158 206.494 145.317 206.535H145.501C145.598 206.542 145.695 206.517 145.776 206.462C145.857 206.407 145.917 206.327 145.947 206.233L147.259 202.376H151.982C152.043 202.382 152.105 202.374 152.163 202.354C152.221 202.334 152.274 202.302 152.319 202.26C152.363 202.217 152.399 202.166 152.422 202.109C152.445 202.052 152.456 201.991 152.454 201.93C152.429 201.76 152.361 201.599 152.258 201.462C152.155 201.324 152.02 201.215 151.864 201.143Z" fill="white"/>
<path d="M151.628 201.667L139.768 194.15L145.199 205.866L146.551 201.72L151.628 201.667Z" fill="#263238"/>
<path d="M173.787 201.667L161.927 194.15L167.372 205.866L168.71 201.72L173.787 201.667Z" fill="white"/>
<path d="M179.862 208.332L178.799 205.918L177.396 207.952L179.862 208.332Z" fill="white"/>
<path d="M208.516 285.242L207.454 282.828L206.05 284.861L208.516 285.242Z" fill="white"/>
<path d="M217.319 308.845L216.243 306.431L214.853 308.451L217.319 308.845Z" fill="white"/>
<path d="M226.333 333.038L225.257 330.624L223.866 332.657L226.333 333.038Z" fill="white"/>
<path d="M175.834 257.992L174.758 255.578L173.367 257.598L175.834 257.992Z" fill="white"/>
<path d="M185.989 285.242L184.913 282.828L183.522 284.861L185.989 285.242Z" fill="white"/>
<path d="M194.779 308.845L193.716 306.431L192.312 308.451L194.779 308.845Z" fill="white"/>
<path d="M203.806 333.038L202.731 330.624L201.34 332.657L203.806 333.038Z" fill="white"/>
<path d="M151.864 234.231L153.924 235.556L159.592 223.735L157.532 222.397L151.864 234.231Z" fill="white"/>
<path d="M154.409 222.646C151.405 220.311 151.195 219.839 151.93 217.188C150.381 219.314 149.922 219.353 146.682 217.621C149.686 219.97 149.896 220.442 149.161 223.092C150.657 220.967 151.116 220.928 154.409 222.646Z" fill="white"/>
<path d="M164.302 223.919C162.452 222.476 162.321 222.187 162.767 220.547C161.809 221.859 161.534 221.859 159.5 220.823C161.35 222.266 161.481 222.554 161.022 224.194C161.98 222.882 162.268 222.856 164.302 223.919Z" fill="white"/>
<path d="M163.738 229.482C162.426 228.445 162.321 228.249 162.649 227.081C161.967 228.012 161.757 228.026 160.313 227.265C161.625 228.301 161.717 228.511 161.402 229.679C162.085 228.734 162.281 228.721 163.738 229.482Z" fill="white"/>
<path d="M193.468 281.922L194.74 282.828L200.408 270.994L199.136 270.088L193.468 281.922Z" fill="white"/>
<path d="M188.718 231.174L178.262 224.549L183.051 234.887L184.244 231.227L188.718 231.174Z" fill="white"/>
<path d="M180.846 231.791C177.015 231.791 173.053 229.521 172.016 226.74C170.98 223.958 173.263 221.728 177.12 221.728C180.977 221.728 184.913 223.998 185.95 226.766C186.986 229.534 184.69 231.791 180.846 231.791ZM177.317 222.305C173.814 222.305 171.715 224.299 172.62 226.74C173.525 229.18 177.12 231.174 180.623 231.174C184.126 231.174 186.239 229.193 185.32 226.74C184.402 224.286 180.82 222.305 177.317 222.305Z" fill="white"/>
<path d="M176.241 230.781C175.728 230.743 175.235 230.563 174.82 230.259C174.405 229.955 174.083 229.54 173.893 229.062C173.791 228.881 173.74 228.676 173.744 228.469C173.749 228.261 173.81 228.059 173.92 227.883C174.03 227.707 174.186 227.564 174.37 227.469C174.555 227.374 174.761 227.331 174.968 227.343C175.482 227.381 175.974 227.561 176.389 227.865C176.805 228.169 177.126 228.584 177.317 229.062C177.419 229.243 177.47 229.448 177.465 229.655C177.46 229.863 177.399 230.065 177.289 230.241C177.179 230.417 177.024 230.56 176.839 230.655C176.655 230.75 176.448 230.793 176.241 230.781ZM175.191 227.96C175.058 227.949 174.923 227.975 174.803 228.035C174.683 228.095 174.581 228.186 174.51 228.3C174.438 228.414 174.399 228.545 174.396 228.679C174.394 228.814 174.428 228.946 174.496 229.062C174.618 229.373 174.825 229.644 175.095 229.841C175.364 230.039 175.685 230.155 176.018 230.177C176.622 230.177 176.936 229.679 176.713 229.062C176.587 228.755 176.378 228.489 176.109 228.294C175.84 228.1 175.523 227.984 175.191 227.96Z" fill="white"/>
<path d="M176.411 232.578L175.991 232.001C176.299 231.923 176.578 231.757 176.794 231.525C177.011 231.292 177.156 231.002 177.211 230.689C177.229 230.163 177.072 229.647 176.765 229.219L177.264 229.01C177.668 229.575 177.875 230.257 177.854 230.951C177.794 231.332 177.626 231.687 177.37 231.975C177.115 232.264 176.782 232.473 176.411 232.578Z" fill="white"/>
<path d="M169.851 249.634L162.543 244.321L160.995 246.787L168.303 252.101L169.851 249.634Z" fill="white"/>
<path d="M158.148 256.522L159.342 257.388L161.966 253.137C161.824 253.016 161.725 252.852 161.683 252.671C161.64 252.489 161.657 252.299 161.73 252.127C161.926 251.799 162.464 251.799 162.91 252.127C163.111 252.24 163.266 252.421 163.348 252.636C163.429 252.852 163.432 253.09 163.357 253.308C163.24 253.442 163.08 253.53 162.904 253.556C162.729 253.582 162.55 253.546 162.399 253.452L159.775 257.703L160.89 258.516L167.45 256.667L167.857 252.731L160.654 247.483L157.439 249.28L158.148 256.522Z" fill="white"/>
<path d="M151.247 239.82H193.402" stroke="#263238" stroke-linecap="round" stroke-linejoin="round"/>
<path d="M187.905 244.321L186.356 246.787L193.664 252.101L195.212 249.634L187.905 244.321Z" fill="white"/>
<path d="M182.735 249.28L183.509 256.509L184.703 257.375L187.327 253.124C187.186 253.003 187.087 252.839 187.044 252.658C187.002 252.476 187.018 252.286 187.091 252.114C187.288 251.786 187.826 251.786 188.272 252.114C188.473 252.227 188.628 252.407 188.709 252.623C188.791 252.839 188.794 253.077 188.718 253.295C188.602 253.428 188.441 253.516 188.266 253.543C188.09 253.569 187.911 253.532 187.76 253.439L185.136 257.69L186.252 258.503L192.812 256.653L193.218 252.717L186.015 247.469L182.735 249.28Z" fill="white"/>
<path d="M180.925 251.419C181.003 250.907 181.069 250.356 181.121 249.739C181.181 249.149 181.119 248.552 180.941 247.986C180.763 247.42 180.472 246.896 180.085 246.446C179.23 245.492 178.119 244.804 176.884 244.465C176.687 244.465 176.529 244.465 176.556 244.701C176.575 244.801 176.622 244.894 176.692 244.968C176.761 245.042 176.851 245.095 176.949 245.121C177.953 245.414 178.859 245.971 179.573 246.735C179.886 247.109 180.12 247.542 180.262 248.009C180.404 248.475 180.451 248.966 180.4 249.451C180.4 250.054 180.269 250.605 180.203 251.104C179.849 253.728 179.639 255.302 183.995 257.913C184.064 257.962 184.146 257.99 184.231 257.992C184.277 257.994 184.322 257.983 184.362 257.959C184.402 257.936 184.433 257.902 184.454 257.86C184.47 257.764 184.454 257.664 184.409 257.577C184.364 257.489 184.293 257.419 184.205 257.375C180.439 255.105 180.583 254.029 180.925 251.419Z" fill="white"/>
<path d="M162.268 268.96L162.53 269.642C162.903 270.696 163.341 271.726 163.842 272.725L165.062 272.424C164.721 271.741 164.419 271.041 164.157 270.324H169.405L173.761 282.027H171.806L172.318 283.339H177.566L177.054 282.027H175.112L170.73 270.272H175.807L176.713 272.739H178.09L176.923 269.59L176.66 268.907L162.268 268.96Z" fill="white"/>
<path opacity="0.44" d="M189.663 301.393C190.791 304.41 188.351 306.85 184.153 306.85C179.954 306.85 175.703 304.41 174.588 301.393C173.473 298.375 175.9 295.948 180.098 295.948C184.297 295.948 188.548 298.388 189.663 301.393Z" fill="white"/>
<path d="M189.663 301.393C190.791 304.41 188.351 306.85 184.153 306.85C179.954 306.85 175.703 304.41 174.588 301.393C173.473 298.375 175.9 295.948 180.098 295.948C184.297 295.948 188.548 298.388 189.663 301.393Z" stroke="white" stroke-miterlimit="10"/>
<path d="M205.184 301.55L210.13 292.563C210.202 292.463 210.294 292.378 210.4 292.314C210.506 292.25 210.624 292.209 210.747 292.191C210.869 292.174 210.994 292.182 211.113 292.214C211.233 292.247 211.345 292.303 211.442 292.379C211.73 292.5 211.972 292.708 212.134 292.974C212.297 293.24 212.371 293.551 212.347 293.862L209.723 303.794L205.184 301.55Z" fill="white"/>
<path d="M204.37 302.311C206.312 302.049 210.117 303.715 210.222 306.247C210.205 306.524 210.115 306.792 209.96 307.022C209.806 307.253 209.593 307.438 209.343 307.559C207.608 308.342 205.702 308.667 203.806 308.504C204.051 308.314 204.233 308.054 204.329 307.76C204.425 307.465 204.43 307.148 204.344 306.851C204.082 306.126 203.78 305.416 203.439 304.725C203.084 303.715 203.268 302.364 204.37 302.285" fill="white"/>
<path d="M194.071 322.03C193.663 321.092 193.054 320.254 192.287 319.577L190.791 321.952C191.675 322.714 192.379 323.665 192.851 324.733C193.282 325.682 193.781 326.599 194.347 327.475L195.803 325.14C195.137 324.155 194.558 323.115 194.071 322.03Z" fill="white"/>
<path d="M192.352 324.772C191.933 323.837 191.32 323.001 190.554 322.319L189.059 324.707C189.945 325.471 190.653 326.42 191.132 327.488C191.557 328.438 192.052 329.355 192.614 330.23L194.084 327.895C193.408 326.911 192.828 325.866 192.352 324.772Z" fill="white"/>
<path d="M194.583 321.991C195.008 322.941 195.503 323.857 196.065 324.733L198.217 321.296L193.402 317.779L192.51 319.196C193.393 319.969 194.1 320.922 194.583 321.991Z" fill="white"/>
<path d="M190.621 327.528C190.213 326.589 189.604 325.752 188.836 325.074L187.524 327.068L187.747 331.595C187.757 331.675 187.783 331.753 187.823 331.823C187.864 331.893 187.919 331.954 187.984 332.002C188.049 332.05 188.124 332.084 188.202 332.102C188.281 332.12 188.363 332.122 188.443 332.107L192.274 330.598C191.636 329.624 191.083 328.597 190.621 327.528ZM188.928 330.624L188.81 328.21L191.001 329.811L188.928 330.624Z" fill="white"/>
<path d="M209.527 324.169L207.887 326.793L216.362 332.973L218.002 330.348L218.514 330.729L222.45 324.549L212.938 317.622L209.068 323.802L209.527 324.169ZM215.798 331.477L209.382 326.793L210.55 324.917L216.979 329.601L215.798 331.477Z" fill="white"/>
<path d="M129.507 169.602L129.822 170.429L128.641 171.872L130.898 173.315L131.2 174.155L127.657 171.872L129.507 169.602Z" fill="white"/>
<path d="M126.542 169.602L126.857 170.429L125.676 171.872L127.933 173.315L128.248 174.155L124.692 171.872L126.542 169.602Z" fill="white"/>
<path d="M328 270.495H226.7L195.737 184.113H297.037L328 270.495Z" fill="#263238"/>
<path d="M320.81 265.785H230.505L202.927 188.836H293.232L320.81 265.785Z" fill="#B9CEC9"/>
<path d="M303.636 217.884L288.705 206.889L276.91 237.511L246.328 228.878L230.505 265.785H320.81L303.636 217.884Z" fill="white"/>
<path d="M241.408 205.315C239.309 199.463 232.867 194.714 226.976 194.714C221.085 194.714 218.081 199.463 220.18 205.315C222.279 211.166 228.721 215.916 234.612 215.916C240.503 215.916 243.52 211.232 241.408 205.315Z" fill="white"/>
<path d="M338.496 255.63H237.197L206.233 169.248H307.533L338.496 255.63Z" fill="#263238"/>
<path d="M331.306 250.92H241.001L213.423 173.958H303.728L331.306 250.92Z" fill="#B9CEC9"/>
<path d="M314.132 203.019L299.201 192.024L287.406 222.646L256.824 214.013L241.001 250.92H331.306L314.132 203.019Z" fill="white"/>
<path d="M251.904 190.45C249.805 184.598 243.363 179.849 237.472 179.849C231.581 179.849 228.577 184.598 230.676 190.45C232.775 196.301 239.217 201.051 245.108 201.051C250.999 201.051 254.017 196.301 251.904 190.45Z" fill="white"/>
<path d="M338.955 155.695L341.382 161.599H340.687C340.316 160.804 339.854 160.056 339.309 159.369C338.722 158.699 338.003 158.159 337.197 157.781C336.342 157.421 335.421 157.247 334.494 157.269H330.939L337.984 176.516C338.277 177.589 338.811 178.581 339.545 179.416C340.247 179.955 341.115 180.233 341.999 180.203H342.878L343.127 180.885H332.447L332.198 180.203H333.09C334.153 180.203 334.783 179.875 334.993 179.232C335.027 178.293 334.829 177.36 334.415 176.516L327.37 157.269H324.352C323.539 157.225 322.723 157.314 321.938 157.532C321.66 157.651 321.413 157.83 321.213 158.057C321.013 158.284 320.867 158.553 320.784 158.844C320.575 159.742 320.634 160.682 320.954 161.546H320.246L318.383 155.642L338.955 155.695Z" fill="black"/>
<path d="M354.292 167.569H361.993" stroke="#263238" stroke-width="0.5" stroke-miterlimit="10"/>
<path d="M361.745 187.983H322.962L308.596 148.702H347.378L361.745 187.983Z" stroke="#263238" stroke-width="0.5" stroke-miterlimit="10"/>
<path d="M317.438 169.012H314.526L313.463 166.112H316.376L317.438 169.012Z" fill="white" stroke="#263238" stroke-width="0.5" stroke-miterlimit="10"/>
<path d="M356.273 169.012H353.361L352.298 166.112H355.211L356.273 169.012Z" fill="white" stroke="#263238" stroke-width="0.5" stroke-miterlimit="10"/>
<path d="M310.616 150.368H307.716L306.653 147.469H309.553L310.616 150.368Z" fill="white" stroke="#263238" stroke-width="0.5" stroke-miterlimit="10"/>
<path d="M349.451 150.368H346.552L345.489 147.469H348.389L349.451 150.368Z" fill="white" stroke="#263238" stroke-width="0.5" stroke-miterlimit="10"/>
<path d="M330.046 150.368H327.147L326.084 147.469H328.984L330.046 150.368Z" fill="white" stroke="#263238" stroke-width="0.5" stroke-miterlimit="10"/>
<path d="M324.825 189.203H321.912L320.85 186.304H323.762L324.825 189.203Z" fill="white" stroke="#263238" stroke-width="0.5" stroke-miterlimit="10"/>
<path d="M363.66 189.203H360.747L359.685 186.304H362.597L363.66 189.203Z" fill="white" stroke="#263238" stroke-width="0.5" stroke-miterlimit="10"/>
<path d="M342.576 188.679L345.397 196.393" stroke="#263238" stroke-width="0.5" stroke-miterlimit="10"/>
<path d="M344.256 189.203H341.343L340.28 186.304H343.193L344.256 189.203Z" fill="white" stroke="#263238" stroke-width="0.5" stroke-miterlimit="10"/>
<path d="M347.418 197.85H344.505L343.442 194.937H346.355L347.418 197.85Z" fill="#263238"/>
<path d="M320.64 180.623H353.217" stroke="#263238" stroke-width="0.5" stroke-miterlimit="10"/>
<path d="M363.529 167.569C363.361 167.142 363.077 166.771 362.707 166.5C362.338 166.228 361.9 166.066 361.442 166.034C361.257 166.022 361.072 166.061 360.907 166.145C360.742 166.23 360.602 166.357 360.503 166.514C360.404 166.671 360.349 166.851 360.343 167.037C360.338 167.222 360.382 167.406 360.472 167.569C360.64 167.994 360.925 168.362 361.294 168.632C361.663 168.901 362.102 169.06 362.558 169.09C362.742 169.105 362.928 169.069 363.093 168.986C363.259 168.903 363.4 168.777 363.499 168.621C363.599 168.464 363.654 168.284 363.659 168.099C363.665 167.913 363.619 167.73 363.529 167.569Z" fill="#263238"/>
<path opacity="0.2" d="M183.72 375.875L218.868 405.998L185.373 569.88H187.643L224.903 409.003L259.042 437.631L210.839 569.683L213.856 569.185L264.565 440.648L405.658 569.185H491.515L391.094 372.359L183.72 375.875Z" fill="black"/>
<path d="M187.642 569.88H185.373L181.975 373.067H191.041L187.642 569.88Z" fill="#263238" stroke="#263238" stroke-linecap="round" stroke-linejoin="round"/>
<path d="M382.946 569.88H380.676L377.278 373.067H386.344L382.946 569.88Z" fill="#263238" stroke="#263238" stroke-linecap="round" stroke-linejoin="round"/>
<path d="M396.775 370.023H178.511V375.127H396.775V370.023Z" fill="white" stroke="#263238" stroke-linecap="round" stroke-linejoin="round"/>
<path d="M129.232 475.692L125.296 484.062C125.296 484.062 130.15 489.31 132.354 489.31C134.559 489.31 135.438 487.106 138.088 486.214C140.738 485.322 145.133 476.964 145.133 476.964C145.133 476.964 142.509 472.556 139.885 472.11C137.261 471.664 133.325 470.352 131.069 469.906C128.812 469.46 129.232 475.692 129.232 475.692Z" fill="white" stroke="#263238" stroke-linecap="round" stroke-linejoin="round"/>
<path d="M129.232 475.692L131.856 480.1V484.036C131.856 484.036 134.48 485.348 135.386 484.036C136.291 482.724 140.24 478.303 140.24 478.303L138.469 474.367" stroke="#263238" stroke-linecap="round" stroke-linejoin="round"/>
<path d="M131.869 484.063L127.027 483.183" stroke="#263238" stroke-linecap="round" stroke-linejoin="round"/>
<path d="M205.197 554.976L196.289 557.6C196.289 557.6 195.514 564.737 196.971 566.39C198.427 568.044 200.671 567.256 203.072 568.66C205.473 570.064 214.683 567.834 214.683 567.834C214.683 567.834 216.257 562.94 214.84 560.67C213.423 558.4 211.796 554.53 210.668 552.588C209.54 550.646 205.197 554.976 205.197 554.976Z" fill="white" stroke="#263238" stroke-linecap="round" stroke-linejoin="round"/>
<path d="M205.197 554.976L203.635 559.883L200.657 562.507C200.657 562.507 201.405 565.367 202.979 565.131C204.554 564.895 210.497 564.987 210.497 564.987L212.308 561.051" stroke="#263238" stroke-linecap="round" stroke-linejoin="round"/>
<path d="M200.658 562.52L198.112 558.295" stroke="#263238" stroke-linecap="round" stroke-linejoin="round"/>
<path d="M115.115 473.921C115.115 473.921 107.623 478.775 108.948 481.425C110.273 484.076 111.152 485.834 112.477 486.673C113.803 487.513 117.725 488.878 119.037 487.985C120.349 487.093 123.446 484.902 123.879 481.425C124.312 477.949 125.65 477.489 124.325 475.692C123 473.894 115.115 473.921 115.115 473.921Z" fill="white" stroke="#263238" stroke-linecap="round" stroke-linejoin="round"/>
<path d="M108.896 481.425L114.144 484.955L118.552 484.509L120.31 479.654C120.31 478.958 120.033 478.291 119.541 477.799C119.049 477.307 118.382 477.03 117.686 477.03C116.258 476.971 114.857 477.438 113.75 478.342L114.642 480.966" stroke="#263238" stroke-linecap="round" stroke-linejoin="round"/>
<path d="M147.744 467.754C147.744 467.754 141.184 473.921 142.011 478.329C142.837 482.737 151.273 486.267 151.273 486.267L161.415 480.546L158.319 472.674L151.759 469.145L147.744 467.754Z" fill="white" stroke="#263238" stroke-linecap="round" stroke-linejoin="round"/>
<path d="M142.011 478.329L149.069 480.979L157.007 478.329L153.911 471.284" stroke="#263238" stroke-linecap="round" stroke-linejoin="round"/>
<path d="M147.744 467.754L147.298 477.017L152.598 478.775" stroke="#263238" stroke-linecap="round" stroke-linejoin="round"/>
<path d="M167.582 550.633C167.582 550.633 161.022 556.813 161.848 561.221C162.675 565.629 171.111 569.159 171.111 569.159L181.253 563.425L178.17 555.488L171.544 551.958L167.582 550.633Z" fill="white" stroke="#263238" stroke-linecap="round" stroke-linejoin="round"/>
<path d="M161.849 561.221L168.907 563.858L176.845 561.221L173.762 554.163" stroke="#263238" stroke-linecap="round" stroke-linejoin="round"/>
<path d="M167.582 550.633L167.136 559.896L172.436 561.667" stroke="#263238" stroke-linecap="round" stroke-linejoin="round"/>
<path d="M123.499 461.142C123.499 461.142 116.939 467.308 117.765 471.717C118.592 476.125 127.028 479.589 127.028 479.589L137.157 473.855L134.074 465.983L127.514 462.454L123.499 461.142Z" fill="white" stroke="#263238" stroke-linecap="round" stroke-linejoin="round"/>
<path d="M117.765 471.717L124.823 474.367L132.748 471.717L129.664 464.671" stroke="#263238" stroke-linecap="round" stroke-linejoin="round"/>
<path d="M123.499 461.142L123.053 470.405L128.34 472.163" stroke="#263238" stroke-linecap="round" stroke-linejoin="round"/>
<path d="M160.484 569.88H108.161L100.315 483.144H168.33L160.484 569.88Z" fill="#263238" stroke="#263238" stroke-linecap="round" stroke-linejoin="round"/>
<path d="M125.703 555.488C125.703 555.488 118.198 560.342 119.523 562.979C120.848 565.616 121.727 567.388 123.052 568.227C124.377 569.067 128.3 570.431 129.612 569.539C130.924 568.647 134.021 566.456 134.467 562.979C134.913 559.502 136.225 559.043 134.9 557.246C133.575 555.448 125.703 555.488 125.703 555.488Z" fill="white" stroke="#263238" stroke-linecap="round" stroke-linejoin="round"/>
<path d="M119.523 562.979L124.771 566.508L129.18 566.076L130.938 561.221C130.938 560.525 130.661 559.858 130.169 559.366C129.677 558.874 129.01 558.597 128.314 558.597C126.885 558.533 125.483 559 124.378 559.909L125.257 562.533" stroke="#263238" stroke-linecap="round" stroke-linejoin="round"/>
<path d="M264.42 310.052C264.514 310.645 264.423 311.254 264.161 311.794C263.898 312.335 263.476 312.782 262.952 313.076C262.427 313.369 261.825 313.495 261.227 313.436C260.629 313.376 260.064 313.135 259.607 312.745C259.15 312.354 258.824 311.833 258.673 311.251C258.521 310.669 258.552 310.055 258.761 309.491C258.969 308.928 259.346 308.441 259.839 308.098C260.332 307.755 260.919 307.571 261.52 307.572C262.233 307.521 262.936 307.753 263.479 308.217C264.021 308.681 264.359 309.34 264.42 310.052Z" fill="#808080" stroke="#263238" stroke-linecap="round" stroke-linejoin="round"/>
<path d="M267.215 317.609C267.309 318.203 267.218 318.811 266.956 319.352C266.693 319.892 266.271 320.34 265.747 320.633C265.222 320.926 264.62 321.052 264.022 320.993C263.424 320.934 262.859 320.692 262.402 320.302C261.945 319.911 261.619 319.39 261.468 318.808C261.316 318.226 261.347 317.612 261.556 317.049C261.764 316.485 262.14 315.999 262.634 315.655C263.127 315.312 263.714 315.129 264.315 315.129C265.027 315.078 265.731 315.31 266.274 315.774C266.816 316.238 267.154 316.898 267.215 317.609Z" fill="#808080" stroke="#263238" stroke-linecap="round" stroke-linejoin="round"/>
<path d="M269.996 325.166C270.09 325.76 269.999 326.368 269.737 326.909C269.475 327.449 269.053 327.897 268.528 328.19C268.004 328.484 267.402 328.609 266.804 328.55C266.205 328.491 265.64 328.249 265.183 327.859C264.726 327.468 264.4 326.947 264.249 326.365C264.098 325.784 264.128 325.169 264.337 324.606C264.545 324.042 264.922 323.556 265.415 323.213C265.909 322.869 266.495 322.686 267.096 322.686C267.809 322.636 268.512 322.867 269.055 323.331C269.598 323.795 269.936 324.455 269.996 325.166Z" fill="#808080" stroke="#263238" stroke-linecap="round" stroke-linejoin="round"/>
<path d="M272.791 332.723C272.885 333.316 272.795 333.924 272.533 334.464C272.271 335.005 271.85 335.452 271.326 335.746C270.802 336.039 270.201 336.166 269.603 336.107C269.006 336.049 268.44 335.809 267.983 335.42C267.526 335.031 267.199 334.511 267.046 333.93C266.893 333.349 266.922 332.736 267.128 332.172C267.335 331.608 267.709 331.121 268.201 330.776C268.692 330.431 269.278 330.246 269.878 330.244C270.592 330.193 271.297 330.424 271.842 330.888C272.387 331.351 272.727 332.011 272.791 332.723Z" fill="#808080" stroke="#263238" stroke-linecap="round" stroke-linejoin="round"/>
<path d="M233.483 369.538H213.619L210.628 336.594H236.474L233.483 369.538Z" fill="#263238" stroke="#263238" stroke-linecap="round" stroke-linejoin="round"/>
<path d="M235.49 347.431L212.661 359.055L213.619 369.538H224.246L234.558 357.691L235.49 347.431Z" fill="#B9CEC9" stroke="#263238" stroke-linecap="round" stroke-linejoin="round"/>
<path d="M238.77 332.658H208.332V339.821H238.77V332.658Z" fill="#B9CEC9" stroke="#263238" stroke-linecap="round" stroke-linejoin="round"/>
<path d="M292.287 369.984H256.535C255.92 370.017 255.304 369.925 254.725 369.712C254.146 369.499 253.617 369.17 253.169 368.746C252.721 368.322 252.365 367.811 252.121 367.245C251.878 366.678 251.752 366.068 251.752 365.451C251.752 364.834 251.878 364.224 252.121 363.658C252.365 363.091 252.721 362.58 253.169 362.156C253.617 361.732 254.146 361.403 254.725 361.191C255.304 360.978 255.92 360.885 256.535 360.918H292.287C292.903 360.885 293.519 360.978 294.098 361.191C294.677 361.403 295.206 361.732 295.654 362.156C296.101 362.58 296.458 363.091 296.702 363.658C296.945 364.224 297.071 364.834 297.071 365.451C297.071 366.068 296.945 366.678 296.702 367.245C296.458 367.811 296.101 368.322 295.654 368.746C295.206 369.17 294.677 369.499 294.098 369.712C293.519 369.925 292.903 370.017 292.287 369.984Z" fill="#263238" stroke="#263238" stroke-linecap="round" stroke-linejoin="round"/>
<path d="M387.38 370.023H277.317L251.063 298.572H361.127L387.38 370.023Z" fill="#263238" stroke="#263238" stroke-linecap="round" stroke-linejoin="round"/>
<path d="M380.401 362.597H286.409L264 301.589H357.979L380.401 362.597Z" fill="#808080" stroke="#263238" stroke-linecap="round" stroke-linejoin="round"/>
<path d="M398.848 395.542C396.295 399.296 393.406 402.809 390.215 406.038C380.141 415.139 371.479 425.69 364.512 437.342C354.646 454.07 347.771 471.165 341.238 485.965C334.704 500.764 322.87 528.08 316.953 536.398C311.035 544.716 307.034 549.164 307.034 549.164C307.034 549.164 297.259 549.387 285.688 548.363C274.116 547.34 269.327 545.254 269.183 548.272C269.038 551.289 277.055 559.568 282.749 561.011C288.443 562.454 295.869 564.659 297.601 566.377C299.332 568.096 301.537 570.064 304.449 568.804C307.362 567.545 316.034 555.409 325.73 547.051C335.425 538.694 346.997 530.415 357.467 510.932C367.937 491.449 368.488 480.31 375.835 472.989C383.182 465.668 390.923 454.188 400.291 448.14C409.658 442.091 437.617 430.887 446.552 419.276C455.487 407.665 450.829 393.456 442.235 388.378C433.642 383.301 405.591 381.464 398.848 395.542Z" fill="#263238" stroke="#263238" stroke-linecap="round" stroke-linejoin="round"/>
<path d="M323.879 524.118C321.86 528.37 319.549 532.477 316.965 536.411C310.982 544.716 307.046 549.177 307.046 549.177C307.046 549.177 297.272 549.4 285.7 548.377C274.128 547.353 269.34 545.267 269.195 548.285C269.051 551.302 277.067 559.581 282.761 561.024C288.455 562.468 295.881 564.672 297.613 566.39C299.345 568.109 301.549 570.077 304.462 568.818C307.374 567.558 316.047 555.422 325.742 547.065C330.256 543.129 335.176 539.285 340.174 534.299C333.815 532.686 328.118 529.126 323.879 524.118Z" fill="white" stroke="#263238" stroke-linecap="round" stroke-linejoin="round"/>
<path d="M304.462 568.818C306.028 567.77 307.422 566.487 308.595 565.013C300.723 563.452 296.708 559.502 293.113 558.453C289.831 557.485 286.694 556.082 283.785 554.281L287.721 548.495L285.727 548.324C274.155 547.301 269.366 545.215 269.222 548.232C269.077 551.25 277.094 559.529 282.788 560.972C288.482 562.415 295.908 564.619 297.64 566.338C299.371 568.057 301.615 570.077 304.462 568.818Z" fill="#B9CEC9" stroke="#263238" stroke-linecap="round" stroke-linejoin="round"/>
<path d="M318.067 432.488C319.596 439.064 321.853 445.449 324.798 451.525C329.442 460.814 339.663 470.562 347.102 476.138C354.541 481.714 378.446 503.073 390.293 520.024C391.776 522.15 386.108 529.313 379.141 535.585C372.174 541.856 369.157 544.178 372.87 545.333C376.583 546.487 385.412 546.028 394.242 538.602C403.072 531.176 408.871 526.296 411.652 520.234C413.043 517.217 405.381 513.491 400.736 509.555C396.092 505.619 378.905 479.602 373.565 467.571C368.225 455.54 354.764 438.313 344.78 432.278" fill="#263238"/>
<path d="M318.067 432.488C319.596 439.064 321.853 445.449 324.798 451.525C329.442 460.814 339.663 470.562 347.102 476.138C354.541 481.714 378.446 503.073 390.293 520.024C391.776 522.15 386.108 529.313 379.141 535.585C372.174 541.856 369.157 544.178 372.87 545.333C376.583 546.487 385.412 546.028 394.242 538.602C403.072 531.176 408.871 526.296 411.652 520.234C413.043 517.217 405.381 513.491 400.736 509.555C396.092 505.619 378.905 479.602 373.565 467.571C368.225 455.54 354.764 438.313 344.78 432.278" stroke="#263238" stroke-linecap="round" stroke-linejoin="round"/>
<path d="M411.64 520.261C413.03 517.243 405.368 513.517 400.724 509.581C396.788 506.261 384.048 487.342 376.911 474.236L361.167 488.195C370.994 497.287 382.999 509.502 390.346 520.024C391.828 522.15 386.161 529.313 379.194 535.585C372.227 541.856 369.21 544.178 372.923 545.333C376.635 546.487 385.465 546.028 394.295 538.602C403.125 531.176 408.858 526.296 411.64 520.261Z" fill="white" stroke="#263238" stroke-linecap="round" stroke-linejoin="round"/>
<path d="M406.864 514.094C405.618 515.957 403.991 518.489 402.115 521.651C397.706 529.077 385.636 538.602 384.009 536.975C383.03 535.869 382.209 534.633 381.569 533.302C380.782 534.063 379.968 534.837 379.128 535.585C372.162 541.856 369.144 544.178 372.857 545.333C376.57 546.487 385.4 546.028 394.23 538.602C403.059 531.176 408.858 526.296 411.64 520.234C412.479 518.424 409.987 516.338 406.864 514.094Z" fill="#B9CEC9" stroke="#263238" stroke-linecap="round" stroke-linejoin="round"/>
<path d="M469.919 535.349H390.976V539.062H469.919V535.349Z" fill="white" stroke="#263238" stroke-linecap="round" stroke-linejoin="round"/>
<path d="M398.165 435.741L384.415 567.807C384.401 567.955 384.417 568.105 384.464 568.246C384.511 568.388 384.587 568.518 384.687 568.628C384.787 568.738 384.909 568.825 385.046 568.885C385.182 568.945 385.329 568.976 385.478 568.975C385.732 568.975 385.978 568.883 386.171 568.717C386.363 568.551 386.49 568.321 386.528 568.07L407.06 435.741H398.165Z" fill="white" stroke="#263238" stroke-linecap="round" stroke-linejoin="round"/>
<path d="M461.324 435.741L475.14 567.807C475.157 567.955 475.142 568.104 475.097 568.245C475.051 568.387 474.977 568.517 474.878 568.627C474.778 568.738 474.657 568.826 474.521 568.886C474.386 568.946 474.239 568.976 474.09 568.975C473.835 568.978 473.588 568.887 473.395 568.72C473.202 568.554 473.076 568.322 473.041 568.07L452.508 435.741H461.324Z" fill="white" stroke="#263238" stroke-linecap="round" stroke-linejoin="round"/>
<path d="M436.253 435.741L436.895 567.912C436.892 568.193 436.779 568.461 436.58 568.66C436.382 568.859 436.113 568.972 435.833 568.975C435.561 568.975 435.3 568.87 435.104 568.682C434.908 568.493 434.793 568.236 434.783 567.965L427.396 435.741H436.253Z" fill="white" stroke="#263238" stroke-linecap="round" stroke-linejoin="round"/>
<path d="M465.72 415.773H392.615C389.014 415.773 386.095 418.692 386.095 422.293V430.612C386.095 434.213 389.014 437.132 392.615 437.132H465.72C469.321 437.132 472.241 434.213 472.241 430.612V422.293C472.241 418.692 469.321 415.773 465.72 415.773Z" fill="#B9CEC9"/>
<path opacity="0.2" d="M465.759 415.773H394.281L392.156 420.234C392.156 420.234 458.123 421.388 458.123 425.193C458.123 428.998 459.265 433.97 446.315 433.97C435.819 433.97 400.592 434.469 387.551 434.653C388.072 435.306 388.713 435.854 389.44 436.266L393.271 437.132H465.759C467.499 437.132 469.167 436.441 470.398 435.211C471.628 433.981 472.319 432.312 472.319 430.572V422.254C472.298 420.528 471.598 418.88 470.37 417.666C469.142 416.453 467.485 415.773 465.759 415.773Z" fill="black"/>
<path d="M465.72 415.773H392.615C389.014 415.773 386.095 418.692 386.095 422.293V430.612C386.095 434.213 389.014 437.132 392.615 437.132H465.72C469.321 437.132 472.241 434.213 472.241 430.612V422.293C472.241 418.692 469.321 415.773 465.72 415.773Z" stroke="#263238" stroke-linecap="round" stroke-linejoin="round"/>
<path d="M319.917 440.832C318.29 435.492 311.56 424.812 343.835 402.522C360.891 390.714 397.942 381.621 397.942 381.621L401.419 377.685C401.419 377.685 411.403 388.181 430.913 387.447C450.422 386.712 462.492 378.158 464.815 378.853C467.137 379.548 467.36 385.584 466.441 396.959C465.523 408.334 464.342 414.146 455.29 416.927C446.237 419.709 426.268 420.64 411.875 420.417C404.736 420.397 397.602 420.007 390.503 419.25C390.503 419.25 359.632 438.759 340.358 440.15" fill="#263238"/>
<path d="M319.917 440.832C318.29 435.492 311.56 424.812 343.835 402.522C360.891 390.714 397.942 381.621 397.942 381.621L401.419 377.685C401.419 377.685 411.403 388.181 430.913 387.447C450.422 386.712 462.492 378.158 464.815 378.853C467.137 379.548 467.36 385.584 466.442 396.959C465.523 408.334 464.342 414.146 455.29 416.927C446.237 419.709 426.268 420.64 411.875 420.417C404.736 420.397 397.602 420.007 390.503 419.25C390.503 419.25 359.632 438.759 340.358 440.15" stroke="#263238" stroke-linecap="round" stroke-linejoin="round"/>
<path d="M391.435 312.912C390.031 313.345 347.548 321.729 343.835 321.033C340.123 320.338 330.374 311.98 326.884 312.203C323.394 312.427 316.388 313.607 315.746 315.457C315.103 317.307 317.372 323.592 317.372 323.592C317.372 323.592 315.05 327.068 316.205 328.695C317.359 330.322 324.077 326.373 324.077 326.373C324.077 326.373 331.739 331.949 335.216 330.781C338.692 329.614 342.418 328.236 342.418 328.236C342.418 328.236 396.985 331.477 397.68 331.713C398.375 331.949 405.106 333.34 405.801 323.592C406.497 313.843 399.569 310.354 391.435 312.912Z" fill="white" stroke="#263238" stroke-linecap="round" stroke-linejoin="round"/>
<path d="M317.372 323.592L326.884 315.693" stroke="#263238" stroke-linecap="round" stroke-linejoin="round"/>
<path d="M320.85 320.102L325.953 304.082L328.052 304.541L325.494 316.153L320.85 320.102Z" fill="#263238"/>
<path d="M358.176 329.863C358.176 329.863 301.76 345.41 292.707 344.295C283.654 343.18 280.899 339.178 278.774 339.178C276.648 339.178 270.902 341.973 268.278 341.737C265.654 341.5 262.715 340.805 262.715 342.432C262.715 344.059 265.037 346.617 266.428 346.617C267.818 346.617 273.394 346.381 273.394 346.381C273.394 346.381 262.479 349.635 262.006 351.721C261.906 352.21 261.905 352.715 262.005 353.204C262.104 353.694 262.301 354.158 262.584 354.57C262.867 354.981 263.23 355.332 263.652 355.6C264.073 355.868 264.544 356.048 265.037 356.129C266.147 356.33 267.186 356.814 268.055 357.533C268.525 359.357 269.311 361.084 270.377 362.637C271.768 364.264 275.94 364.959 280.584 364.028C285.229 363.096 293.363 358.924 295.213 357.756C297.063 356.589 353.492 351.485 357.677 350.566C361.863 349.648 366.966 349.635 368.593 346.84C370.22 344.046 358.176 329.863 358.176 329.863Z" fill="white"/>
<path d="M289.951 355.552C280.255 355.552 282.407 345.856 279.18 347.483C276.359 348.887 265.351 350.291 262.229 353.846C262.48 354.433 262.871 354.95 263.367 355.353C263.863 355.755 264.449 356.031 265.076 356.156C266.185 356.356 267.225 356.84 268.093 357.559C268.564 359.383 269.35 361.11 270.415 362.663C271.806 364.29 275.978 364.985 280.623 364.054C285.267 363.122 293.402 358.95 295.252 357.782C297.101 356.615 353.531 351.511 357.716 350.593C361.088 349.832 365.076 349.687 367.333 348.192L368.645 346.88L362.649 341.028C362.649 341.028 299.686 355.552 289.951 355.552Z" fill="#B9CEC9"/>
<path opacity="0.5" d="M289.951 355.552C280.255 355.552 282.407 345.856 279.18 347.483C276.359 348.887 265.351 350.291 262.229 353.846C262.48 354.433 262.871 354.95 263.367 355.353C263.863 355.755 264.449 356.031 265.076 356.156C266.185 356.356 267.225 356.84 268.093 357.559C268.564 359.383 269.35 361.11 270.415 362.663C271.806 364.29 275.978 364.985 280.623 364.054C285.267 363.122 293.402 358.95 295.252 357.782C297.101 356.615 353.531 351.511 357.716 350.593C361.088 349.832 365.076 349.687 367.333 348.192L368.645 346.88L362.649 341.028C362.649 341.028 299.686 355.552 289.951 355.552Z" fill="white"/>
<path d="M358.176 329.863C358.176 329.863 301.76 345.41 292.707 344.295C283.654 343.18 280.899 339.178 278.774 339.178C276.648 339.178 270.902 341.973 268.278 341.737C265.654 341.5 262.715 340.805 262.715 342.432C262.715 344.059 265.037 346.617 266.428 346.617C267.818 346.617 273.394 346.381 273.394 346.381C273.394 346.381 262.479 349.635 262.006 351.721C261.906 352.21 261.905 352.715 262.005 353.204C262.104 353.694 262.301 354.158 262.584 354.57C262.867 354.981 263.23 355.332 263.652 355.6C264.073 355.868 264.544 356.048 265.037 356.129C266.147 356.33 267.186 356.814 268.055 357.533C268.525 359.357 269.311 361.084 270.377 362.637C271.768 364.264 275.94 364.959 280.584 364.028C285.229 363.096 293.363 358.924 295.213 357.756C297.063 356.589 353.492 351.485 357.677 350.566C361.863 349.648 366.966 349.635 368.593 346.84C370.22 344.046 358.176 329.863 358.176 329.863Z" stroke="#263238" stroke-linecap="round" stroke-linejoin="round"/>
<path d="M405.827 272.975C405.827 272.975 400.723 286.895 394.229 296.184C387.735 305.473 384.94 315.234 389.112 325.678C390.223 328.667 391.988 331.369 394.279 333.587C396.569 335.805 399.327 337.482 402.35 338.496C402.35 338.496 399.096 369.144 400.028 377.279C400.959 385.413 413.489 394.925 432.303 395.647C451.117 396.368 467.36 389.612 467.36 383.104C467.36 376.597 454.135 342.012 454.135 334.809C454.135 327.606 455.289 305.093 449.018 284.953C442.747 264.814 420.692 258.11 405.827 272.975Z" fill="#B9CEC9"/>
<path opacity="0.2" d="M449.018 284.809C445.647 273.933 437.683 267.031 428.735 265.3C424.418 266.257 412.624 269.013 409.685 269.708C408.31 270.688 407.02 271.78 405.827 272.975C405.827 272.975 400.724 286.895 394.229 296.184C389.86 302.416 387.184 308.858 387.145 315.562C404.279 319.616 430.441 326.216 427.817 326.95C424.051 328.026 407.9 319.406 412.742 324.799C417.583 330.191 443.442 354.975 435.898 352.797C428.354 350.619 411.666 332.868 415.982 341.487C420.299 350.107 432.133 364.106 428.368 364.106C424.602 364.106 404.673 344.177 411.666 356.024C418.659 367.872 450.435 386.725 440.202 389.415C434.298 390.963 421.768 390.556 414.5 391.776C420.143 394.119 426.169 395.404 432.277 395.568C451.078 396.263 467.334 389.533 467.334 383.025C467.334 376.518 454.109 341.933 454.109 334.731C454.109 327.528 455.264 305.014 449.018 284.809Z" fill="black"/>
<path d="M405.827 272.975C405.827 272.975 400.723 286.895 394.229 296.184C387.735 305.473 384.94 315.234 389.112 325.678C390.223 328.667 391.988 331.369 394.279 333.587C396.569 335.805 399.327 337.482 402.35 338.496C402.35 338.496 399.096 369.144 400.028 377.279C400.959 385.413 413.489 394.925 432.303 395.647C451.117 396.368 467.36 389.612 467.36 383.104C467.36 376.597 454.135 342.012 454.135 334.809C454.135 327.606 455.289 305.093 449.018 284.953C442.747 264.814 420.692 258.11 405.827 272.975Z" stroke="#263238" stroke-linecap="round" stroke-linejoin="round"/>
<path d="M408.688 329.312C408.688 329.312 425.743 356.864 450.671 364.736" stroke="#263238" stroke-linecap="round" stroke-linejoin="round"/>
<path d="M406.72 333.904C406.72 333.904 413.28 355.552 430.336 366.048" stroke="#263238" stroke-linecap="round" stroke-linejoin="round"/>
<path d="M410.235 316.559C410.235 316.559 425.651 309.842 431.975 305.499" stroke="#263238" stroke-linecap="round" stroke-linejoin="round"/>
<path d="M403.912 318.147C403.912 318.147 409.449 319.328 423.671 318.147" stroke="#263238" stroke-linecap="round" stroke-linejoin="round"/>
<path d="M404.437 276.452C400.857 278.734 397.581 281.463 394.689 284.573C389.349 290.149 363.568 329.181 363.568 329.181C363.568 329.181 371.23 345.213 373.553 345.673C375.875 346.132 416.285 311.561 419.997 307.362C423.71 303.164 426.033 295.554 424.878 292.261" fill="#B9CEC9"/>
<path opacity="0.2" d="M419.997 307.336C423.71 303.151 426.033 295.528 424.878 292.235L415.694 285.15L412.755 288.181C412.755 288.181 412.558 300.068 401.984 306.483C391.409 312.899 386.909 312.951 385.295 321.02C383.681 329.089 389.061 331.254 382.605 332.33C376.15 333.406 371.834 333.943 371.834 338.26C371.876 340.397 372.038 342.53 372.319 344.649C372.626 345.088 373.049 345.433 373.54 345.646C375.875 346.106 416.284 311.508 419.997 307.336Z" fill="black"/>
<path d="M404.437 276.452C400.857 278.734 397.581 281.463 394.689 284.573C389.349 290.149 363.568 329.181 363.568 329.181C363.568 329.181 371.23 345.213 373.553 345.673C375.875 346.132 416.285 311.561 419.997 307.362C423.71 303.164 426.033 295.554 424.878 292.261" stroke="#263238" stroke-linecap="round" stroke-linejoin="round"/>
<path d="M354.751 331.477C354.751 331.477 361.954 348.664 363.568 350.527C365.182 352.39 373.788 351.222 376.57 349.123C379.351 347.024 378.892 342.865 378.892 342.865C378.892 342.865 368.212 324.051 367.084 323.185C365.956 322.319 365.457 324.353 360.524 325.98C355.591 327.606 353.82 328.236 354.751 331.477Z" fill="white" stroke="#263238" stroke-linecap="round" stroke-linejoin="round"/>
<path d="M366.362 229.088C366.362 229.088 365.89 235.819 367.057 237.905C368.225 239.991 371.466 242.09 371.466 244.872C371.466 247.653 369.144 251.432 369.839 253.465C370.534 255.499 374.26 255.788 374.26 255.788C374.26 255.788 381.214 264.381 383.313 267.399C385.412 270.416 386.331 269.249 389.584 268.33C392.838 267.412 399.792 261.364 403.741 256.719C407.69 252.075 401.117 237.905 392.602 228.393C384.087 218.881 371.23 219.104 368.448 221.833C365.667 224.562 366.362 229.088 366.362 229.088Z" fill="white"/>
<path d="M384.769 222.581C383.693 227.829 382.618 236.842 385.845 242.943C390.699 252.127 394.465 256.942 391.775 264.486C391.29 265.798 390.791 267.005 390.306 268.055C393.77 266.572 400.067 261.036 403.741 256.719C407.677 252.075 401.117 237.905 392.602 228.393C390.405 225.952 387.742 223.976 384.769 222.581Z" fill="#B9CEC9"/>
<path opacity="0.5" d="M384.769 222.581C383.693 227.829 382.618 236.842 385.845 242.943C390.699 252.127 394.465 256.942 391.775 264.486C391.29 265.798 390.791 267.005 390.306 268.055C393.77 266.572 400.067 261.036 403.741 256.719C407.677 252.075 401.117 237.905 392.602 228.393C390.405 225.952 387.742 223.976 384.769 222.581Z" fill="white"/>
<path d="M371.466 239.073C371.466 239.073 371.466 235.583 375.651 237.905" stroke="#263238" stroke-linecap="round" stroke-linejoin="round"/>
<path d="M374.444 242.3L374.995 245.515C374.995 245.515 377.541 246.394 379.417 243.074" stroke="#263238" stroke-linecap="round" stroke-linejoin="round"/>
<path d="M366.362 229.088C366.362 229.088 365.89 235.819 367.057 237.905C368.225 239.991 371.466 242.09 371.466 244.872C371.466 247.653 369.144 251.432 369.839 253.465C370.534 255.499 374.26 255.788 374.26 255.788C374.26 255.788 381.214 264.381 383.313 267.399C385.412 270.416 386.331 269.249 389.584 268.33C392.838 267.412 399.792 261.364 403.741 256.719C407.69 252.075 401.117 237.905 392.602 228.393C384.087 218.881 371.23 219.104 368.448 221.833C365.667 224.562 366.362 229.088 366.362 229.088Z" stroke="#263238" stroke-linecap="round" stroke-linejoin="round"/>
<path d="M359.159 218.868V219.799L358.739 231.174L371.269 232.801L374.063 227.921V233.261C377.929 232.937 381.818 233.493 385.438 234.887C391.474 237.21 399.136 253.701 398.677 260.432C398.217 267.163 392.405 268.553 393.101 278.8C393.796 289.047 409.343 299.202 421.151 292.707C432.959 286.213 434.862 277.842 439.729 279.469C444.597 281.096 452.036 291.08 456.68 276.911C461.325 262.741 459.238 253.701 448.323 242.09C437.407 230.479 428.826 231.411 427.422 222.122C426.019 212.833 423.014 200.29 412.99 193.258C402.967 186.225 388.614 185.832 376.254 191.172C363.895 196.511 359.159 212.833 359.159 218.868Z" fill="#C2B997"/>
<path d="M366.14 224.195C366.057 224.207 365.973 224.207 365.89 224.195C364.578 223.893 364.369 221.571 364.237 215.929C364.237 214.459 364.172 212.951 364.08 211.744C364.08 211.626 364.08 211.521 364.08 211.442C362.965 212.754 360.603 218.33 358.832 223.25L357.599 222.804C362.348 209.579 363.896 209.776 364.395 209.854C365.3 209.972 365.392 211.166 365.431 211.612C365.523 212.846 365.562 214.381 365.589 215.85C365.589 218.186 365.733 222.017 366.218 222.817C366.853 222.164 367.352 221.393 367.688 220.547C369 217.818 370.312 216.611 371.519 216.611C373.067 216.611 373.881 218.737 374.458 220.245C374.597 220.618 374.76 220.982 374.943 221.334C375.521 221.492 377.567 219.406 378.656 218.277L379.614 217.307C379.834 217.02 380.116 216.786 380.438 216.622C380.761 216.459 381.116 216.37 381.477 216.362C382.212 216.48 382.566 217.162 382.946 217.871C383.294 218.637 383.799 219.321 384.429 219.878C384.849 220.206 385.059 220.154 385.151 220.14C386.095 219.904 387.237 217.359 388.562 214.42C388.864 213.725 389.192 213.003 389.546 212.242C389.9 211.481 390.569 210.209 391.54 210.3C392.76 210.392 393.324 212.308 394.164 215.207C394.677 217.522 395.563 219.738 396.788 221.767C397.09 222.135 397.497 222.555 397.877 222.515C398.9 222.345 400.029 219.314 400.711 217.503C401.013 216.599 401.39 215.721 401.839 214.879C401.939 214.668 402.097 214.489 402.294 214.363C402.491 214.238 402.721 214.171 402.954 214.171C403.925 214.171 404.594 215.483 405.5 217.267C406.182 218.579 407.114 220.429 407.888 220.731C408.045 220.796 408.097 220.731 408.137 220.731C408.649 220.468 409.081 218.776 409.449 217.425C409.758 215.904 410.298 214.44 411.049 213.082C411.243 212.763 411.503 212.49 411.81 212.28C412.118 212.069 412.467 211.927 412.834 211.862C414.553 211.586 416.468 213.069 417.741 214.066C417.675 213.397 417.531 212.478 417.413 211.678C416.757 207.309 416.573 205.197 417.662 204.593C418.174 204.318 418.777 204.475 419.459 205.079C420.64 206.195 421.761 207.373 422.818 208.608C425.219 211.311 428.866 215.378 430.336 214.984C430.743 214.879 430.966 214.25 431.071 213.751L432.383 214.013C432.107 215.325 431.543 216.034 430.703 216.257C428.591 216.808 425.718 213.803 421.86 209.487C420.814 208.259 419.702 207.09 418.528 205.984C418.433 205.893 418.327 205.813 418.213 205.748C418.122 207.643 418.268 209.543 418.646 211.403C419.118 214.486 419.21 215.339 418.646 215.693C418.515 215.779 418.363 215.824 418.206 215.824C418.05 215.824 417.898 215.779 417.767 215.693C417.544 215.535 417.255 215.325 416.94 215.063C415.904 214.263 414.172 212.938 413.004 213.108C412.816 213.143 412.637 213.218 412.48 213.329C412.324 213.44 412.194 213.584 412.099 213.751C411.438 214.987 410.961 216.313 410.682 217.687C410.17 219.629 409.738 221.308 408.701 221.833C408.496 221.929 408.272 221.979 408.045 221.979C407.818 221.979 407.594 221.929 407.389 221.833C406.156 221.347 405.224 219.511 404.319 217.753C403.961 216.936 403.521 216.158 403.007 215.43C402.6 216.219 402.258 217.04 401.984 217.884C401.013 220.508 399.911 223.447 398.113 223.722C397.652 223.752 397.191 223.653 396.783 223.435C396.375 223.217 396.036 222.889 395.804 222.489C394.467 220.345 393.505 217.989 392.957 215.522C392.668 214.14 392.163 212.812 391.461 211.586C391.199 211.956 390.975 212.352 390.792 212.767C390.438 213.515 390.11 214.25 389.808 214.932C388.168 218.592 387.079 221.006 385.505 221.387C385.178 221.453 384.84 221.441 384.519 221.352C384.197 221.263 383.902 221.1 383.655 220.875C382.886 220.209 382.269 219.386 381.844 218.461C381.709 218.162 381.533 217.884 381.32 217.635C381.32 217.635 381.11 217.635 380.598 218.199L379.653 219.17C377.475 221.4 376.085 222.738 374.891 222.646C374.692 222.627 374.499 222.563 374.329 222.459C374.158 222.354 374.014 222.212 373.907 222.043C373.66 221.626 373.453 221.187 373.29 220.731C372.923 219.76 372.214 217.963 371.506 217.936C371.296 217.936 370.417 218.133 368.882 221.138C367.754 223.276 366.953 224.195 366.14 224.195Z" fill="#575757"/>
<path d="M392.288 276.911C392.288 276.911 395.542 264.801 398.848 268.645C402.154 272.489 404.45 273.67 404.752 270.416C405.054 267.163 404.752 262.439 408.006 266.874C411.26 271.308 419.223 275.73 419.814 268.934C420.404 262.138 421.296 252.98 425.141 257.716C428.985 262.452 432.225 265.982 432.527 263.318C432.829 260.655 435.479 258.595 436.66 261.547C437.841 264.499 438.733 267.464 439.612 260.668C440.491 253.872 436.358 246.485 440.793 248.257C445.227 250.028 447.353 255.932 447.353 252.691C447.353 249.451 442.026 245.593 446.762 246.774C451.499 247.955 452.076 250.92 452.666 249.149C453.257 247.378 450.042 243.232 454.149 243.232" stroke="#575757" stroke-miterlimit="10"/>
<path d="M359.159 218.868V219.799L358.739 231.174L371.269 232.801L374.063 227.921V233.261C377.929 232.937 381.818 233.493 385.438 234.887C391.474 237.21 399.136 253.701 398.677 260.432C398.217 267.163 392.405 268.553 393.101 278.8C393.796 289.047 409.343 299.202 421.151 292.707C432.959 286.213 434.862 277.842 439.729 279.469C444.597 281.096 452.036 291.08 456.68 276.911C461.325 262.741 459.238 253.701 448.323 242.09C437.407 230.479 428.826 231.411 427.422 222.122C426.019 212.833 423.014 200.29 412.99 193.258C402.967 186.225 388.614 185.832 376.254 191.172C363.895 196.511 359.159 212.833 359.159 218.868Z" stroke="#263238" stroke-linecap="round" stroke-linejoin="round"/>
<path d="M88.2061 569.88H568.319" stroke="#263238" stroke-miterlimit="10"/>
</svg>
