<svg width="1867" height="404" viewBox="0 0 1867 404" fill="none" xmlns="http://www.w3.org/2000/svg">
<path fill-rule="evenodd" clip-rule="evenodd" d="M1852.95 403.876L1776.2 390.051C1699.47 375.475 1546 347.073 1392.74 313.417C1239.49 279.761 1086.47 240.849 931.827 239.473C777.157 238.848 620.906 275.007 465.559 290.147C310.212 305.286 155.799 298.655 78.5926 295.34L1.38635 292.024L13.9268 -5.37418e-05L91.1331 3.31543C168.339 6.63091 322.752 13.2619 477.165 19.8928C631.577 26.5238 785.99 33.1548 940.402 39.7857C1094.81 46.4167 1249.23 53.0477 1403.64 59.6786C1558.05 66.3096 1712.47 72.9405 1789.67 76.256L1866.88 79.5715L1852.95 403.876Z" fill="url(#paint0_linear)"/>
<defs>
<linearGradient id="paint0_linear" x1="177.295" y1="152.83" x2="1592.01" y2="218.655" gradientUnits="userSpaceOnUse">
<stop stop-color="#FFFAFA"/>
<stop offset="1" stop-color="#E3DCD6"/>
</linearGradient>
</defs>
</svg>
