<svg width="1577" height="204" viewBox="0 0 1577 204" fill="none" xmlns="http://www.w3.org/2000/svg">
<path fill-rule="evenodd" clip-rule="evenodd" d="M0.233398 70.8349L65.856 79.7679C131.479 89.339 276.331 79.9785 407.355 60.1415C579.232 34.1196 665.702 5.85855 796.947 1.39204C928.192 -3.71254 1051.49 18.8296 1181.68 43.3046C1319.41 69.1973 1443.93 98.2721 1509.55 98.2721H1576.84V161.822L1494.46 163.986C1428.83 163.986 1296.32 172.638 1165.07 172.638C1033.83 172.638 911.448 182.747 780.203 182.747C648.958 182.747 515.585 193.144 384.34 193.144C253.094 193.144 134.674 201.426 69.0514 201.426L3.70855 203.142L0.233398 70.8349Z" fill="white"/>
</svg>
