<svg width="1582" height="244" viewBox="0 0 1582 244" fill="none" xmlns="http://www.w3.org/2000/svg">
<path fill-rule="evenodd" clip-rule="evenodd" d="M3.47393 70.1472L68.8394 80.8002C134.188 92.091 279.236 86.537 410.736 70.1472C583.236 48.6472 670.419 22.6663 801.736 21.6474C933.07 19.9906 1055.74 45.7624 1185.24 73.6473C1322.24 103.147 1445.95 135.482 1511.55 137.205L1577.15 138.928L1577.15 202.5L1494.74 202.5C1429.14 200.777 1296.44 205.946 1165.24 202.5C1034.04 199.054 911.436 205.946 780.236 202.5C649.036 199.054 515.436 205.946 384.236 202.5C253.036 199.054 134.439 204.223 68.8393 202.5L3.47393 202.5L3.47393 70.1472Z" fill="url(#paint0_linear)"/>
<defs>
<linearGradient id="paint0_linear" x1="1579.43" y1="115.863" x2="5.39065" y2="31.4929" gradientUnits="userSpaceOnUse">
<stop stop-color="#FFFAFA"/>
<stop offset="1" stop-color="#E3DCD6"/>
</linearGradient>
</defs>
</svg>
