<?xml version="1.0" encoding="utf-8"?>
<!-- Generator: Adobe Illustrator 25.0.1, SVG Export Plug-In . SVG Version: 6.00 Build 0)  -->
<svg version="1.1" id="Layer_1" xmlns="http://www.w3.org/2000/svg" xmlns:xlink="http://www.w3.org/1999/xlink" x="0px" y="0px"
	 viewBox="0 0 1440 817" style="enable-background:new 0 0 1440 817;" xml:space="preserve">
<style type="text/css">
	.st0{fill:url(#SVGID_1_);}
	.st1{fill-rule:evenodd;clip-rule:evenodd;fill:url(#SVGID_2_);}
</style>
<linearGradient id="SVGID_1_" gradientUnits="userSpaceOnUse" x1="1520.3534" y1="1294.7498" x2="80.8419" y2="1302.0349" gradientTransform="matrix(1 0 0 -1 0 817.8898)">
	<stop  offset="0" style="stop-color:#FFFAFA"/>
	<stop  offset="1" style="stop-color:#E3DCD6"/>
</linearGradient>
<path class="st0" d="M81.2-793.2h1439.5l63.5,633l-190.4-55l-328.4-60.2l-333.9-33.5l-415.4-16.8L-8.8-372.8L81.2-793.2z"/>
<linearGradient id="SVGID_2_" gradientUnits="userSpaceOnUse" x1="1596.6354" y1="1569.6497" x2="35.616" y2="1626.8699" gradientTransform="matrix(1 0 0 -1 0 817.8898)">
	<stop  offset="0" style="stop-color:#FFFAFA"/>
	<stop  offset="1" style="stop-color:#E3DCD6"/>
</linearGradient>
<path class="st1" d="M50.3-907.1l51.5,10.7c65.3,11.3,210.4,5.7,341.9-10.7c172.5-21.5,259.7-47.5,391-48.5
	c131.3-1.7,254,24.1,383.5,52c137,29.5,260.7,61.8,326.3,63.6l53.4,1.7l5.7,248.1l-65.6-1.7c-65.6-1.7-196.8-5.2-328-8.6
	s-262.4-6.9-393.6-10.3s-262.4-6.9-393.6-10.3c-131.2-3.4-262.4-6.9-328-8.6l-47.7-4.4L50.3-907.1z"/>
</svg>
