<svg width="1583" height="244" viewBox="0 0 1583 244" fill="none" xmlns="http://www.w3.org/2000/svg">
<path fill-rule="evenodd" clip-rule="evenodd" d="M4.23761 70.1473L69.603 80.8003C134.952 92.0911 280 86.5371 411.5 70.1473C584 48.6472 671.183 22.6663 802.5 21.6474C933.834 19.9907 1056.5 45.7625 1186 73.6474C1323 103.147 1446.72 135.482 1512.32 137.205L1577.92 137.205L1577.92 202.5L1495.5 202.5C1429.9 200.777 1297.2 205.946 1166 202.5C1034.8 199.054 912.2 205.946 781 202.5C649.8 199.054 516.2 205.946 385 202.5C253.8 199.054 135.203 204.223 69.603 202.5L4.23761 202.5L4.23761 70.1473Z" fill="white"/>
</svg>
