<svg width="1577" height="203" viewBox="0 0 1577 203" fill="none" xmlns="http://www.w3.org/2000/svg">
<path fill-rule="evenodd" clip-rule="evenodd" d="M0 70.1714L65.6226 79.1044C131.245 88.6755 276.098 79.315 407.122 59.478C578.998 33.4561 665.468 5.19504 796.714 0.728527C927.959 -4.37606 1051.26 18.1661 1181.45 42.6411C1319.17 68.5337 1443.7 97.6085 1509.32 97.6085H1576.61V161.159L1494.22 163.323C1428.6 163.323 1296.08 171.974 1164.84 171.974C1033.59 171.974 911.215 182.083 779.97 182.083C648.725 182.083 515.351 192.481 384.106 192.481C252.861 192.481 134.441 200.762 68.818 200.762L3.47515 202.478L0 70.1714Z" fill="url(#paint0_linear)"/>
<defs>
<linearGradient id="paint0_linear" x1="1576.61" y1="74.4921" x2="0.901117" y2="31.4801" gradientUnits="userSpaceOnUse">
<stop stop-color="#FFFAFA"/>
<stop offset="1" stop-color="#E3DCD6"/>
</linearGradient>
</defs>
</svg>
