<svg width="545" height="330" fill="none" xmlns="http://www.w3.org/2000/svg"><g clip-path="url(#clip0)" fill="#B9CEC9"><path d="M538.687 18.79c-4.247-4.771-9.403-7.19-15.322-7.19-5.321 0-9.831 1.894-13.407 5.63-3.553 3.712-5.354 8.323-5.354 13.705 0 5.086 1.82 9.618 5.409 13.47 3.165 3.4 7.154 5.561 11.875 6.442-.826 6.26-6.359 11.926-16.481 16.863l-1.822.889 7.472 13.795 1.687-.855C534.148 70.689 545 55.357 545 35.966c0-6.69-2.124-12.468-6.313-17.175zM512.665 77.2l-3.744-6.911c11.258-5.9 16.963-12.991 16.963-21.1v-1.735l-1.725-.196c-4.646-.526-8.343-2.325-11.302-5.502-2.938-3.154-4.366-6.693-4.366-10.82 0-4.409 1.399-8.012 4.276-11.018 2.853-2.982 6.32-4.432 10.598-4.432 4.829 0 8.891 1.927 12.418 5.889 3.587 4.03 5.33 8.802 5.33 14.59 0 8.888-2.502 16.912-7.438 23.848-4.709 6.619-11.772 12.462-21.01 17.387zM486 18.782c-4.295-4.766-9.472-7.182-15.387-7.182-5.325 0-9.815 1.898-13.344 5.64-3.498 3.712-5.272 8.319-5.272 13.695 0 5.086 1.819 9.618 5.408 13.47 3.159 3.392 7.1 5.552 11.733 6.437-.816 6.264-6.303 11.933-16.343 16.87l-1.795.883 7.286 13.805 1.704-.86c21.501-10.848 32.402-26.182 32.402-45.574 0-6.695-2.151-12.476-6.392-17.184zm-26.067 58.411l-3.641-6.9c11.177-5.901 16.84-12.995 16.84-21.103v-1.732l-1.721-.2c-4.551-.524-8.202-2.324-11.162-5.502-2.938-3.153-4.365-6.693-4.365-10.82 0-4.414 1.378-8.021 4.213-11.029 2.805-2.974 6.245-4.42 10.516-4.42 4.834 0 8.923 1.929 12.499 5.897 3.629 4.028 5.393 8.797 5.393 14.582 0 8.886-2.513 16.908-7.471 23.844-4.729 6.617-11.823 12.46-21.101 17.383z"/></g><g clip-path="url(#clip1)"><path d="M389.884 202.388c.314-.094.635-.163.96-.206l12.971-26.35-3.96-5.935 8.178-7.146 10.281 12.578-20.938 30.467a6.215 6.215 0 01-11.01 5.727 6.21 6.21 0 013.518-9.135z" fill="#F4B89B"/><path d="M412.026 166.392a2.636 2.636 0 01-.602.474l-13.271 7.692a2.674 2.674 0 01-2.128.239 2.667 2.667 0 01-1.617-1.405l-6.455-13.633a2.644 2.644 0 01-.166-1.841 2.646 2.646 0 011.077-1.502l8.226-5.595a2.667 2.667 0 013.387.322l11.499 11.537a2.663 2.663 0 01.05 3.712z" fill="#CCC"/><path d="M430.66 317.38l-7.007 1.906-10.688-26.113 10.341-2.814 7.354 27.021z" fill="#F4B89B"/><path d="M418.103 318.646l13.513-3.676 2.315 8.507-22.021 5.99a8.823 8.823 0 016.193-10.821z" fill="#2F2E41"/><path d="M370.759 322.726l-7.261-.001-3.455-28.003 10.717.001-.001 28.003z" fill="#F4B89B"/><path d="M358.311 320.651h14.004v8.816h-22.822a8.819 8.819 0 015.443-8.145 8.824 8.824 0 013.375-.671z" fill="#2F2E41"/><path d="M378.41 141.525c8.034 0 14.548-6.512 14.548-14.544 0-8.033-6.514-14.545-14.548-14.545-8.035 0-14.548 6.512-14.548 14.545 0 8.032 6.513 14.544 14.548 14.544z" fill="#F4B89B"/><path d="M370.315 302.76h-9.923a2.678 2.678 0 01-2.663-2.501c-2.957-46.996-1.227-80.707 5.443-106.091.03-.111.066-.22.108-.326l.532-1.329a2.65 2.65 0 012.475-1.675h20.406a2.666 2.666 0 012.023.93l2.772 3.234c.054.063.105.127.153.195 12.499 17.425 23.699 51.492 36.671 97.282a2.653 2.653 0 01-1.752 3.267l-10.664 3.411a2.675 2.675 0 01-3.213-1.38l-27.674-57.387a2.082 2.082 0 00-.906-.936 2.08 2.08 0 00-2.443.386 2.08 2.08 0 00-.573 1.169l-8.131 59.447a2.672 2.672 0 01-2.641 2.304z" fill="#2F2E41"/><path d="M390.369 195.238l-.083-.001-24.787-.782a2.658 2.658 0 01-2.564-2.342c-3.142-25.429 5.475-32.241 9.326-33.989a2.045 2.045 0 001.192-1.625l.333-2.665c.057-.471.239-.918.527-1.294 6.037-7.82 14.282-10.324 18.659-11.121a2.678 2.678 0 012.044.473 2.666 2.666 0 011.066 1.807l.499 3.827c.051.365.197.711.423 1.002 12.592 16.458-1.436 40.758-4.376 45.462a2.674 2.674 0 01-2.259 1.248z" fill="#CCC"/><path d="M407.761 128.618a57.919 57.919 0 00-11.553-12.093c-3.672-2.867-7.758-5.316-12.267-6.488-4.508-1.171-9.488-.972-13.601 1.214-4.114 2.186-8.367 6.528-8.393 11.186-.008 1.496.373 3.52 1.847 3.261l.426.057 10.666-2.154 4.542 15.761c.319 1.108.748 2.346 1.799 2.818.99.445 2.135.026 3.137-.392.164-.069 1.58-3.246 1.58-3.246a.588.588 0 01.46-.385.581.581 0 01.309.031c.099.037.186.1.251.183l.841 1.051a1.187 1.187 0 001.382.353l17.393-7.26c.801-.334 1.697-.771 1.929-1.607.223-.802-.267-1.612-.748-2.29z" fill="#6A4B35"/><path d="M474.407 330H296.124a.59.59 0 110-1.184h178.283a.593.593 0 110 1.184z" fill="#3F3D56"/><path d="M377.753 237.717a1.893 1.893 0 01-1.119-.37l-2.696-1.958a1.302 1.302 0 00-1.541 0l-2.696 1.958a1.905 1.905 0 01-2.929-2.127l1.03-3.169c.086-.263.086-.547.001-.811a1.312 1.312 0 00-.478-.655l-2.696-1.958a1.903 1.903 0 011.119-3.443h3.333a1.309 1.309 0 001.247-.905l1.029-3.169a1.904 1.904 0 013.621 0l1.029 3.169a1.309 1.309 0 001.247.905h3.333a1.908 1.908 0 011.81 1.315 1.905 1.905 0 01-.691 2.128l-2.696 1.958a1.304 1.304 0 00-.477 1.466l1.03 3.169a1.876 1.876 0 01-.691 2.127 1.893 1.893 0 01-1.119.37z" fill="#B9CEC9"/><path d="M388.057 231.382a6.366 6.366 0 002.686-4.665 6.357 6.357 0 00-1.853-5.054l4.604-55.589-13.708 1.886-.261 54.009a6.396 6.396 0 008.532 9.413z" fill="#F4B89B"/><path d="M394.39 174.079c-.257 0-.512-.037-.758-.11l-14.717-4.327a2.676 2.676 0 01-1.639-1.379 2.66 2.66 0 01-.094-2.14l5.446-14.066a2.647 2.647 0 011.221-1.388 2.647 2.647 0 011.831-.254l9.722 2.114a2.665 2.665 0 012.098 2.677l-.452 16.28a2.667 2.667 0 01-2.658 2.593z" fill="#CCC"/><path d="M255.876 243.542H4.146A4.147 4.147 0 010 239.397V164.19a4.15 4.15 0 014.146-4.145h251.73a4.15 4.15 0 014.146 4.145v75.207a4.152 4.152 0 01-4.146 4.145zM4.146 161.229a2.966 2.966 0 00-2.961 2.961v75.207a2.962 2.962 0 002.961 2.961h251.73a2.968 2.968 0 002.961-2.961V164.19a2.965 2.965 0 00-2.961-2.961H4.146z" fill="#3F3D56"/><path d="M114.3 275.209a2.329 2.329 0 01-1.371-.454l-3.302-2.399a1.605 1.605 0 00-1.888 0l-3.303 2.399a2.336 2.336 0 01-2.741 0 2.324 2.324 0 01-.847-2.606l1.261-3.882a1.597 1.597 0 00-.583-1.796l-3.303-2.399a2.33 2.33 0 010-3.772 2.334 2.334 0 011.37-.445h4.083a1.599 1.599 0 001.527-1.109l1.262-3.882a2.337 2.337 0 012.218-1.611 2.333 2.333 0 012.217 1.611l1.262 3.882c.104.323.308.604.583.803.274.2.605.307.944.306h4.083c.492 0 .972.156 1.37.446a2.324 2.324 0 01.847 2.606 2.324 2.324 0 01-.847 1.165l-3.303 2.399a1.605 1.605 0 00-.583 1.796l1.262 3.882a2.297 2.297 0 01-.848 2.606 2.323 2.323 0 01-1.37.454zm33.471 0a2.324 2.324 0 01-1.371-.454l-3.303-2.399a1.602 1.602 0 00-1.888 0l-3.303 2.399a2.333 2.333 0 01-3.588-2.606l1.262-3.882a1.605 1.605 0 00-.584-1.796l-3.303-2.399a2.328 2.328 0 01-.846-2.606c.152-.468.448-.876.847-1.165.398-.29.878-.446 1.37-.446h4.083c.339.001.67-.106.944-.306.275-.199.479-.48.583-.803l1.262-3.882a2.331 2.331 0 014.435 0l1.261 3.882a1.605 1.605 0 001.528 1.109h4.082a2.33 2.33 0 012.218 1.611 2.334 2.334 0 01-.847 2.606l-3.303 2.399a1.605 1.605 0 00-.584 1.796l1.262 3.882a2.29 2.29 0 01-.847 2.606 2.323 2.323 0 01-1.37.454zm33.469 0a2.323 2.323 0 01-1.37-.454l-3.303-2.399a1.601 1.601 0 00-1.888 0l-3.303 2.399a2.333 2.333 0 01-3.588-2.606l1.261-3.882a1.597 1.597 0 00-.583-1.796l-3.303-2.399a2.33 2.33 0 011.371-4.217h4.082a1.605 1.605 0 001.528-1.109l1.261-3.882a2.337 2.337 0 012.218-1.611 2.333 2.333 0 012.217 1.611l1.262 3.882c.104.323.308.604.583.803.274.2.605.307.944.306h4.083a2.332 2.332 0 011.371 4.217l-3.303 2.399a1.607 1.607 0 00-.584 1.796l1.262 3.882a2.297 2.297 0 01-.847 2.606 2.324 2.324 0 01-1.371.454zm33.47 0a2.323 2.323 0 01-1.37-.454l-3.303-2.399a1.602 1.602 0 00-1.888 0l-3.303 2.399a2.334 2.334 0 01-3.588-1.165 2.334 2.334 0 010-1.441l1.261-3.882a1.597 1.597 0 00-.583-1.795l-3.303-2.4a2.33 2.33 0 011.37-4.217h4.083a1.599 1.599 0 001.528-1.109l1.261-3.882a2.337 2.337 0 012.218-1.611 2.333 2.333 0 012.217 1.611l1.262 3.882c.104.323.308.604.583.803.274.2.605.307.944.306h4.083a2.333 2.333 0 012.217 3.052 2.324 2.324 0 01-.847 1.165l-3.303 2.399a1.605 1.605 0 00-.583 1.796l1.262 3.882a2.301 2.301 0 01-.847 2.606 2.324 2.324 0 01-1.371.454z" fill="#B9CEC9"/><path d="M236.946 275.439a2.555 2.555 0 01-1.505-.498 2.52 2.52 0 01-.931-2.863l1.262-3.882a1.375 1.375 0 00-.5-1.539l-3.303-2.399a2.565 2.565 0 01-.931-2.863 2.565 2.565 0 012.436-1.769h4.083a1.37 1.37 0 001.309-.951l1.262-3.882a2.564 2.564 0 012.436-1.769 2.56 2.56 0 012.435 1.769l1.262 3.882a1.373 1.373 0 001.309.951h4.083a2.558 2.558 0 012.435 1.769 2.556 2.556 0 01-.93 2.863l-3.303 2.399a1.375 1.375 0 00-.5 1.539l1.262 3.882a2.56 2.56 0 01-3.942 2.863l-3.302-2.399a1.37 1.37 0 00-1.619 0l-3.303 2.399a2.555 2.555 0 01-1.505.498zm5.618-4.346c.541 0 1.068.172 1.505.49l3.303 2.399a1.374 1.374 0 002.118-.687c.09-.277.09-.575 0-.851l-1.262-3.882a2.556 2.556 0 01.931-2.863l3.303-2.399a1.38 1.38 0 00.5-1.539 1.38 1.38 0 00-1.309-.951h-4.083a2.555 2.555 0 01-2.436-1.769l-1.261-3.882a1.38 1.38 0 00-1.31-.951 1.377 1.377 0 00-1.309.951l-1.261 3.882a2.556 2.556 0 01-2.436 1.769h-4.083a1.377 1.377 0 00-.809 2.49l3.303 2.399a2.551 2.551 0 01.931 2.863l-1.262 3.882a1.372 1.372 0 00.5 1.539 1.38 1.38 0 001.618-.001l3.303-2.399a2.56 2.56 0 011.506-.49z" fill="#3F3D56"/><path d="M32.577 177.81a3.85 3.85 0 100 7.698h194.868a3.849 3.849 0 100-7.698H32.577zm0 20.134a3.85 3.85 0 100 7.698h194.868a3.849 3.849 0 100-7.698H32.577zm0 20.134a3.85 3.85 0 00-2.723 6.571 3.85 3.85 0 002.723 1.127h194.868a3.849 3.849 0 100-7.698H32.577z" fill="#CCC"/><path d="M32.577 177.81a3.85 3.85 0 100 7.698h194.868a3.849 3.849 0 100-7.698H32.577zm0 20.134a3.85 3.85 0 100 7.698h194.868a3.849 3.849 0 100-7.698H32.577zm0 20.134a3.85 3.85 0 00-2.723 6.571 3.85 3.85 0 002.723 1.127h194.868a3.849 3.849 0 100-7.698H32.577z" fill="#CCC"/><path d="M255.876 95.497H4.146A4.151 4.151 0 010 91.352V16.145A4.15 4.15 0 014.146 12h251.73a4.15 4.15 0 014.146 4.145v75.207a4.154 4.154 0 01-4.146 4.145zM4.146 13.184a2.965 2.965 0 00-2.961 2.961v75.207a2.964 2.964 0 002.961 2.96h251.73a2.967 2.967 0 002.961-2.96V16.145a2.965 2.965 0 00-2.961-2.96H4.146z" fill="#3F3D56"/><path d="M114.3 127.164a2.329 2.329 0 01-1.371-.454l-3.302-2.399a1.605 1.605 0 00-1.888 0l-3.303 2.399a2.327 2.327 0 01-2.741 0 2.324 2.324 0 01-.847-2.606l1.261-3.882a1.601 1.601 0 00-.583-1.795l-3.303-2.399a2.336 2.336 0 01-.847-2.607 2.33 2.33 0 012.217-1.61h4.083a1.604 1.604 0 001.527-1.11l1.262-3.882a2.33 2.33 0 013.588-1.165c.399.289.695.697.847 1.165l1.262 3.882a1.6 1.6 0 001.527 1.11h4.083a2.326 2.326 0 012.217 1.61 2.334 2.334 0 01-.847 2.607l-3.303 2.399a1.601 1.601 0 00-.583 1.795l1.262 3.882a2.297 2.297 0 01-.848 2.606 2.323 2.323 0 01-1.37.454zm33.471 0a2.324 2.324 0 01-1.371-.454l-3.303-2.399a1.602 1.602 0 00-1.888 0l-3.303 2.399a2.334 2.334 0 01-2.741 0 2.33 2.33 0 01-.847-2.606l1.262-3.882a1.601 1.601 0 00-.584-1.795l-3.303-2.399a2.335 2.335 0 01-.846-2.607 2.326 2.326 0 012.217-1.61h4.083a1.607 1.607 0 001.527-1.11l1.262-3.882c.152-.468.448-.876.847-1.165a2.327 2.327 0 012.741 0c.398.289.695.697.847 1.165l1.261 3.882c.105.323.309.604.583.804.275.199.605.306.945.306h4.082a2.329 2.329 0 012.218 3.051 2.337 2.337 0 01-.847 1.166l-3.303 2.399a1.597 1.597 0 00-.584 1.795l1.262 3.882a2.29 2.29 0 01-.847 2.606 2.323 2.323 0 01-1.37.454zm33.469 0a2.323 2.323 0 01-1.37-.454l-3.303-2.399a1.608 1.608 0 00-1.888 0l-3.303 2.399a2.327 2.327 0 01-2.741 0 2.33 2.33 0 01-.847-2.606l1.261-3.882c.106-.322.106-.67.001-.992a1.595 1.595 0 00-.584-.803l-3.303-2.399a2.337 2.337 0 01-.847-2.607 2.33 2.33 0 012.218-1.61h4.082c.34 0 .67-.107.945-.306.274-.2.478-.481.583-.804l1.261-3.882a2.33 2.33 0 013.588-1.165c.399.289.695.697.847 1.165l1.262 3.882a1.6 1.6 0 001.527 1.11h4.083a2.331 2.331 0 011.371 4.217l-3.303 2.399a1.603 1.603 0 00-.584 1.795l1.262 3.882a2.297 2.297 0 01-.847 2.606 2.324 2.324 0 01-1.371.454z" fill="#B9CEC9"/><path d="M236.946 127.394a2.548 2.548 0 01-1.505-.498 2.523 2.523 0 01-.931-2.863l1.262-3.882a1.372 1.372 0 00-.5-1.538l-3.303-2.4a2.561 2.561 0 011.505-4.632h4.083a1.372 1.372 0 001.309-.951l1.262-3.882a2.564 2.564 0 012.436-1.769 2.56 2.56 0 012.435 1.769l1.262 3.882c.089.277.264.518.5.689.235.171.518.263.809.262h4.083a2.558 2.558 0 012.435 1.77 2.553 2.553 0 01-.93 2.862l-3.303 2.4a1.374 1.374 0 00-.5 1.538l1.262 3.882a2.564 2.564 0 01-.931 2.863 2.558 2.558 0 01-3.011 0l-3.302-2.399a1.378 1.378 0 00-1.619 0l-3.303 2.399a2.548 2.548 0 01-1.505.498zm5.618-4.346c.541 0 1.068.172 1.505.491l3.303 2.399a1.374 1.374 0 002.118-.688c.09-.277.09-.574 0-.851l-1.262-3.882a2.556 2.556 0 01.931-2.862l3.303-2.4a1.38 1.38 0 00.5-1.538 1.379 1.379 0 00-1.309-.951h-4.083a2.555 2.555 0 01-2.436-1.77l-1.261-3.882a1.38 1.38 0 00-1.31-.951 1.377 1.377 0 00-1.309.951l-1.261 3.882a2.558 2.558 0 01-2.436 1.77h-4.083a1.38 1.38 0 00-1.309 1.801c.09.276.265.517.5.688l3.303 2.4a2.549 2.549 0 01.931 2.862l-1.262 3.882a1.375 1.375 0 002.118 1.539l3.303-2.399a2.553 2.553 0 011.506-.491zm-39.38 4.251a2.555 2.555 0 01-1.505-.498 2.52 2.52 0 01-.931-2.863l1.262-3.882a1.368 1.368 0 00-.5-1.539l-3.303-2.399a2.564 2.564 0 01-.93-2.863 2.564 2.564 0 012.436-1.769h4.082a1.37 1.37 0 001.309-.951l1.262-3.882a2.564 2.564 0 012.436-1.769 2.558 2.558 0 012.436 1.769l1.261 3.882a1.373 1.373 0 001.309.951h4.083a2.558 2.558 0 012.436 1.769 2.564 2.564 0 01-.931 2.863l-3.302 2.4a1.375 1.375 0 00-.501 1.538l1.262 3.882a2.56 2.56 0 01-3.941 2.863l-3.303-2.399a1.368 1.368 0 00-1.618 0l-3.303 2.399a2.558 2.558 0 01-1.506.498zm5.618-4.346c.541 0 1.068.172 1.505.49l3.303 2.4a1.381 1.381 0 001.618 0 1.374 1.374 0 00.5-1.539l-1.261-3.882a2.556 2.556 0 01.93-2.863l3.303-2.399a1.38 1.38 0 00.5-1.539 1.38 1.38 0 00-1.309-.951h-4.083a2.554 2.554 0 01-2.435-1.769l-1.262-3.882a1.38 1.38 0 00-1.309-.951 1.374 1.374 0 00-1.309.951l-1.262 3.882a2.553 2.553 0 01-2.436 1.769h-4.082a1.374 1.374 0 00-1.31.951 1.38 1.38 0 00.5 1.539l3.303 2.399a2.551 2.551 0 01.931 2.863l-1.262 3.882a1.375 1.375 0 002.118 1.539l3.303-2.4c.438-.318.965-.49 1.506-.49z" fill="#3F3D56"/><path d="M32.577 29.765a3.85 3.85 0 100 7.699h194.868a3.85 3.85 0 100-7.699H32.577zm0 20.135a3.85 3.85 0 00-2.723 6.57 3.85 3.85 0 002.723 1.128h194.868a3.85 3.85 0 100-7.699H32.577zm0 20.133a3.85 3.85 0 00-2.723 6.571 3.85 3.85 0 002.723 1.128h194.868a3.85 3.85 0 000-7.699H32.577z" fill="#CCC"/><path d="M32.577 29.765a3.85 3.85 0 100 7.699h194.868a3.85 3.85 0 100-7.699H32.577zm0 20.135a3.85 3.85 0 00-2.723 6.57 3.85 3.85 0 002.723 1.128h194.868a3.85 3.85 0 100-7.699H32.577zm0 20.133a3.85 3.85 0 00-2.723 6.571 3.85 3.85 0 002.723 1.128h194.868a3.85 3.85 0 000-7.699H32.577z" fill="#CCC"/></g><defs><clipPath id="clip0"><path fill="#fff" transform="translate(451)" d="M0 0h94v94H0z"/></clipPath><clipPath id="clip1"><path fill="#fff" transform="translate(0 12)" d="M0 0h475v318H0z"/></clipPath></defs></svg>