<svg width="1440" height="817" fill="none" xmlns="http://www.w3.org/2000/svg"><path d="M-.028 184H1439.52L1503 817l-190.44-54.975-328.397-60.211-333.895-33.509-415.37-16.754L-90 604.429-.028 184z" fill="url(#paint0_linear)"/><path fill-rule="evenodd" clip-rule="evenodd" d="M-44.762 70.147L20.603 80.8C85.952 92.091 231 86.537 362.5 70.147c172.5-21.5 259.683-47.48 391-48.5 131.334-1.656 254 24.116 383.5 52 137 29.5 260.72 61.835 326.32 63.558l65.6 1.723-6.52 248.124-65.6-1.723-328-8.615-393.6-10.338-393.6-10.338-328-8.615L-52 345.7l7.238-275.553z" fill="url(#paint1_linear)"/><defs><linearGradient id="paint0_linear" x1="1439.52" y1="432.174" x2=".009" y2="424.889" gradientUnits="userSpaceOnUse"><stop stop-color="snow"/><stop offset="1" stop-color="#E3DCD6"/></linearGradient><linearGradient id="paint1_linear" x1="1526.4" y1="-76.209" x2="-48.468" y2="-133.937" gradientUnits="userSpaceOnUse"><stop stop-color="snow"/><stop offset="1" stop-color="#E3DCD6"/></linearGradient></defs></svg>