<svg width="1582" height="244" fill="none" xmlns="http://www.w3.org/2000/svg"><path fill-rule="evenodd" clip-rule="evenodd" d="M3.474 70.147L68.839 80.8c65.349 11.291 210.397 5.737 341.897-10.653 172.5-21.5 259.683-47.48 391-48.5 131.334-1.656 254.004 24.115 383.504 52 137 29.5 260.71 61.835 326.31 63.558l65.6 1.723V202.5h-82.41c-65.6-1.723-198.3 3.446-329.5 0s-253.804 3.446-385.004 0c-131.2-3.446-264.8 3.446-396 0s-249.797 1.723-315.397 0H3.474V70.147z" fill="url(#paint0_linear)"/><defs><linearGradient id="paint0_linear" x1="1579.43" y1="115.863" x2="5.391" y2="31.493" gradientUnits="userSpaceOnUse"><stop stop-color="snow"/><stop offset="1" stop-color="#E3DCD6"/></linearGradient></defs></svg>