<svg width="1577" height="203" fill="none" xmlns="http://www.w3.org/2000/svg"><path fill-rule="evenodd" clip-rule="evenodd" d="M0 70.171l65.623 8.933c65.622 9.572 210.475.211 341.499-19.626C578.998 33.456 665.468 5.195 796.714.728c131.245-5.104 254.546 17.438 384.736 41.913 137.72 25.893 262.25 54.968 327.87 54.968h67.29v63.55l-82.39 2.164c-65.62 0-198.14 8.651-329.38 8.651-131.25 0-253.625 10.109-384.87 10.109s-264.619 10.398-395.864 10.398c-131.245 0-249.665 8.281-315.288 8.281l-65.343 1.716L0 70.171z" fill="url(#paint0_linear)"/><defs><linearGradient id="paint0_linear" x1="1576.61" y1="74.492" x2=".901" y2="31.48" gradientUnits="userSpaceOnUse"><stop stop-color="snow"/><stop offset="1" stop-color="#E3DCD6"/></linearGradient></defs></svg>