<svg xmlns="http://www.w3.org/2000/svg" viewBox="0 0 1440 817"><linearGradient id="a" gradientUnits="userSpaceOnUse" x1="1520.353" y1="1294.75" x2="80.842" y2="1302.035" gradientTransform="matrix(1 0 0 -1 0 817.89)"><stop offset="0" stop-color="snow"/><stop offset="1" stop-color="#e3dcd6"/></linearGradient><path d="M81.2-793.2h1439.5l63.5 633-190.4-55-328.4-60.2-333.9-33.5-415.4-16.8-324.9-47.1 90-420.4z" fill="url(#a)"/><linearGradient id="b" gradientUnits="userSpaceOnUse" x1="1596.635" y1="1569.65" x2="35.616" y2="1626.87" gradientTransform="matrix(1 0 0 -1 0 817.89)"><stop offset="0" stop-color="snow"/><stop offset="1" stop-color="#e3dcd6"/></linearGradient><path d="M50.3-907.1l51.5 10.7c65.3 11.3 210.4 5.7 341.9-10.7 172.5-21.5 259.7-47.5 391-48.5 131.3-1.7 254 24.1 383.5 52 137 29.5 260.7 61.8 326.3 63.6l53.4 1.7 5.7 248.1-65.6-1.7c-65.6-1.7-196.8-5.2-328-8.6s-262.4-6.9-393.6-10.3-262.4-6.9-393.6-10.3c-131.2-3.4-262.4-6.9-328-8.6l-47.7-4.4 3.2-273z" fill-rule="evenodd" clip-rule="evenodd" fill="url(#b)"/></svg>