<svg width="1577" height="204" fill="none" xmlns="http://www.w3.org/2000/svg"><path fill-rule="evenodd" clip-rule="evenodd" d="M.233 70.835l65.623 8.933c65.623 9.571 210.475.21 341.499-19.627C579.232 34.12 665.702 5.86 796.947 1.392 928.192-3.713 1051.49 18.83 1181.68 43.305c137.73 25.892 262.25 54.967 327.87 54.967h67.29v63.55l-82.38 2.164c-65.63 0-198.14 8.652-329.39 8.652-131.24 0-253.622 10.109-384.867 10.109s-264.618 10.397-395.863 10.397c-131.246 0-249.666 8.282-315.289 8.282L3.71 203.142.233 70.835z" fill="#fff"/></svg>